<mxfile host="65bd71144e">
    <diagram id="HIP3nbAZw_EuaXWnEj3U" name="Page-1">
        <mxGraphModel dx="1163" dy="706" grid="1" gridSize="10" guides="1" tooltips="1" connect="1" arrows="1" fold="1" page="1" pageScale="1" pageWidth="850" pageHeight="1100" math="0" shadow="0">
            <root>
                <mxCell id="0"/>
                <mxCell id="1" parent="0"/>
                <mxCell id="7" value="http://ics2o.mths.ca" style="swimlane;whiteSpace=wrap;html=1;fillColor=#a0522d;fontColor=#ffffff;strokeColor=#6D1F00;" parent="1" vertex="1">
                    <mxGeometry x="40" y="40" width="760" height="480" as="geometry"/>
                </mxCell>
                <mxCell id="9" value="&lt;font style=&quot;font-size: 17px; color: rgb(253, 253, 253);&quot;&gt;Cookie Clicker&lt;/font&gt;" style="rounded=0;whiteSpace=wrap;html=1;fillColor=#a0522d;fontColor=#ffffff;strokeColor=#6D1F00;" parent="7" vertex="1">
                    <mxGeometry y="20" width="760" height="60" as="geometry"/>
                </mxCell>
                <mxCell id="11" value="" style="shape=image;verticalLabelPosition=bottom;labelBackgroundColor=default;verticalAlign=top;aspect=fixed;imageAspect=0;image=data:image/png,iVBORw0KGgoAAAANSUhEUgAAAgAAAAIACAYAAAD0eNT6AAAACXBIWXMAAA7DAAAOwwHHb6hkAAAAGXRFWHRTb2Z0d2FyZQB3d3cuaW5rc2NhcGUub3Jnm+48GgAAIABJREFUeJzs3XeUFFW+B/DvreocJ+fAkMOQZ8hBSRIkqIAJSRJUVFDfU9BdxV33Le6ua8aVqIDigmlFyUEUVBBcMgMDkmEGJs/0dKy6748RTDDToaqrw/2c43lvOdW3fgzTdX91w+8CDMMwDMMwDMMwDMMwDMMwDMMwDMMwDMMwDMMwDMMwDMMwDMMwDMMwDMMwDMMwDMMwDMMwDMMohigdAMMwoWnP29PURp3DwgsqKwAIHo9KTYgZAESeUxFKOCIKrl9+RhCJjag5l8B7Kk16e23m2NV2JWJnGKZhLAFgmChRuOJei8etzuZELgNAIgGSKaWpV/9/gMQBNAYEZlBYAOgkuC0FSAVAbQBKQXEFBJdBUAKRlFBOLIKICzzhz/K8cD5n0jsVEtyTYRgvsASAYSLIkUX3Z6sJbUEhtqCU5BCKRiBoBJBGAI1VNjqv1AA4C4IfCSXHQekJypNCj0gKW53PPEfmzhWVDpBhIgVLABgmzFAKUrh0cg4VxXYgaA1KWhGQVgBtAcCkdHwyqiXAEQocIMAhypGDKoE72HjqomKlA2OYcMQSAIYJYYUr7rUQu6qZwPFtCGhniGgNgo4A4pWOLXTQSyBkLxXJXo6Ie4lb2NX0weWXlY6KYUIdSwAYJgRsmztXlZ51NouIYhuRcp0JQWuAtgHQCux76o8fKchOQrFDUIkbW01657TSATFMqGEPFoYJsjPz74l1aHVtCBU7g5DWhJI2lNJOINArHVvkopcAbgcoNhMq7Gw27d3DSkfEMEpjCQDDyKTwtUe0RF+VSwlpL4LkEpB2AG0HIFHp2KIdBc4A5CtC6TYV+LVsHQETjVgCwDASOPzmQyatxtbi6lw9oaQzBe0MabbSMfI7ApA1lODz5ueyvmG7DZhowBIAhvFR4Yp7LYJdk8cTmg+QjgDpSEGbAuCUjo0JHAWKCLAWhKwVgY0t719SrXRMDCMHlgAwTD22zZ2rSk87nQue6wbQLqDogrqFeayzjw4uUHxFOPIF5/F83GT6srNKB8QwUmEJAMP8wpn598S6NJpeFKQPgG4AOgEwKBwWExoogF2U0NUqj/ghSwaYcMcSACaqnXjrviSq5rtScD0BDABoR7C3e8Y7Ryglq3lCVjSdsviE0sEwjK9YAsBElf3L7jPqHaqbKUeGEND+AFooHRMT9tjIABOWWALARLzjSyY3hoAB4OhwUAwAW5nPyIrsBcTlVNC812L6ghKlo2GYG2EJABNxKAU5uXBSd5HQMSBkFIBGSsfERCUHCD4nIMsrPap1edMXuJUOiGF+iSUATMQoXDChjUj4MYTQcQCaKB0Pw/yMlIPQ1RRkefPJS3YSAqp0RAzDEgAmrBUumNAGHD+Zgo4BkKl0PAzTEAJynFKs8BCyrPWUxWeUjoeJXiwBYMLOqaUTdR4Bwykl00DQH+z3mAlPIii2Uo4sN5irV2eOXW1XOiAmurAHJxM2Tiyc0FnkuPGgGAcgTul4GEZCFSBYRUHmt7h/yX6lg2GiA0sAmJBG587lTmScHkZB5gDornQ8DCM/shcUC0QOK1kZYkZOLAFgQlLB4slmjoqTKchjBMhWOh6GCToKOwj5HBwWNJ+8ZLPS4TCRhyUATEgpWDglhyPCTACTAZiVjodhQsQhQshij8qzvNWEZaVKB8NEBpYAMCHh6NKJjXiRzAHFZAAqpeNhmBDlAsh/CMTlTS22tWTsakHpgJjwxRIARlGs42cYP1FcACErBF78V6tJ75xWOhwm/LAEgPHaf/4wooUoIl8UkUMIzQGQToFaQuAmFCIlOA1KjlJKj6hEUjDyb5/dcAHTyaUTm4ke8gdKcA9Yxx8QjcUIXawRokeA/UolBJdH6ZCY4BIIsJFSuqhK1KxhFQcZb7EEgKnXJ7NvvQkcGUMpBgNo7MNHRQBHQPAdKP0GAv3utr99UXB00f1ZKojPAxgHgJcl6CjB69RI6twcxpSfd0RSUUDZ4TMoP35BwcgYxRBcBsUyUH5J86mLjiodDhPaWALA/M6qx8boea3jXkLwKIC2UrXLEeIw6NUak0HNmfRq6DTsxd9f2hgTUru3gspw/XONSvadQMXJS0GOigktddsJ3S7d+21mzK9ROhom9LAEgLlm7ty5XHvn3kkUeAFAitz306h5xFl0iLPowHHsV9FbpvQEJOU3B8ffeABFcHlw+otdoKIYxMiYEFVNQT4lHJax7YTML7GnLgMA+Hj28H4g5CWAdgj2vXmeQ2q8ATFmdkpv/QjiWmUgrnU2vPnqnt+2D44yVkeG+QWCAkLpO+DIkmaTl15ROhxGWSwBiHKrnhpj5XnH3wjFVCj8+2AxapCeZAbPRgN+h/AckvNawJSR4PVnWALA1MNJgE8ppYubXWi0hcydK+lQ0aoxY3hVU1sTjlMnCAIMhIg6UKIHUA0iVooiqVKpuCqXR1M19sXVlVLem/Eee9JGsY9njxgMgoUAzVA6lqs0ah5ZKRboNGx94FUqvQap3VtDG+t9XSRREHD68+8getgUANOAn7YTipR7u+XURad8/fiqMWN4dTNbW4iqXhRiR0JIOwq0AaBv6LNOt4BKmwM8IW7CcTU8IcWEo98RXv3R+H+uXUvqFhMzMmEJQBRaM3e4we3Cq6CYonQs18NxBBmJJlhMWqVDUZwuzoKU7q2h0ql9+lzZ0bMoO8JOmmV8IoJiKyF0gcti+0+bsatd17tozdzhBpeLdIWIXhxBTwraAwFU7SytqoUg0N/9OccRUcVxx3ieLE0U+deGvr7O6e89mOtjCUCU+fjJYa3Ac/+GhKv75UAApCWaEWuJ3iTAnJWEpE7NQHjOp89VnirClf8WAr9/pjKMdwguE2A5FfnFzacuOvrR7GGNOY4fDireSkF6A5Dsi2lzuGGzXzfX+DkcjhM1PPlWqxUfuucfWw5Ide9oxxKAKPLJ7BHTKKGvwIuhuVAQvUkAQVzrTMS1yoJPX1FKUXr4DMqPnZMtMiZ6CIKIsionyirtbrcg+jYE5QMq1o0CiLThjJWAQK3i9mlAx497Y/NBuWKKFiwBiAJrHxmidZhUbwGYpHQsviKEoEmGNWpqBnAqDkn5LWBK836xHwCIHgHFuwtgu1QmU2RMtBAEiuIyGyqqnV51ylKwO92orq1/FOCXCAHUvOoHDRHuG/f6liMyhhbRWAIQ4f7z5Ig0gaefAOiidCz+0mlVaJphRaT/uqqNOqT2aAONxeDT59w1dlz65ghc1bUyRcZEi4pqB4pKa+ERgrv2jgIoq7RD8LFuBSGEatWqnVqO3Hf3K+tPyxJcBIvsJ2qU++iZ4d2IiI8BpCodS6Ayky2wmjRKhyEbfbwFKd1agdf59ne0l1Si6LujEJys/DsTAAoUldpQUmlXLAS3R0B5tcOvz3KEUI2a36HS8feM+9u68xKHFrFYAhChPnl6+BBK8RHCZL6/IXqtCk0yYpQOQxbWnFQkdGgMwvm42O/HIpTsPwEqstV+TGAuXKlBeZV/na+UqmxOOAI4zIoDqEqt2hLPCeNGvrqlWMLQIhJLACLQx3OG3wpgNYCIKq3XLDMG2khaC0AI4ttkI7ZFpk8foyJQeuBHVJxkB/4wgSurtONiiU3pMAAAlAJlVbUQAkxqOcKJGjX3scFjnTR2/mp2DsIN+PbKwYS8j58ecReAjxFhnT8AVNdGzjA3p1EjrVeuz52/4PLg0s6DrPNnJOF0eVBUFhqdP1C3uM9q1CLQd1ORipzD5RldibKy5TOHPCxNdJGHjQBEkI+fHjEQlK4FEEGvyT8zGTRolGpROoyAqU16pPZoDY3Zt8V+rupaFH17BK5q5eZpmchyrqgalbbQq69T63CjpoHaAL7QaVRrJr62cYRkDUYINgIQIT6cM7wlKF2FCO38gbq3lXBnSIlFZr8OPnf+tcVlOL9tH+v8Gck43QKqQrDzBwCDTg2tWrpy4A6XZ/g7jw5kJyH+BksAIsDHc26L5yg+AxCZq+R+4vaIEIK8PUlK1sYpSO2eC07tW45WceIiLu48AtEtyBQZE41KK+0hXSzSYtRC5WMVzPo4XEL/5TMH/U2yBiMASwAiAREWgqCZ0mEEg90Vfp0g4TgkdW6GxI7NQHz4xlGB4vKeYyjZf7JudRTDSIQCqLJJN8QuB0IIrCYdOCLdTLXdLTyx9NGBUfGs9AZLAMLcJ7OH3wFKb1M6jmBxhlkCwGtVSOudC0ujFJ8+Jzg9uLjjAKrOXJYpMiaa2e1ueMLgpEieI7AYtZItVhNFygFkuUTNhT2WAISxVU+NsVKCV5WOI5gC2SMcbBqzARn9OkGfYPXpc86KGpzbshf2kiqZImOiXY09fHbUaNQ8zEbpzgNxuz1dlv3PIKNkDYYxlgCEMRVxPAcgXek4gsnhDI8EgFPxSO2VC7XBtwdXzfkrOP/lfngkXAHNML9lc4RPAgAAOo0KRh+rZN6ISEHgJk9K0liYYwlAmFo195Y4EExVOo5gc7o9YTEdbslO8rHzpyg9chZFu46BhvFCRyb0UQrYHeGRSP+SUa+GXivNJidBpPdK0lCYi9gtY5GOd2kfBahJ6TiCTRTraoZrJNwiJAdNnPf1CkRBwOU9x1FzvkTGiBimjsslBO2UP6mZDVpQEXC4A0tgPKKYIVFIYY2NAIShtY8M0RLQGUrHoRR7GKwD8PYt3mN34sKX+1nnzwSN0xNeC2l/y2zSQKMKrOsSBVH78f8MSpIopLDFEoAwVGvi+4PCtwPjI0g47ARwXKls+JrSKpzb+l84K0KnFCsT+cLh+1MfAgKLSQ91AEkABVDjJgOkiyo8sQQgDBGQW5WOQUnuMCiIU3PhMhxlNz6DpOpMMS58fQBCmC3GYsKfRwj9709DOALEmHRQBZIEEBr19QBYAhBmKEAIyHCl42DqR0Xg0jcHYSsq/9Wfix4BJftO4PKe46BCeM7DMuGNSFhYR0mEEMSadP5XCxSRJW1E4YctAgwdcQCyAWQBaPTT/7YCsPzi/8Ki11hyVn6bAQAGrQomnRomvRomnQYWgwaJFj2SYwxItBrAc5HxRf8tFR/aCwCvEpweXNp5CBqzARqLHqKHwlFaCTHM52CZG6u2u3DmcjXOXq5CSZUdlTYnKmxOVNpcqKhxwPObY261Kr7u+6vXwKxXw2rUItFqQGaCCanxJiTHSP89jqS0kxACq1mHimqHz2XCKSXJMoUVNlgCEHwxANoDaPfTfx0AtABg9ubD1XYXDpy+0uB1PEeQaDUgI96Epqkxdf+lxcCil2YvrZJ0Em0FChZXdS1c1bVKh8FIiFLgx6IKHDhVggOnruDI2TKcuVyFsmqHpPfhOQ7p8Ua0zIyr+y8jDi0zY5GR4NXj4rpUEfZiwBOCGJMOFdV2CKIP6Q2h0lUXClPh9SQNT4kA+gDoC+AmAG0QhKkXQaQoKrehqNyGPSeKr/15SqwR7bIT0LVFCjo2Dr9FsIQAJj37tWWC70qlHWu/P4WvD1/Af09cRnUQijUJooizV6px9ko1Nv5w5tqfJ1r1yG+egi4tUtCleQqapnl/Dli4JdDe4DmCWLMeFdUOeETvRgIoRdQnAJGVCoaOjgBGABiJujf8kPw5N0+PxfRb2iEn2fs960ozGzTITg2feJnw5/aIeGPNPryz6XDIbkFNtBrQr30mBnbMQrdWqdCobjxN5vGIKDhTFsTogkektC4J8GI6QKtR7Zr02sZuQQgrZIVkxxSmOgO4D8Ao1M3lhwWdmsfMEZ3Qtblvh9UopVGqFSaDWukwmChRXuPAjDe3Yk9hccMXhwijTo0+uekY3rUJbmqXcd1FcifPV8AeJmW1fSWKtG69RQNJgFbD75v02qaOQQorJLEEIDCxAMYAmA6gk8Kx+I3nODx/Tze0zoxXOpR6GfVq5KT5drAOw/jLI4iY+M8N2H2sSOlQ/GY1aDA4Lwd39W2BNtk/f7/LKu24WBK59Se8GQmwGHUV97y0NjaIYYUclgD4Jw/A4wBGA4iI19EEix5vTu8XUHENORECNEmPicj5SyY0vf7Zf/H6Z/uUDkMy7RsnYtLANrilczYICI6dKfNt0VyYaSgJiLXo0CjVur+LwZxPpi+IyoIcLAHwHgdgOOo6/j4KxyKLyQPa4Nb8xkqHcV0pcUYkxOqVDoOJEuU1DvSb/WHYnZrnjfQEE8b3b42B7bNQUe1UOhxZUREotznguc7W23irDqkJJqhV3AUNdLkdH3unQoEQFRWar3uhZwCAHwB8igjt/AHgy0PnlQ7hugw6NeJjWOfPBM+6PacjsvMHgAslNfjrv3dj1AufYc33P8IRBpU1/UU4INakve7IJs/V/ZnbI6Y7RMePJ966L/y2RQWIJQD1GwBgF4BNqNu7H9FOFVehKsTOoec5gowkEyKkeBkTJr45clHpEGRXVevC0s2HMeNfW7B27ymvVs6HI0IIrNc5O0Ct/vl/C6IYW1LrOnHwpUmZwY5PSSwBuL7mADagruPvonAsQUMpRWmVtIVMAkEIkJViCfmjf5nIc6H0xuc4RJryGicWbTyERxZsw/eF4bvgsT51Zwfof/Us0f9mPZFHpGYbV1uw76U7mwc7PqWwBODXDABeAHAAwCCFY1GEM8BztqWUGm+EUR8RayyZMBOpw//1Ka6oxV8//B7/t3o3iisir3IlIYDVqINWw4PnCLTXebHweKjBDrL/wOt3t1QgxKBjCcDPhgI4DOAZIHorRMWZdUqHAABIjNUjzsrm/RllJFoNSoegmD0nijFz4Zf48JvCiNslQAhgNeiQGGu44aFIgijqbC7xh91v3hXx0wEsAQCMAP4F4HPUHcITtQxaNRIsyne6sWYdkmONSofBRLHm6d6X1o1ELo+A97cX4OnlO3CxLMLqBRAgI8kMUs8mOEGkeuokh46+MT60i6MEKNoTgHwAe1FXyCfql5n1bJUKTuHVdjEmLdKSTOxfg1HULZ0bKR1CSCi8WIHHF2/H59//GDGnCGrUPCwGLfS6+muKuAXBUuV2Hd42d2JoDIvKIFoTAALgSQDfoO4kvqjHcwRDOucoGoPFqEFGson1/YziurRIQfOMqC4Sd43LI2DJ5sOY9+H3qHWG/9qIpDgDQACjVn3DaYCr3B4x2WB1HKVz50ZkBbJoTACMAFYCeBHsNMRrhubloFGScofsWE0aZCZbwF79mVDAEYI/3ddD8RGxUPJ9YRGeencHzofxDgmzQYMYU90SL8IRGLQNLzJ2e8RGe+KOfyV3bEqItv1VmQDWAxiodCChpENOImYM6wBeoXPCrSYtMpPNDWbjDBNMqXFGpMYbsXX/WaVDCRnVdhe+PHge6fEmZCSYlQ7HJzzPoVGaBdwvnnNqnvPqhEdBEDMfvLV92sL1Bz+XM8Zgi6YnbjfULfQLi0UdiVYDkmP0sBi1sBo0MBs0ICCw2d1wuQV4RBE2hxs1Djdq7G4UV9bC4eNRpQTAoI7ZmDwgV7EzAGLNWqQlmlmhHyZkfbyzEH9eucuvrYExJi0SLHpYDBpYDVroNL9+57K7BFTVOlFd60JZtQOl1aFTh6M+BMD4fq0xsmsTpUPxCscR5KRZf7f3HwBsdjdsjoYLoBEC6LSayZ0fWbFUjhiVEC2P3YEAPkHd8H/IIATITrKgVWYcWmXGo0VmLLKTLEiPN113jyoAXC6rxeXy6+/Rrax1oqi8FmcuV6HwYgVOXKrAuZJqiPTXy3cIIejUJAkjuzRGbnaC5H8vb8WYtEhPYp0/E/rOl1TjrS8O4PNdP173jdGgVSO3UTza5SQiNzse2UkWZCWZYdZrfLqPwyXgfEk1LpTW4PiFchw9W4aC82U4VVQZklvybuvWFONubhXSHQnhCHJSrTDcYNEfFSlKquygtOGfL0+IqNWSrp0e+WCP1HEqIZT/3aQyBsAKAL59E2XSKNmCnq3TkN88BV1bpiLex333VTYXzhZVeX29w+XByaJKXCyrAQWQbDWgSUoMTAoX2Im1/PTmr2gUDOMbm8ONg6dLcOx8OThCYNar0To7Hk1SY2SdQquxu7GnsAi7jxfju4JLOHymBF70V0ExoH0WHhjSLiTXS2jVPDKTzQ2eIlpjd6HWyxEeFc/ZzDBmtXl8cZkUMSop9P7FpHUPgGVQeK1D20YJGNQpG/07ZKFpWmD7iwWRouB0mVfZaqiKs+iRlmCM/N8+hpHJ5YpabNl3Flv2ncU3Ry8pXse/Z6s0PD6yU8is4yEAYq16pMQbvEpMfBkFAACtij+c/9jK3ADDVFxo/GvJowuAr6HQm3+i1YBR3Zvg9p5N0SRV2qIiZ4uqUGULrUN7vEKA5FgDEmOjt8oaw0ittNqBNd+dxEc7C3HsfLlicYzp2Qx391G2gi4hP627iDXccBr1RqprXbD7sM1Rp+Nfz3tk5aO+xhhKIjUBIKg7vrdDsG/cvnEiJg/KxaBOWdeOm5Sa3enByQsVCKfKHIQAaQkmxFoitqYGwyjuwKkrWLLxMDbsPQNBDO6oAM8RvHz/TchIMAX3vjyBSa+BSa+B2aiGivfvuSuIIkor7V5fzxFCtRrSt/OjH3zt1w1DQKQmAIMBrAvmDfu2zcCDw9qjU9PgHCl9scSGMh9+WZXE8xwyk0wwGUJiGQbDRLyLZTa8u+kwVm4vgMMlBO2+o7o3weOjOqO8yilLAkIIgU7Lw6BVQa9Tw6BVQaPiJevJKmsccLq9/3mpeM6mF9TJ7f93eVjWS47UBGABgKnBuFHHJkl4/PbO6NoiJRi3u0akFKcvVaHWHtqVuQw6FTKTLYptM2SYaFZa7cDSjYfwzqYjcHnkTwRMejV2v3IPOI6gqsaJapsb1XYXRD92MBBCoNPw0Gl56LVq6LU8dBq1rLuGXB4RFdW+vVhp1apv82e930OmkGQVqQnAPgDt5bxBeoIJz9zVFQM6ZMl5m3qJIsXpS5WodYTOEb5XEQDxMQakxOsRub9mDBMezlyuwgsrd2H7wfOy3+vzuaN+VUaZ0rpjxh1OD5xuEW63AI9IIfy0cJEAUKl5qHkOajUHNc9Dq+ag1agU2SJcVlULj+BbwqLTqx7Ke/j9t2QKSTaR+mQuBiDLWLxGxWPK4Fw8MLT974p6KIFSioslNpRXO0JmTYBOwyMtyQxDA1tvGIYJrs37zuIvH+zChRL5yvkufmwQerdJl619uTlcHlTZnD59huc4l8UqpLaZsjqstgZG6hNallfilplx+MeUPmieHjqHhBBCkJ5oQqxZi6KyWkWnBAhHkByrR7zVwIr7MEwIGtAhCz1apeKv//4e//7qmCz3CPevvlbDg6slvyugVh9BFDW1NtVa1FWcDRvh/m91IzsA9JSqMY4QTL4lF7NGdaxbcBLC7A4PyqsdqKxxBq1yGEcIYixaJMbooQ7xnw/DMHW+PHAOT7+zEyVV0i4m3viXO9AoWbmDxaTgS2GgqwgAvV59f6eH31siT1TSi9QE4K8AZkvRkFmvwUtT++CmdplSNBdEFDa7BzV2F2pq3XXlSyXOBzhCEGvRIjHGABVb5McwYedKZS0eeWsbfjhxWZL2Eix67HjpzpCsCugL8actgb4+MnmOONQma3ze9AXXr9ceYiL1da0IwIMIMMFpkhqDZf8zGB2aBGdrn7QINGoeJr0GcRYd4iw66DQ8eJ6DKIh+jw4QAEa9GklxBqQnmWExan91uhbDMOHDqFNjZLemKK9x4tDpkoDbG92rOfq2zZAgMmURQuD24zlJKVQq0ZO3YP3BFTKFJqlIfnL/G8BYfz+c3zwF/3qkv8+HeYQLl0dErd2NGrsLdocHTo9w3RECQurqaet1Khi0GpgMaralj2Ei0Lubj+D//r3L7zMG9FoVNrxwO1JiQ+rMNb85XAKqbH6czkgITGqud4eZK3dIH5W0InURIAA8DKAXgDRfP3hzu0y8+sDNIbHKXy4aFQeNWYsYsxZA3RkDHrcIjyiC0rqOX8UTaFQ8CHvDZ5iIN2FAa8SYtJizdIdfZws8fWeXiOn8AUCn5lFDfFsMCACgFE6KlQBCft44kl/lrgAYhLrpAK/d0bMZ3pzRL6I7/+vhOQKtlodRr4bJoIZRr67bh8s6f4aJGiO7NcG/Hu7v82mhDw/vgDv7tJApKoUQQKv1rx9wu4WMH94Y95TEEUkuGp7uaQAWARhS30VWgwaP3d4Z99yk7GEWDMMwSjt5qQKzl+7A/h+v1HtdrEmHP9zdFcO7Ng5SZMHl9ogo97Ey4FU8T5wUabE9Hn85ZGu2R0MCgJNvj8/6+ljxjjW7fszcdawI50uqAQAGrRqts+LQr30mxvRpASurVc8wDAOgroLflwfP4Yvdp7Dr2CVcqbBDpBQqnkPrrHgMzW+E0b2awxLhz82yKrvfxy3rtOpVeY++d6fEIUkm4hOA4wuntAIRNgK4tjRVECmcbg8MWt+GuRiGYaKVIIoor3HCatBG1ULgWkfdYml/cByo0WLJaj91kfw1mP0Q0f+KJxZO6AwibMcvOn+gbr6bdf4MwzDe4zkOCRZ9VHX+AKDXqED8fFcWRRBXbe1KiUOSTMT+SxYumdRXJNw2AIlKx8IwDMOEJ8IRaNT+d5VOl6fX4Zfv6SBhSJKJyASgYNGEnlTE5wDMSsfCMAzDhDdtgAeb2QhdLlEokoq4BKBg0YSeHLh1AExKx8IwDMOEP62aD+iAM5dbyN392t19pYtIGhGVAPzU+a8He/NnGIZhJEJAAj8ITsACaaKRTsTsAihcPLk7pXQDorzzJ5wKvM4IwtdtzeHUOoD7xS8upRBddedUUNEDwWEDFfxb4cowUYEQ8FpT3XcJAFFpQPhfLyIWXbV1++YoheCsgej2o4QsE9IcLg+qbM6A2jCb+P7tH1y5VaKQAhYRpYALFk/Oo5RG/Js/rzVCbUmCypQAtTkBalMCVKZ48DozeL35Vw8pX1CPC4KzBoKjBoK9Cp7acrirS+CuKYGnugTu6st3EZ4oAAAgAElEQVTw1FbK8DdiGGVxKi3UlsSfvlOJ175XvN4CTmsErzOB1/o+m3g1uRadNRAc1fDYyuCuLq37TtWUXPt++V14nwm6q9MAgfyTuVx4E0AryYIKUNiPAJxYdH9TEeIOAMlKxyIdAk1MCrTx2dDGZUAblwlNXAZUhljFIhKcNrjKzsFZdh6u8vNwlJ6Fq+wsqOhfgQyGCTaVMRa6hBxo4jKvfa/U5kQENLkbANHjhKv8IpxlZ+EquwBn2Vk4Sk6DetiIXKiqrHHA6RYCakOrVXXNf/T93RKFFJCwTgCOvTs+nbj5HQAaKR1LIAivgi6xMfTJzaBLagpdclPw2tA/VEP0OOG8cgr24kI4ik/AXlzIhj6Z0EAItHGZ175T+pRmUBnjlI6qQVQU4Sw9A8flE7AXn4C96DgEOxt9CxVSTANo1fze/Fkr8yQKKSBhmwCcWjoxxi2QLwG0VzoWf6jNCTCkt4EhrTUMGbng1HqlQwocFeEsPQvbuf2oObsfzpIzuO4ZwwwjA15rgj6tFQxprWHMag+VIUbpkCThrr4C29n9sJ3dB3vRcVDRo3RIUYtSipLK2oCmAQgAI0dadHji38clCyyAWMLO/mX3GfUu1WYA3ZSOxRea2HSYc7rAlJMHTUyq0uHIzmMrR82Zvaj58XvYL59g852M5FSGWJhy8mDOyYcuqYliw/nBIrpqYTt3ANU/7kbthUOgAksGgq2yxgmnO7Cfu1aj2pY/8/1+EoXkt7D7ttC5c7nCjDOfABihdCzeUFuSYG7SDebGXaCJSVM6HMV4bOWoOfU9qk9+B0fJaaXDYcIYrzPB3LgrTDn50Cc3i/hO/0ZEVy1qzvz3p2TgMEDZepxgkGIagCOcaDJwCe0eer9corD8EnbfnOOLJv0dwP8oHUd9CKeCMbsjrC37wpDWCmH4Y5aVq+ISqgp3ourYVxCcNUqHw4QJbUIjWFv0haVZ92vbXJk6ntoKVJ/4BpUFX8JdXaJ0OBFNFOumAQKl0/Dv5s1cOTHwiPwXVj3T8cWTJ4LSpUrHcSNqUwKsrfvD0qwneB0rRNgQ6nGh+tT3qDi8Gc7SM0qHw4QgTmOAtUUfWFveBLUlSelwQh+lsJ0/iMqjW2E7dxBsDY48Ajki+Cqe4xzdHv/AQIhy/0hhkwAcWzy5F6F0MwCt0rH8ljY+C7G5g2Bq3A2Ei6jiikFjLy5ExeHNqDm9lw1lMnXJdKubYG15EziNQelwwpK7qhgVR7aismA7K/YlMZvdDZsj8J+pTsM/mjdz5esShOSXsEgACt+e0ITy3C4A8UrH8kuG9DaI6zAc+pTmSocSMVwVl1C+/wtUnfyOJQJRSBObjrgOw2HOyQMIS6alINirUHF4EyqObIboDmzumqnj9ogor7YH3I5GzZ/vMmtlpgQh+SXkE4Bzq8bo7VWmnQA6Kh3LVfrkZojvfBv0qS2VDiViuatLUH7gC1Qe+5olAlFAbU5AbLthsLbozTp+mQjOGpQfWI+KI5tZsSEJlFTUQgx4ZxOB2ajq3v6h976TJCif7x7iji+a9A6ACUrHAQC6xBzE590BQ1prpUOJGs7y8yjd8zFsZ/cpHQojA5UpHvGdRsHStDvr+IPEU1uJ8v1r6qYGxMCq2kWzqlonHM7At2HqNOqv82a+10eCkHwW0gnA8YWTp4HQt5WOQ2WwIq7jKFhb9InaLUdKs18qwJXv3oez7LzSoTASICoNYloPQFyH4eDUIbesJyq4KotQsusD2M4dUDqUsCTFdkAA4DgiJKqrjM0eXRf0+ZkAzzeUz7HFk9sTSj8Egbrhq+VBOBViWvdH6oAZ0Cc3ZZ2/gtTmBFhb3gSNJQn2yydAPWwuMzwRmHLykTbwUZhz8kD4iDiPLCzxOhPMTbpBn9IMztIzEBzVSocUVniOoNbhDrgdSsEJnElcsP7gl4FH5ZuQ7NHOzL8n1qnR7AVIjlIx6JObIanXxKio2BduRKcNJXs+RGXBV2DbnMKH2pyIpF4T2BRaCKKigIpDG1D6w6esuqAPyqsdcHsCn0ZRq/hLXR9bGfRKcSGZABxfNHklQO9S4t6cRo/4TrchpnV/9sYf4uxFx1D89TtwVxUrHQpTD8JxsLbqj/i828Gp2HB/KHNXFaN4x7uwXypQOpSwYHO4YLMHPgoAABqDqmOXGe8HdbFTyE0BFC6cNA4Ezypxb2NWB6Tf8gQM6a1Z5x8G1KYEWFr0BnU74bhySulwmOvQxmUgbdBjsDTvBcKx4f5Qx2tNsDTtAV5ngv3SMYCyRYL1IahbCyAFNU+yFqw79L4kjXkppHq5E0smZYoiDgAI6jFehNcgIX80Ytr0R4j9SBgv1V48guLti+CprVA6FAYAQGBt2QeJXe8GUbGyveHIVXEJRV8uYFU660OBK5U2Sc454znO1f2JD4I6RBYyIwB07lyuzFL5MYBWwbyvJjYd6YMfhymrA1jnH77U5kRYmvWEq6oI7soipcOJarzegtR+DyI29xYQLmQeMYyPeJ0Zlua9QTgO9iLFT64NTQRwu0UIYuAZAKWUf3hYx1Nvrz+wX4LIvBIy38577mv0GCh5IJj3jGkzEKn9H4qYc8OjHafSwNy4a93w5cWjrICQAgzpbZAx5Elo4xUrbsZIiBAO+tSW0Cc1Re35g6yA0HWIlMIlwUJAAOBUaLRw/aGgbX0PiVfegoVTcjgiHARgDMb9CK9GUs/xsDTrGYzbMQpwlJzGpS1vwlNTqnQoUYIgtt0QJOTdzgr6RCiPrRyXtrwJx5UflQ4lpLgFEeVVgZcFBuqOCXbW6Iw3z33HIUmDDd0vGDdpCAdhAYLU+atM8ci4dQ7r/COcLqERskY++9NxzIycOLUOqf0fQkL+aNb5RzCVMRYZw2bD2qKv0qGEFDXPgUi0aFykImdNcM2UpDEvKD4FcHzx5IkAHg/GvfSpLZE59El2rGiU4FRamJt0g2CvZAuZZKI2JyBj6FPsQKwoQTgOxqwO4HVG1F44DFaHo45HECEEeDzwVRzQaOGGQ0E5IVDRKYDCJZMSqYijCMIpf+bGXZDc534QXrHCgoyCKg5vxpVdKyHJcl0GQN3ZGGkDZ4LXW5QOhVFA7flDuLR1PkR3UEarQ5rd6UZ1rTTrIwgh1Gzg49s99H65JA3WQ9GNuVTEK5C98yeI7zQCcR1HIESWPChCFEVcunQJp06dQmlpKUpLS1FSUoKysjIAQEVFBegvOker1QqO42CxWJCQkHDtv6ysLGRkZEClCq893TFtBkBliEHR9kXsbHQJmLI7IeWmaWG5xa+kpASnT59GcXHxte9CaWkpPB4Pampq4Hb/XNjFaDRCo9HAYDAgPj4e8fHxSExMRHp6Oho1agSdTqfg30RZhoxcZNw6Bxc3vgKPTfa+KqSpVdINplNKiUsgTwKYI1mjN6BYj1i4cOJNlJBtst6EcEjuNQGW5r1lvU0oEQQBBQUFOHDgAPbv34+DBw+isLAQZ86cgcslTcenUqmQkZGBJk2aoF27dmjbti3atWuHdu3aQa0O7REWe9FxXNz4KkS3NIt2olFM635I7HZvyBfLOnPmDPbt24eDBw/iwIEDOHr0KE6fPo2amhrJ7pGamoqcnBzk5uZe+y507NgRZrNZsnuEOndNKS6s+0fUV+S8UlH7q5eoQKjV3Kmusz5oLElj9VDkG0znzuUKM87uBmhn2W5COKT0mQxz0x6y3SIUuFwu7Ny5E1999RW++eYbfPfdd6iqqlIkFr1ej7y8PPTs2RO9e/fGTTfdBIPBoEgs9XGWnMaFDf+E4JCuI4gWsW0HI6HLWKXD+B1KKfbv348vv/wSO3fuxM6dO3Hp0iVFYuF5Hrm5uejVqxd69uyJ/v37IykpstcdCfYqXFj/j6g+rbOixgmXW5qqgIQQymtUMd0efU/Wh7kiCcCxxROnEkoWyNU+4VRIuXk6TI3kyy+UVFxcjP/85z9Yt24dtmzZgurq0DzFS6fToXfv3hgyZAhGjRqFnBzFznb6HVfFRVxY9w9WOdAHse2G1q30DxG1tbVYu3Yt1q5di/Xr1yvW4TeE4zh06tQJQ4YMwfDhw5Gfn690SLIQnTZc2PBy1G4TrHW4UWOXbnpRr9PM7fzIiucla/A6gp4AFCyebOaoeAwgshyzR3g10gY8AkNGrhzNK6a0tBQffvghVq1ahe3bt0MQwq9Gd5cuXTB27FjceeedyMjIUDocuCqLcGHt31gS4IWELmMR23aw0mHA6XTiiy++wKpVq7BmzRrU1tYqHZLPGjdujLFjx+Kuu+5C+/btlQ5HUqLLjgsb/gnH5ZNKhxJ0bo+A8mrpFkSq1Xxh11krZd1eE/QE4PiiSS8CeFKOtgnHI7X/DBizOsjRvCL27t2LBQsWYMWKFWH5sLsejuPQr18/TJs2DaNGjVJ03YCrsgjnv5gHwa7MtEk4iO90G+I6Dlc0hmPHjmHp0qVYsmQJrly5omgsUmrdujXGjx+PqVOnIi4uTulwJCG67Di/7u9wlpxWOpSgohQoqagFlWhrJCGglZpk/dBHX3dK0uD17iFXw9dz8u3xWQLPHwcg/YEHhEPKTVNhbtxV8qaDrba2Fu+++y5eeeUVHD8e2TW4U1NT8fDDD+OBBx5Q7AHoLDuHC2v/BsFpU+T+oSymzUAkdrtbkXuLoojPP/8c//znP7F9+3ZFYggWo9GICRMm4LHHHkPTpk2VDidggqMG57+YB1fFRaVDCaryKjvcEtUDAACDTv1op0fek60mQFDLdom86g+QpfMnSO49Kew7/9LSUjz77LPIzs7GQw89FPGdPwBcunQJzzzzDLKysvDoo4/i7NmzQY9BG5eJtIEzwanZWfW/FNO6vyKdv8vlwoIFC9C6dWuMHDky4jt/ALDZbJg/fz5atGiBO+64A7t371Y6pIDwOhPShzwBtTlR6VCCSq2Wdnu0KOBeSRv8jaCNABxdOrERL5BjACTfOBwq85P+qq6uxvz58zFv3jxUVET3fLRGo8HEiRPx7LPPIj09Paj3tp0/iEubXgUV2SFCppw8pN78YFC3+omiiI8++ghz5szByZPRN4f8WwMGDMC8efPQuXP4LmZ2V1/BuTV/iZopNqdbQGWNdOsAeJ5zdn/8A9mKTQRtBIATuD9Bhs7f0rx32Hb+LpcLL730ErKzszF79uyo7/yBn9/+mjVrhjlz5gR1h4Mxoy0Se9wXtPuFKl1iDlL6TAlq5//pp5+iZcuWGDt2LOv8f7J582bk5+fjzjvvxJkz4VnKWm1ORGr/GVFTgVWtkrZLFQRRu/+1u2QrZBOUswCOLhjfnCPkLUiccBgy2iLlpumSHcQQTJs3b8Ztt92G9957Dw5HYBmj1WpFeno6tFotbLbImMf2eDzYsWMHFi5cCK1Wi/z8fHCc/PmqLqERqMcRlauYgZ9q+w95Epw2OPUbCgoKMH78eLzwwgvXqlL6S6vVIjs7G0ajEQ6HIyx3ylzP4cOHMX/+fJSUlKBXr17QasNrqkptiofGmoKa03uVDkV2hBA43QJECUuO8yqVccG6gx9K1uAvBGUEQMXxf4LEZYe1sRlI7fcgSBA6BSldunQJo0ePxsCBA3H48GG/2tBqtRg2bBgWLVqE8+fPo6KiAidPnsSlS5dw5coVfPjhh+jXr5/EkSujpKQEs2bNQu/evf3+efkqIX8sTNmdgnKvUMJpDEi75fGg1Pa32+2YO3cu2rVrh3Xr1vnVBiEEXbp0wbx583D48GHYbDacPHkS586dQ0VFBbZt24bx48dDowm/csW/5XK58Nprr6Fly5b45JNPlA7HZ6acfMR3uk3pMIJCxUs9CiDcLGmDvyD7q/PxJZMbQ6THIeFoA6cxIGvks2F1qh+lFG+//Taeeuopvyv15eXlYerUqbjrrrtgsTT8kN6wYQMmTZoUsgVSfKXRaDBnzhw8/fTTsj/URbcT5z77cxStYiZIHTAjKInPli1bMH36dL+H+jMzM3H//fdj0qRJyMrKavD6wsJCjBs3LuwX1v3S3XffjVdeeSXMKgxSXNr6FmpO7VE6EFnVOt2okehgIKBuJs5k1Ca3f3D5Zcka/Ynsr89UxBOQdKqBILnP5LDq/IuLi3HrrbfiwQcf9LnzV6lUGDduHPbu3Yvvv/8e06ZN86rzB4BbbrkFe/bsiYhtRUDdW9Dzzz+PTp064cCBA7Lei1NrkTrgYXBqvaz3CRVxHUfI3vk7HA7Mnj0bgwYN8qvz79OnD9asWYNTp07hueee86rzB4BmzZphx44dGDFihM/3DFUrV65Ebm4u1qxZo3QoPiBI7j0Zmpg0pQORlVriEQBKAVGkD0ra6E9kTQCOvjs+noBOkLLN+E7yP6ik9OmnnyI3Nxdr16716XNarRYzZsxAYWEhli9fjk6d/Ps7p6WlYdOmTV4nDeHg8OHD6Nq1K1599VXJDt+4Ho01BSl9pyDST5E0pLdBvMyFfo4cOYLu3bvjxRdfhOjjLovhw4fjm2++wfbt23HrrbeC531/n1Cr1Vi1ahXy8vJ8/myounLlCkaMGIHx48eHzdofTq2L+MRaxfOSPzIEjyDL/ImsCQDn5h8FYJSqPUNaa8R1CI8s3uPxYPbs2bjttttQUlLi9ec4jsO9996LY8eO4Y033kCjRo0CjqVRo0b461//GnA7ocThcGDWrFkYNWoUKisrZbuPMbsjYtoMkK19pamMsUi5+QGAyPcoWLFiBfLz87Fv3z6fPtejRw/s3LkTn332Gbp37x5wHFqtFosWLQq7o6wbsnz5cvTs2TNsdk9orClI6hm5u20IAdQSr01ze2hrSRv8iWzf+otvTzMQ4CGp2uO0RiT3mRzyR5ACdZn54MGD8eKLL/r0uZ49e2LPnj1YsWIFsrOzJY1pypQpYTZf6J3PPvsMXbt2lXWBYEL+GGjjMmVrXzGEILnPFPBayXL0X7maBN93330+lbHOzs7GRx99hJ07d6JHD2lP82zfvj2GDRsmaZuhYP/+/ejUqRM+/fRTpUPxirlJN5ibdFM6DNmoVNJusBNEUb3vzXskXwwoWwJQw3nGAUiQqr3knuOhMoZ+reyrX8QtW7Z4/Zn4+HgsWrQIX3/9NTp27ChLXBqNBnfddZcsbSvt2LFj6NGjBzZu3ChL+4SvO12S8OG/mvyXYtsOgSGtlSxtl5aW4uabb/YpCVar1XjyySdx+PBh3H777bLEBQATJkg6KxkyqqqqcMcdd+Dvf/+70qF4JanHfVCbJOsiQoqal/5F1S1gutRtyjgFQCUL1tqiD0w5oX+E5qZNm9C3b1+cP+/9mdijR4/G0aNHcf/998tezyCS5j9/q6qqCkOHDsVbb70lS/uamLSQOgo3UNr4bMR3HiVL2z/++CN69uyJHTt2eP2ZDh06YO/evXjxxRdhNMozInFVJH8PRFHEk08+iSlTpsDtdisdTr04jR7JN02VdfpJKVKPAACAKNBeUrcpy0++cPHk7iCQZKWeyhSPhK6h/+a6ZMkSDB061Ov5aKvVimXLlmH16tVITAxOvezGjRsH5T5KEQQBDz30EP74xz/K0n5Mm/4wpMkyFRdUhFMhpe8UEE76ufDdu3eja9euOHbsmFfX8zyPp556Crt27ULbtm0lj+d6MjMzI6I2QH0WL16MUaNGhfwJovrkZojNHaR0GJJT8Zzks9WCIKTteXuapCUV5Um9RPqAVE0ldb8XnFq2UsiSeOuttzB16lR4PB6vru/SpQv279+P++4L7kIYX1dfh6sXXngBDz30kAx/X4KknveF/VRAbPuh0MRKf87C119/jYEDB3q96DU1NRVbt27FvHnzgt4hR0qVwPqsXbsWgwcP9rvuSLDEdx4VVtu6vaXyY7dKfUQKohFsY6RsU/IE4Oi74+MpwVgp2jI36QZjVgcpmpLNvHnzfOpsHnroIXz11VeSL/LzRqQUBPLGW2+9hWnTpkn+oFdbkhEn85Y5OWmsKYhrL/0iuI0bN/rU2fTt2xc//PAD+vTpI3ksDbl8+XJUJADAz0lZoGWW5UR4DZJ7TUSkbbeVuiIgALg9NLQTAM6lmggg4Fd2XmtCYogP/b/yyiuYM2eOV9dqtVosW7YMb775pmK1vL/77jtF7quUxYsX4/7775d8JCC27RBo44OfwAWMECT1niT5wSxbt27FyJEjvR5unjVrFjZv3oyUlBRJ4/BWtH0Pdu/ejf79+6O8vFzpUG5In9oSluY9lQ5DUnIkAIJAJT3zXvIICRHHS9FOfP4dQalJ7q8333wTjz32mFfXxsXFYcOGDUEf8v8lj8eD1atXK3Z/pbz77ruYOXOmpG0SjkNSj3EItzcWa/Pe0Cc3k7TNb7/9FiNHjvTqQCue5/H666/j5ZdfVnQv/nvvvafYvZWyb98+DBs2DDU1NUqHckMJXe4ErzUpHYZkZBkBEIQUOneuZF8eSSM8tnhye4C0C7QdbXwWrM1lOwExYMuWLcMjjzzi1bVNmzbFd999h759+8ocVf1WrFjh0+6ESPLGG2/g2WeflbRNXVITmJtImozLilPrECfxYSz79u3DkCFDvOpUTCYT1qxZg4cffljSGHxVWFgYlofpSOHbb7/F6NGjQ3Z3AK81hvX02m+peU7ydwRKQfbEnxgpVXuSJgCE0nFStJPY7e6Q3Rqyfft2TJs2zasStO3atcPXX3+NZs2kfevy1cWLF/HEE08oGoPS/vznP+Nf//qXpG0mdBkDThUeR7PGdRwBlcEqWXsXL17EiBEjvNr1EhcXh82bN2PIkCGS3d8fgiBg0qRJIdsBBsOGDRswfbrk28klY23VX5YFqooggEqO02qpINncuGTR0blzOQABB2bKyYM+pYUEEUnvyJEjuO222+B0Ohu8Ni8vD1u3blVsnvOqq1UJQ3kRULA8+uijkhYLUhliEdtO2U7NG2pzImJaS1fOuLq6GkOHDsW5c+cavDY5ORlbt25F167KjpZc7fx37typaByhYOnSpXjhhReUDuO6CMfVvQBGCDmmAUQPDbwu9k8ki64w/XR/ABmBtEE4Dgl5oVlspaysDLfeeqtXC2l69OiBbdu2IT4+PgiR3dg333yDHj164ODBg4rGESrcbjfGjh2L48ePS9ZmbNvB4PXSvVnLISF/NAgvzbShKIq45557sH///gavTUlJwVdffYX27dtLcm9/nT9/HkOHDsXy5csVjSOUPPvss/joo4+UDuO6DGmtI6LeBgCoVDIsBBRp6k8v3AGTLjqOBJy2WZr1Csn9oKIoYty4cTh16lSD13bu3Blr166FyaTMYhZRFPHll19izJgx6NOnD06cOKFIHKGqsrISI0eOlGxvNFFpZNlWJxVNbDpMjaSrfPenP/0Jn3/+eYPXJSQkYNOmTWjevLlk9/ZVQUEBZs2ahdatW8tWJjpcUUoxceJEWc/QCER83h0It0W21yPHFIBIKfff+IJbpWhLkujoqjE8KAJavUE4HrHtJfk7Se7ZZ5/FunXrGrwuNzcXGzZsgNUa/DfCPXv2YMaMGcjMzMTNN9+MDz/8MGr2OvuqoKAAU6dOlaw9a8ubQvacioTOt0t2gNbatWvx5z//ucHrrFYr1q9fj9zcXEnu64tz587h+eefR9u2bdGqVSu8+uqrqK6uDnoc4aCmpgajR48OyZ+PLjEHxszgVIaUkxwlgQFAEDlJ5kkkSQCOVxluQoAH/1ha9IXaHHoHQ2zfvt2ro3TT09Oxdu3aoA77U0rx0UcfIT8/H/n5+Zg/fz4uXrwYtPuHs1WrVuHtt9+WpC3CqxDXIfSSV21CIxizpSmkdfHiRUyYMKHBmgpqtRofffQROnfuLMl9vfXDDz/gtttuQ05ODubOnYtDhw4F9f7hqqCgADNmzFA6jOuK73wbwn0UgCN1R7xLTRRFSY5SlGYegZCA9hcRThWSw6jl5eW47777GnzoXd3ilJkZvCNjN2/ejC5dumD06NHYs2dP0O4bSR5//HEUFBRI0paleW+oTMqu+fit+I4jIMUDlFKKKVOmeFXi9/XXX0f//v0Dvqe3jh49irFjxyIvLw+ffvopG/Xyw/Lly/H+++8rHcbvaOOzYcxSdv2IFOQ4GVAQaUDr7a4KOAGgFIRSEtC+RHOTrlAZYwMNRXJTpkxpcKUzx3H44IMPZDvG97f27t2LPn36YODAgazjD1BtbS3uvfdeuFyugNsiHC/pSvtAaawpMGZK8/B85ZVXvJoCe/rpp4O2xayoqAgTJkxA27ZtsXr1aq+25TI3NmPGDJw5c0bpMH4ntu1gpUMImBwLAUWRqv775r0BH5EbcGQnFk3sigBX/8e0GRhoGJL74IMP8PHHHzd43XPPPYdhw+QfvXC73XjxxRfRo0cPfP3117LfL1r88MMP+Nvf/iZJW9aWfcFpDJK0FaiYtoMlmfs/deqUV6cr9u/fH3/6058Cvp83Vq9ejbZt22LZsmXsjV8iFRUVmDx5csglUvqU5tAlNVE6jIBIfSjQVaKH3htoG4GPABAS0OSnIb0NtPFZgYYhqbKyMsyaNavB6wYOHIhnnnlG9ngOHjyIrl27Yvbs2ZK8rTK/9sILL+DIkSMBt8OpdbC2CP7hNr/F6y2wNA18ipBSimnTpsFms9V7XVZWFj744APwMj3orrp8+TJGjx6NsWPHen3iIOO9rVu3YsWKFUqH8TvhflywWo5iQABEIOCHTcCREeCWQD4fE4L/uI8//jiKi4vrvSYjIyMoD72///3v6Ny5M/773//Kep9o5nQ6MX36dEnefmLaDACR6QvvLWvLmyU5snjx4sXYvHlzvdeo1WqsWrUKCQnyLuDduHEj2rRpE7J71yPF448/jitXrigdxq+YGnUOyQXi3uJ4Ak6GtYyCIAZcYjagJ9Wxt6clUKCTv59XmxNgTA/+VqH6fPvtt1i2bFm913Ach3fffRdxcfJt/XI6nZg0aRKefE4yoVgAACAASURBVPLJqC5dGiw7duyQ5O1HZYyDQaK5d38QjoO1ZeCjEOXl5V6ddPnss8/KXuVvwYIFuPXWW9lbfxCUlJTgD3/4g9Jh/BrhYAmBkbVAyHIyoCiaCl6cbA6kjYCiIpx7YCBtWFr0kWyPshQopZg1a1aDb4KzZs1Cv379ZIujpKQEgwYNwjvvvCPbPZjfmzNnjiSnpVlbKHfwkyGjHVSGwBfUPv/88w12uHl5eXjqqacCvteNeDwePPLII5g+fTpLgoNo0aJF2Lt3r9Jh/Iq1eW8QTt7RVjnJsQ6AUsCu89weSBuBpSXE/+F/wnGwNOsV0O2ltmLFCuzevbvea5o3b46//OUvssVw6NAhdOrUCV999ZVs92Cu78KFC5IsCDRmtFVsS6AUycexY8cwf/78eq/R6XR47733oFarA77f9VRUVGDAgAF44403ZGmfuTFRFPG///u/SofxK7zeCkNmwAfNKkaOnQAAIFBPQCvQ/Y6KUhAAfi/fN2S2h8oQ4+/HJed2u/Hcc881eN2bb74JnU4nSwxHjx7FwIEDvTpkhZHHP//5zwbXfzSIEFia9ZQmIB+oDLGSVE/74x//2OAb95w5c2Qr81tZWYnBgwdj+/btsrTPNGzbtm0hVz5ZyZG1QMkxBQAAIqUBVdzyO6oTSye1ApDm7+eVeEDWZ9GiRQ3W+r/33nsxYIA8e72PHj2Kfv36oaioSJb2Ge/YbDZJRgHqfr+DO71lbtY94GO0Dx061OBCu2bNmuHJJ58M6D43UllZiVtuuQW7du2SpX3Ge88880xIbQs0ZuSC11uUDsMvshwLDMAj0ICqzwUwAkD8XpXBqXUwZoROnWeHw4H/+7//q/cak8mEf/zjH7Lc/+DBg+jbty/r/EPE/PnzceHChYDaUJsToUtsJE1AXjLndAm4jT/84Q8NVr58/fXXZRkFq6ysxKBBg1jnHyL27NmDL774QukwfkY4mHOkO9gqqIhMRwNTUb3vjTv9HorzPyJKe/v7UWN2JxBenrlDf7zzzjs4f/58vdc88cQTSElJkfzep0+fxoABA0Ju6000czgcePnllwNux5QTcKEur2msKQHX0zh06BA+++yzeq8ZMGAAbrkloJ2/1+V0OjFs2LAG1+AwwRWs4k7eMkmQ5CpFrmkAt0c92t/PBhKR3wmAuXHo/CNSSvHaa6/Ve01SUhKeeOIJye9dU1ODkSNH4vLly5K3zQRmwYIFqKioCKiNut/z4EwDmBoHnmy89NJL9Q75EkIwb968gO9zPQ8//DB27twpS9uM/77//vuQqjyqT24myS4XJfAynAkAACDCzf5+1K8EoGDhlBwAfs09cBoDDOmt/fmoLD777DMcPXq03muefvppmM0Bbbf8HUopxo8fjwMHDkjaLiON6upqLFy4MKA2VMY46JIaSxRR/QIdbSguLsYHH3xQ7zWjR4+W5ZS/l19+GYsWLZK8XUYaL730ktIh/IwQmHKCe9KkVORaByCKtI2/n/UrIsKJfr/9G9LbgHAqfz8uuYbe/uPi4nD//fdLft/nnnsOn3zyieTtMtJ54403Aq41bwzC1iWVMQ7a2MAOB5s/fz4cDke918ix53/Tpk2yLShkpLFmzRr8+OOPSodxjVSHXAWbXFMAHpEm+ftZ/xIAUL+X8AfjgeitkydPYtu2bfVe8/DDD8NkMkl63/Xr1+OFF16QtE1GemfPng14K1QwFrsG+p0SBAFLly6t95r+/ftL/vZ/8eJF3HnnnfB4PJK2y0hLFEUsXrxY6TCu0ae0AKfWKh2Gzziek6XuHRUpv+u1cX5lRf6lJBR+TuITGNL9Hq2Q3IIFC+qd8+R5HjNmzJD0nlVVVZg2bVpIba9hbizQaQBtQjZUBqtE0VxfoEnG2rVrG6w9MXPmzIDucT0PPPAAysvLJW+Xkd6SJUtCphoj4VXQp7RQOgyfEQC8TNMAWlC/KgL6HM2ppRN1APzqxbXxmSFT/Mfj8eDdd9+t95ru3bsjKcnv0ZXreuKJJ1ihnzDy+eefB1gYiMCQJl/SSzgV9GmtAmqjofl3vV6P/v37B3SP31q2bBnWrFkjaZuMfIqKirBu3Tqlw7jGEELbyH0h3zSA6Ne2fJ+j8XjQAYBfe/hC6e1/y5YtDT7YpS76s2nTppAaSmMa5na78eGHHwbUhiFDvgOvdElNwKn935NfUVGB9evX13tNr169YDAY/L7HbxUVFeGxxx6TrD0mOFauXKl0CNeEUl/iC7l2AogUfg2J+JwAUA5+LzfWJwd8eqFkVq1a1eA1iYmJkt3P5XJJduQsE1ze/K7URyfj770+JbByvB9//DFcLle910h91O/MmTNRVlYmaZuM/D777DPYbDalwwBQV/eC18s7tSYHOQ4FAgCPKPrVWfmcABCR+FmKiUCX1MS/j0rM7Xbj008/bfA6KaudLV68uMFSw0xo2rFjR0CVAdWmeKiM8hwdrUtuGtDnvUlupPwe7Nq1C6tXr5asPSZ4amtrQ2oaQB/g774SVHKNAIhUtf+VcT6PAvg+AkDg11JgTUwKeJ20e+n9tX37dq/eQE6fPi3J/VwuF1588UVJ2mKCTxTFgOer5XlYEegS/a8zUF1d3eAuGEC67wEAzJ49m42ChbH//Oc/SodwTaDJrxJ4jgORYysAADcnjvL1M//P3p3HZ1Hd+wP/nJl5tuTJnkBCAiQQdoLKKiKI1eK+3LpUbV2wrV2sS73t7bW/9sqtba+3vVrbeutFsVVUrFqpu7iyCYjshDVhSULInjz7/syc3x+RFITkWebM8iTn/Xr5EpJnzvmSPPPMmTPnfL8pDQDq/3iPDUjvWYN9mHl+WcmOYlnlJH/66afR2NjIpC3OGImekyeixYeVtWAERFt22sd/9NFHCaf/gd6c8GrzIQDA559/jjVr1qhuhzPOqlWrEtaK0IuZHimnQtRoISBVaMoLAVOKRMkOTASQVhYfe0lVOodpItkP83Xr1qG1tVVVX+FwWLP0qZx+PvroI0QikbSPV3On3m+bxZWqjk/2PPD5fHj33XdV9QUA//Vf/6W6Dc5YXV1d2LZtm9FhAABsRaNABG2eqWvJot1CwJRXRqY0ABAUmvbeC1uhqqqFzBw7dgz79u1L6rXhcFh1adgnn3wyYaEhzvwCgQA2bdqU9vHWgnKwzgKitvjP+++/n/RrH374YVV9bdu2zVTTx1z6UnnfaIkIEix57Au0aU2rGQBFUVL+YaQUCSUkzf1MBNaCEekdyliqhS2efPLJtIuU1NfX46GHHkrrWM581q1bl/axgmSDJYfdrhIAsKpI/9vU1JTSY6ktW7bgD3/4Q1p9hcNhfOtb3+LP/gcJMxUHshWqS4FtBK1yASgKte197IaUVhunGEl6MwCW3BIIFkc6hzK3cePGlF4fiUTwL//yL6ivr0/puJaWFlxxxRXw+XwpHceZl9pqdWrz9Z/WnooPv3T+Lf/6r/+a8l18LBbDzTffjF27dqXcH2dOmzZtYrImhAU1g2CjaFUUiAII2yyXpXJMqpGkNQNgLShP5zBNpPPB19nZidmzZyeslnbC2rVrMXv27JQHDZy5ffbZZ6o++KwM71ZER56qXTWpDoSB3poB1113HX7xi18klb+/sbERF154YVJbbrnM4fP5TFPF1CyPllMhCESznQCI06+kFEuyL9z7vz9wIs0SwFaTPKcJh8PYs2dPWse63W7cfPPN+MpXvoIVK1YgFAqd1vaqVatw7bXXYuHChar2jXPm5PV6ceDAgbSPZ3keqG1r69ataR0nyzJ+9atfoaamBr///e/R0dFxyvcVRcH27dtx7733YuLEiapnTThz2rJli9EhAACsecONDiEtWj0GkEHOSSmOZF9osQSr013FZHGyzSSWrr1796quPLZ69WqsXr0ahBCUlZWhrKwMwWAQhw8fTmpLFZfZamtrMWVKemlIWZ4Hlpz021IUJe2B8AkHDhzAAw88gAceeABFRUWoqKgApRSNjY3weDyq2ubMr7a21ugQAACSs6j3spRh60skkSCmQRFMqtDKlOJI9oVEwLh0f8SSig8rllhOW1FK0dLSgpaWFmZtcuZXW1uLm266Ka1jJYaLANUMAA4fPgy/388slu7ubnR3dzNrjzM/szwCIIIEKSsf8UBmVZWUBBEA+xGArCj5lIIQgqQu10nPQygEaWddMNMMAMepoebOR8rKBRHTqqN1elsqzim1d/8cZ5YZAADMd9foQbOiQAoltX+8fXqyr096AEBougMAAktOUXqHMnbo0CGjQ+Ay3OHDh1UcTVTduZ9MTTv8PODUcrlcpinoZJYbzFRIkjZrAABAFuKXJvva5AcAENIaAAhWB4hoTedQ5ljmNOeGpqNHj6raz86qgpmadnhaao4Fs3yeilmZVxVQIASCRjsBFNBzk44j2RdS0LSSmYt2ZzqHacIsb1guc4VCodNWvqeC1fmgph1elZJjwSzvI9FmnmtMKjTLCCjTScm+NqkIWpbelQUgrf0WZvnleDwevjqZY6KpqSntY5mcD4RAtKZfBOjYsWPqY+CGPDXnAUtmuslMhSRpMwMgK0rSaXeTGgD4EE076bhZfjldXV1Gh8ANEmreSyzOB9GWraquQGdnp+oYOM4sn6lmuclMlaRRISNZoY6jf73DnsxrkxoACISMTjcYwSS/HLO8WbnMp2oAwOB8UNuGWRZvcZnNLFs/BZPcZKZKq2RAlAI+v3JhMq9NKgKqZgBgsaV7KFNmebNymU/Ne4lI6hfEEin9c8rr9fKEVRwTZrmpElScD0aSNNoKCABRGr84mdclNQAgQNoDACIknWtIU7woD8eK1+tN+1gWeQCImP45xc8DjhU15wFLas4HIxFCIGhVGEjBzGRel9wMABQVAwBtnnOkKhKJGB0CN0ioeS+xOB/UtMHPA44Vs7yXzHKTmQ5J0GoWILlde8kNP0h6RYAA84zOzPJm5TKfmil0JjMAKj7w+HnAsWKWR0lmucakQ6t1AHGZJpUeMcneSdr1fM0yAxCLxYwOgRskwuFw2seyuFtRc07x84BjxSyDyYyeAdAoI6CiKJbap29OuHU/2d7NUc9XBc3qL3NDjrrndsZWLePnAceKed5LmVUJ8GSa7QQAoITESxK9LmHv9S98IxdA2llHqCyneyhTVqs50hFzmc9mS3/VMZXV34FTJf1zip8HHCtqzgOWFFmDuro6ETVaBAgAcdALEr0mYe/xoKjq7p8q5phy5B98HCuqBgAqLt59bagYRPDzgGPFLAMAKJk7ACBEu0GAotCzE70mYc+SJJapCcIsMwB2e1KJkTguIeNnANL/wOPnAceKWQYANINnAADt8gEolCbcvZdwAKAoVN0AwCQzAPn5+UaHwA0SBQUFaR/LZgYg/Q88fh5wrBQWFhodAgB1A2Iz0KookCwrCT+oEvZM0iwCdIISS3/FNEvFxZlXM5ozJzXvJSUaVN2/mnPK4XAgKytLdQwcV1RUZHQIAAAlGjI6BFW0WgioUCrsfPTr4wd6TeKeCVT9luWwX83hzJjlzcplPjXvJRbng9o2+LnAsWCW95FZrjHp0moAAACKRbx0oO8nngGgJP35Tpjnl1NSUmKibStcJlMzAyBHAqr7V2IhVdOew4YNUx0Dx5WUJJVrRnNyxBzXmHRpuRNABs4b6PsJe6aUqhsAmOSX43A4TPOG5TJbZWVl2sfKYTa5+BUVA4nRo9PO7M1xfdScByyZ5SYzXVruBIBCpwz07SQeAaibAVBM9MsxyxuWy1wFBQWqFtKpuXCfTM2HHj8POBbM8j5idU4ZSdRqJ4BCB0zjn8ywQ90AIB5hsvCJhaqqKqND4DKc2g+9eMDFJI540J32sWb54OYym1lmkmKBHqNDUE2rnQBxSnMH+n4yiwBVDQAAIOYzR93o8eMHXBDJcQmpeQ9RRUE8yObDKubrTPvYCRMmMImBG7rKy8vhdDqNDgMAEPeb4/qihkWrlMAKJdv+fPO0/r6fuFfKYABgkl9QTU2N0SFwGW7atH7PpYTigR5QRWESh5pzip8HnFpnnXWW0SH0UTMYNgstFwJC6b8mQDK9qs4cEjfJDICaD2+OA9S9h1h+UMV93WkfW1ZWxncCcKqYZRCpxCIZvwgQ0G4NAABQWZ7b3/cGHAC0LL0rC4DqfI9mmQGorq7mSVA4VdR88LGcqlQ7mDDLBziXmczy/on5M//uHwAEQkCgVUpgTOq334EO9NnDqqf/ASDqbmXRjGqiKGLWrFlGh8FlqNLSUlULn6LuFmax9J5T6ZdBPffcc5nFwg09c+f2e1Opq6iL3TllNFHUpl1ZUcr7+96AAwAxZmEyAIh0N7Fohol58+YZHQKXoebPn6/q+EhPM6NIepMBxfzpPwY477wB84NwXL9KS0sxZswYo8MAAERd7M4po2lYFdBJ6Zmv9QP2KFOZyQBADvsgh7wsmlKNf/Bx6VI7eGQ5AACAqIr2zjvvPAhaLjziBi21A2GWWJ9Takh2G3JGliB31DBYcxwpHy9otA6AUpBt/3vrGae+pQEDEoQCStOfZjxZpOcYssoHTEqki3nz5kGSJMTjmV1BitPfBRdckPaxctgPOeRhGE3vOZU9KmHJ7zPKz89HTU0Ndu3axTQmbvBbsGCB0SH0UTMIZoYQFE2tQn51OchJY2p/cxc6ttVBiSdXAVTbnQCxrwLY/OUvD9ijojIN8MnMMlLLz8/HnDlzjA6DyzClpaWqtj5Fetg/BlN7Tl166YB1QjjujMzyvlH7GIyVoimVKBh/6sUfAJwVxRg+p9/1d6fRcgCgUOGMF71EPeawCiDceZhVU6pddtllRofAZZhLL71UVTGpcAf793+4/ZCq4/l5wKVqzJgxqK6uNjoMAEC44wjULIRlwV6Yg4Lx/a6xQ3ZpARzFAybj6yNoWKyOUkw8Y58DHUQISf1BRj9CbfWsmlKNf/BxqVJ71xNSebE+k3jQhbiKNKjnnXce8vLyGEbEDXaXX3650SH0CbUbe00hAkHJ9Oreaj4DcJQkd44JgoYDAEUpO2OfAx1EKGU2AJBDHtOkBJ4+fTrGjh1rdBhchrDb7eoGjZRqMgMAqPsQtFgsuOqqqxhGww12119/vdEh9FE7A6ZWwfgK2PISp0PuZwH+aQRBq0wAgCwr2XTJktPW/CWKzM4yiLDBI7aTmemNzJnbFVdcgdzc5KbxziTiatasIJbaD8Gvf/3rjCLhBrvS0lKcf/75RocBoLeuhpGPla05DhRMHJXUayM9ye2AIwDIlxcSMEIBbMmvO20L3IC9UYYzAAAQaq9j2ZwqN954o9EhcBlC7XtFy8dfoTZ159Qll1yCwsJCRtFwg9mNN94IUatsNSmKdDdCiUWM6ZwAJdPHgSRRwCfc40OwPfnKnVr+eAUBXz3tawMewXANAAAEjtWybE6V6dOnY/LkyUaHwZlcXl4errzySlVtBI9r976P9DSrKg1ssVhw3XXXMYyIG6xuueUWo0PoE2zeY1jfeVVlcBQnfq5PFaBzxyGkslBRqxkAAIBCT8sFkGANAJgOAOKBHtOkBQaAb3/720aHwJncLbfcoqp+BFXiCLUeYBjRaT0geHyvqha+853vMIqFG6xqampMtX06oOGgeiCS3YKiqZVJvdZV34SIO7VCRRquA4QMelot84HzADBeAwAAgebdrJtM22233Qa7nfk/kRtE1A4SQ211mk9VBo6pO6dmzZqFc845h1E03GBkppslJRJApPOIIX0Xn1MNwTJg/jwAQMwfgmtf6nk6tNwJoCgoPa2/gQ4ghO0MAAAETfQYoKioiE9/cv2aOXMmpk+frqoNPd7vwZZ9oIqiqg0+C8D1JysrC9/85jeNDqNP4Phe1e/3dDgriuEcUZzEKyk6dxwGVZLLAHgybQcAimPvKzdYT+lvwCMYPwIAvrgjigRYN5u2H/3oR0aHwJnUAw88oLoNf9NOBpEMTIkEEFa5wPb2229HcXEyH27cULN48WJTLRQN6HBOfZlgEVF8VnJbxz1H2hDscKXXj7bJgBDqtC48pb+BDmCZCKgvCCUOf+MO1s2mbcaMGVi4cKHRYXAmM3LkSNVbRSNdDYh52xlFNDDfkc9VHZ+VlYXvfe97jKLhBgtRFHH//fcbHUYfKscQaNK/fkXxtLGQ7NaEr4uHY+je25h2P2qyjSaDyrj45L8PvA1QgzUAAOA7ukWLZtP24x//2OgQOJN54IEHYLFYVLWh5/vc37BV9bToD3/4Q74mhjvFtddea5rUvwAQaNoFJRbStU9HST5yK4cl9dquHfVQorG0+9JyESAAEEWZcUp/A7+cbR6AE0IteyGHfVo0nZYrrrgCs2fPNjoMziRKS0tx1113qW7H37CNQTTJkcN+hFr3q2pj+PDhTP7d3OBACMHPf/5zo8M4hd43j0QUMGz6OCCJHH3+5i74W9QVJ9LyEQAAKMCYU/ob+OXaDACoosDfsF2LptP20EMPGR0CZxIPPvigqq1/ABDuPIKYt4NRRMlR+xgAYPNv5waH66+/HmefnV65aS0osQiCKne8pKpw8mhYnIlnxZSYjK5d6ncmaP0IQJaV4Sf/PcEjAPZrAE7w1q3Xqum0XH755Zg7d67RYXAGq6ioYHIXbMT723/0cyixsKo2SktLcffddzOKiMtUoihiyZIlRodxCv/Rz6HE9cv+Z8vLRn51/5X+Tta1+zDiYfWxaZkHCABkCsfJNQEGXgQIYtMqkHDnEUS62ddIV+PRRx/VfATGmduvf/1r1c/BlXgEvsPq78ZT7jcWYTYLwHcEDG133nmn6TKleg6s1a0vIgDDZo4HSeKhfKjLA28Dm9k+7coBfYFSbM891Henm+gRgKaJn711n2rZfMrmzp2Lm266yegwOIPMmDGDyX5n/5HPdV+odIL3oPoPyYKCAtPd/XH6ycnJwS9/+UujwzhF1HUcYR2T/xSMGwlbfhKV/hQZHdvqkEq630S0HgRQCxae+HOiCQdtBwCHNoLGo1p2kbLf/va3yM7ONjoMTmeEEDz++OMQBPVzcJ6D6xhElJ5w51EmM2vf+973UFNTwyAiLtM89NBDKC09LWmcoTwMBrbJsjgdKJg8MqnX9uxrQsyv7rHbl2k+CX3SToBEiYA0fSKhRIPwHdmsZRcpq6ioMN3KV057d955J5NSp5HuRoQ7jCtTCgCe/atVtyGKIpYuXcpkQMRljqlTp+Kee+4xOoxTKLEwvPUbdeqNoOScsSBC4nvfiCcAd/1xLULQFKX/rAmQoBqgtjMAAODa/V5viiIT+fGPf6w6BSyXOUpLS/G73/2OSVuu2lVM2lHDe2gD5JBHdTtz587l2wKHEEEQsHTpUlitiRPe6Ml7cB2UaFCXvvLGDEfWsIKEr6MK0LGtHlRhf+3SfAKAoi+pQaLhvebD/6inDYHjxpV2PBNJkvCXv/xFdSIYLjP88Y9/REFB4pM+kXjABf/RrQwiUofKcbj3r2HS1n//93+joqKCSVucud1zzz0477zzjA7jFFRR4Nr7oS59iTYriqZUJvVad/0xRFza5LLRfCugQnNP/NnwAQAAuGvf16OblJx11ln493//d6PD4DR2/fXX44YbbmDSlqt2VVoFQLTg2fcxky1Tubm5eOaZZ/jumEGuuroaDz/8sNFhnMZ/dAvifnXJdZJVcs5YCNbEN32xQASu/ce0C0TrZEBUsZwoCtTvBZ5SkIG+z1KwZR8iXQ16dJWS//iP/+C5AQaxiooKLF26lElbciRgqtwWcsQPX/0GJm0tWrQI9957L5O2OPOxWCx48cUXkZOTY3QoX0J1e6TmLC+CszzJSn/b66DI2g30idaPxCkQ6rCfAwx0gX/1Bl1X/3Rvf13P7pIiSRKef/55E54YnFqiKGLFihXMqpy5at9TnYSHtZ6db4PKbHbZPPLII5g2bRqTtjhz+dWvfmXKVOj+xh2IdKdfWCdZgkVE8dlJVvo72o5gh1vjiLQnUGU2MMAAYJurQNcBQODYbsNXT5/J2LFj8fzzz/Mp0EHm17/+NebPn8+kLTnsh2ffJ0zaYikedMNzgM2WRLvdjr///e/Iy8tj0h5nDldeeaVJi6FR9Gx/Q5eeimrGQLInznknR6Lo3tOgfUA6XGsUhU4DBhgA5EVsuu//MeMsAABcc801Jj1JuHRcc801+Ld/+zdm7bl2vWO6u/8Tena9wyzXxrhx4/hgeBCprq7G888/b8qtnr4jWxDp0fA5+xccJfnIqxqe+IUAOnceVlXpz1QorQYGGABk2yJJbQGMxxX4g1F0uUPo9oTh8obh9kcQjsZT3t0XPL4XobaDqR2kk9/85je46KKLjA6DU2nSpElYvnw5s4tYPOiCm8G+e63IIQ/c+z5m1t5VV12Fn/3sZ8za44zhdDqxcuVK5OfnGx3KaaiioGeHPnf/xTWVSKrSX0sX/M1dmscDAIRhVsEBOhkGAFJ/33fFJcEinnm0E4sr8PgicPnCiMT6XwxBCGCzSHBmW5CXbYPDKiX8WXd+9hJGXfOQLtMgqZAkCStXrsT555+P2tpao8Ph0lBcXIw333wTubm5iV+cpK4trzF7zq6Vnp1vIXfceRAdbKbvH374YTQ0NODFF19k0h6nL1EU8cILL5g206PnwCeIuls170eyW2ErSLy+S4nJ6Nqh3+NpqnkmAECWaSEwwAyAXYqfNgNAFYr27iDqmnrQ1hMY8OIP9Ob3CUfj6HKFcLjZ3XtcdwChSLzfYyLdTfDWm6tGwAm5ubl48803TZcmk0vM4XDgzTffRHV1NbM2I10N8B3exKw9rSixMNPHa4QQLFu2DPPmzWPWJqefxx9/HNdcc43RYZyREgmgZ/ubuvQlWJLLc9e95wjiYf0G+Xrc+1IgBxhgACDJ/lO+FwjFUHfMjU53MO3EfdG4gi5372Dg0DEXut0hxOLKaa/r2voabnvP7AAAIABJREFUlKgxxVQSqaysxNtvv830LpLTliRJeOmllxhv6aTo/Owl02Wx7I/n4DqmW23tdjtef/1101WM4wb24IMP4oc//KHRYfSre/vrkCN+XfqKBSIJt/OFujzwHGnXJZ4+OnymyJTagQEGAGHR2Ts8okCXK4SGVg9icXZ7H8NRGa3dARxsdKGx1QtPINL375ZDXvTsfItZX6zNmDEDq1atgtOZuFoUZyxBEPDss88yv+PxHdqEUHs90zY1RSk6N78MllXLiouL8cknn2DChAnM2uS084Mf/AC/+c1vjA6jX1HXcXgO6LeehioKPEf6f9SgyDI6tx8Cy3MmGXrcU1CFinTJEqnfAYBgiRFKKY61+9DWE9AwKApfMIpjbT7UNfWg0xVCXFbg3vsBk6pmWpk7dy5WrlwJmy3x9hHOGIQQPPnkk/jGN77BtF05EkDn568wbVMPobaDzIuqDB8+HKtWrcLIkclVT+OMcfvtt+OJJ54wOoz+UYqODctBldNnhLXUs7cBgdae076uyDLaNx9E1KdPDYKTUZ2Wv9UWHazudwDQ1U6zG764M9dLLK6gvSeAukYXjnf40Lru2d6qCyb11a9+FatWreKJgkzoRGETLYrZdG3+G+SQl3m7etAi9srKSqxfv57p+gqOnVtvvRXLli0z9fZNz4HVhsyoUZmideM+tG3aD29DO/zNXejZ34Sm97ch0KpPCuLTg9JnxiEmkMlnHAD8Y8m1+e3e7pWBkDF7HhVK0eMJYff27WjfYXx1tYEsXLgQ7777Lk+QYiKiKOIvf/kLvvOd7zBvO9R6QMfSpOzJkUDv2gXGRo8ejfXr12Pq1KnM2+bSd/fdd+PZZ5+FJPW74ctw8aAHXVtXGhgBhb+lCx3b6tC2eT969jUiHtLvxve0aPSaApDJqNMGAG8tuSqLRuW3FOAcfaLonywr2Pzmswi5O4wOZUDnn38+Pv74Y747wAScTifeeOMN3H777czbpvEo2j99Fno/E2TNd2QzAk07mbdbWlqKTz75BHPmzGHeNpcaQggefvhhPPHEE6ZM9HOyjg3P6Vbul/snClp6yjtj6V13WeIRvAqK840K6svkaBhbXn5U92dDqZoxYwa2bt2Ks88+2+hQhqyysjKsWbMGV1xxhSbtd25+CTGvuQejyWr/9FnIIQ/zdktKSrBmzRp8/etfZ942lxyr1Yrly5fj5z//udGhJOStW6/JYDST6XZ7QWnpKRshF19S9iuA3KlX/8kKebpABBHFVeaeXszNzcVNN92E7du348iRI0aHM6RMmzYNn3zyCSZNmqRJ+4HGHejKwIV//aHxCCKuFuRWn4tkMqGlQpIkfO1rX0MgEMCmTebPkzCYFBcX46233sLVV19tdCgJxbwdaP3oCVCl/7wwQ1EwHNVlECCJ0vG+AcBr/++qcwkly6BTCeBUdTfsw7Dqs+HIS6Zko3HsdjtuueUWEEKwfv160AzZJ57Jbr75ZrzxxhsoKSnRpH055MXxDx4HjRv3XFALMW8HJEcu7CVVzNsmhGDRokWYOHEiVq1ahVhskORQN7FzzjkHH330UUbMQlJFQcsHjyPm6zQ6FNPxh/QZEIkC6RIAYPWShRKR8SwGSA1sNKrI2PrKY4hHzP+sSBRFLFmyBK+88gpPGKQhq9WKP/zhD1ixYgWys7O16YRStK15KmNX/SfSufkVRF3HNWv/pptuwqZNmzBu3DjN+uCAb33rW9i4cSOqqtgP5rTQvX0lwp18lvTLem8Y9blppEC+AADucM4NIDB9No9ATxu2vvJYxmRfu+6667B7925mZWe5f5owYQI2bdqEe++9V9N+urf/A8GWfZr2YSQqR9Hy0ROaZt6sqanBzp07Nf9dDUW5ubl44YUXsGzZMtjtdqPDSUqgaSdcu94zOgxT0vPKRilyRAD4+vwJzwEo07HvtPm7jkOQLCiunGJ0KEnJz8/HrbfeCkEQsGHDBigmX8xodoQQ3HXXXVi5ciVGjx6taV+Bpp3o2PSCpn2YgRIJIOpuQc7Y2WC9HuAEi8WCyy67DFOmTMHHH3+MUMicqb4zyYIFC/Dhhx9m1A1GzNuO4+//HlTmj4TORKFAKKLPz0YUhLDwj3+/YgaA6br0yMj+D19Ae902o8NImiRJWLJkCbZt24ZZs2YZHU7GqqqqwqpVq7B06VLtpvy/EPO2o23tsoyZbVIr0LQTPTvf0byfG264Afv27cOtt96qeV+DVXZ2Nh555BF88sknGDVqlNHhJE2JRzSfbcp0iq6fN9QiKIK4UMcemaCUYusrj8Hf3WJ0KCmZNm0aNm7ciN/+9reaX8AGE4vFgp/85CfYs2cPFi1apHl/SjT0xQeV+debsNS9/XUEmnZp3s/w4cOxfPlyvPHGGzyFcIquueYaHDhwAD/96U8hislVszMFStG+7hlN15sMBlTRbwCgUGoRoNALdOuRoWjQh41/XYKIn/1eZi1JkoSf/OQnqKurw1133WX6JB1Gu/jii7F9+3b89re/RVZWlub9UUVG6yd/HpofVFRB6+onEe48qkt3V199NQ4cOIBHHnmEF9ZKYMKECXjnnXfw+uuvo6KiwuhwUta15VX4j241OgzT0/P+n4BIAiGo0bFPpgI9bdi0/GHIsczbnjVixAgsXboUGzduxIIFC4wOx3SmTZuGd955Bx9++KGu6WU7N72I4PG9uvVnNjQeRetHf0TMr08e9KysLPz0pz/teyyQUXe1OigtLcUTTzyBPXv24PLLLzc6nLR4Dq6Dq9bcKd3NQs81YpRCFAAU6NajBlzNddj29z9k7H77OXPmYO3atVi/fj0uuCAjJ2OYmjRpEp577jls375d9w+8np1vwXNgja59mlE86EHrB3/Q9VntyJEjsXz5cuzZs4cPBAAUFRXhoYceQl1dHe6++25T5/IfSODYbnRuXG50GBlDzzXiFFQUAGR8KbvjtZ9ix8o/ZfSCrfPPPx9r1qzBBx98gEWLFpm6cpcWZs2ahZdffhm1tbW47bbbdL8AeOvWo3vb67r2aWYRVzOOv/8YFJ1n1yZOnIjly5dj165dWLx48ZArtz1q1Cg89thjaGhowJIlSzK60mi44zDaVj9p+jTuZqLnIkACELLywasy96r5JWPPuwrTrmRfAc4Iu3fvxu9//3u88sorCAYH52I0SZJw5ZVX4v777zd09sN3aBPa1g2dFf+pyBoxGSMW3QciWgzpv7W1FU888QSeeeYZtLe3GxKDHs4991zcc889uPHGGzP2bv9kke4mNL/3OyiRgNGhZBRvIIxwVNalL0EAJSsfvMoNYNDUsp100c2YeNHNRofBjMfjwYsvvohly5Zhx44dRofDRHV1Ne68807ccccdKCszNv2Ev3E72j75M79LGUD2qLNRdtHdIIJx0/KxWAxvvfUWnn76aXz44YeQZX0+JLVUWFiIW2+9Fd/+9rcHVRnlqKcNze88MmizZ2rJ7Q8jGtPnvU2+GADsBzBRlx51MmXRbRi/8Hqjw2Du6NGjeOWVV/Dcc89h//79RoeTkoqKCnzta1/DDTfcgHnz5pniEUegaSdaP/4zL0aSBGfVTJQu/K6hg4ATuru78c477+DVV1/Fe++9l1GDgaysLFxxxRW49dZbcckll8BqtRodElNRdwuOv/c7xIOZtTvLLLq9IciyPjcjgkAoWfngVasBLNSlRx2Nv+A6TLmEfU14s9i/fz/ee+89rFq1CuvWrUMkYq6dEKIoYs6cObjssstw6aWXYsaMGaa46J/gO7IZ7WuXgSqZc/EwWvbIaSi76AcgonkuWq2trVi1ahVWrVqFDz/8EC6Xy+iQTjNp0qS+82DBggWDdl1DpLsRx1c9BjnsMzqUjNXlDkCvVAAEAHntwSv/REB+qE+X+qqacxnOvvp7gIkuPFoIBoPYvHkzPv30U2zYsAGbN2+G2+3WNYasrCzMnDkT559/PubNm4d58+YhL8+cT5Y8B9eiY8Ny/sw/DY7SCRix6D4IFvPlnZdlGTt27MCGDRuwYcMGbNy4EceP65vPQZIkTJ06te88mD9/PsrLy3WNwQjhzqNoef8xyPyZf9ooKDpd+q73Iq/97KpbCMWLuvaqo3HnXoIpV34fZIgl3GlsbERtbS1qa2tRV1eHhoYGHD16FM3NzWlPmRJCUFZWhqqqKlRVVaG6uhpTp07FtGnTMHbs2IxIauSqXYWuz1+Fvik3Bhf7sLEYseg+iDbzJ+/p7u7Grl27UFtbiwMHDvSdBw0NDapmzYqKilBZWYmqqiqMGTMGU6dORU1NDSZPnjzopvUTCTbXovXjP0MZZOWy9RaXFfR49dt6S0BA3vz5VVVxGYO6LmPN7PMw5vL7IFgdRodiOFmW0d3d3fef2+3uK8zidrtBKUVeXh4EQYDNZkN+fj6Kior6/rNYjFkNrhpV0PnZS3Dv+9joSAYFS+4wjFh0P6x5pUaHkja3243Ozs6+88Dn65269vv9iMViyM7OhtVqhSiKp50HDgf/LAF6t892bFjOH6UxEI3JcPvDuvZJAGDlg1e1AsjcMzkBh03CpKlTUH7J/ZCcRUaHw+lMiUfQtnopAk07jQ5lUBFt2Si7+B44SscbHQqnO4qeHW+ie/sbRgcyaIQicfiC+s2iEAKcKAc8BcA5uvWss7isQKJBxJq3I6tsAqSsfKND4nQSD7hw/P3HEGo9YHQogw6VY/Ad2QxL7jDYCjIvPz2XHhqPon3tMrj3fWJ0KINKJCYjFtdvJoUQUBEAblwwMU6AW3Tr2QDhiIyCLMB7aCNERy7sxZVGh8RpLNRWh+OrHkXMO3gTyBiOKvA3bIMcciOrogaEmH8dCJe+uL8bLe//fkjXy9BKJBpHXKctgAAgEEACAIcv9lHYKXkB5OrWu86iMRkuXxQFOQQdnz6HcFs9hp1/m6m2NHHseA6sReemF/izSZ14DqxF1N2Ksq98H6LDnLs/OHUCx3ajbe3TQza7Xzgahz8UQzQqIxZTEI3LfUuJiQCIILBZRdisEmxWCQ6bCElMfkAc1z0ZmUD79setfPCqFQAGTwq9M7BaRIwfWfDFygfAXjIGpV/5HizOYmMD45hRoiG0f/os/Ee3GB3KkCRlF6D0wu/BMXyc0aFwjFBFQc/ON9Cz8+0ht3U2HI2jxxOGPxhFNJ76Bdoiici2S3DYLci29w4M+tuV3uUO6loLQBBIvC+t143zJ8bIIB8AyAqFM8sCi9T7z44HXfDWfQrR5uSPBAaBcMdhHH//MYTb640OZchSYmF46zdAiQSRNWISfySQ4WL+brR+9Cf4Dm0yOhTdUAD+QBQtXX60dwcRisQhp5mdR1EowlEZ/mAUPd4wuj0hBENxxGUZgiD0zRBQShEIxxj+KxITCJH7xiKrlyyUXJGcJgDGJmfXWFG+A2VF2ad93Vk1C8Pn3QbBdvr3OHOjigLXrrfQveMtgPKc/mZhL6lC6cK7YMkdbnQoXBr8R7egfcPyITXlHwzF0NodQCiiT3pwm01EcW4WnA4JLp23AAoCifTNADy3pkH5+vwJxQDO1zUKnREABbmnZzGLulvgO/I5bPkjYMkdpn9gXFoiPcd671AOfwae3Mdc4kE3vPUbIFodvTNsgzwj52AhhzxoX/9X9Ox4A1TW967UKNG4jJZOP9p6goinMdWfLlmm8H0xOwD0PqbWiyiQ6Cm9fX1+9TFA+CH6npIPTsX5Z07ioURD8B3ehKi7BVllEyFIgzNn92BA5Rhcu95G+9pliAd6jA6H6wdV4ggc241gyz44ho2FaM/c+vZDgf/oFrR88DgiXQ1Gh6IPCrh8YTS1+RCOGLNgWKFAjzeIHl8YoBRZDqsuF2BBFP2n9bPyZ1etBcUCHfo3hEAIJo9JnAxItOegZM5NyKk+F4N8PJRxQq0H0LFhOaKeNqND4VJARAmFZ12JgmmXg4iZX/N+MIl529GxYTmCLZlVZVSNE3f9/qCxsxz+UBTBk57/ZzssGDk8F5Ko7XXHKgptp803fH3+eAUg/6JpzwYSRYLi/KyEr6PxKPyN2xFsroWtoAJSdqEO0XEDiQdc6Nz0Ijo3vww54jc6HC5VVEGo9QC89Rsg2Z2wFY40OqIhT4lH4Nr1DtrWLEXM22F0OLpx+8JobPMhEjV2m7CsUHi/lP0vFlfgDUTgdFhT2kaYKkkUO04bYrzyoxsckj3cAmBQpstz2CSMrUj1n0aQWz0XxbNv4HucDUDjUbj3fYSenW9BifGCI4OFo2wiSs69mQ8EDEHhO7QJnZ+/CjnkMToY3SgK0N4TQLdHv6I7A/EGIghHz7zgUBQEVI3Ihd2mzWyZzSruOeMcw8qfXf0kKP2eJr0arCDXjvKS9KqYCRY78qcuQsHUS3hhIR1QJQ7vwfXo2fk24kHz1Xnn1COCgJzqeSg85yqej0Mngaad6N7+OiLdTUaHoqtwNI5j7X5E+rng6i0Wl+HyDbzyXxIIqsrzYbOyXxxotUifnXEA8MbPr54gy3QfgEG3iXdUaS5ys9Vl/xMsduRN+goKz7qCDwS0QCn8DVvRtfW1ITUtOZQRQUTOmDkonH4tLDl8IKCFYMs+dG99DeHOo0aHojuPP4LmTj9omvv5teDyhZPK/W+3SRhbns98E43NIn3Yb5MrH7zqLQBXsu3SWIQAEyuLIApsfpKiPQf5U76KvEkXQuT5A1Sjcgze+o1w1b7HL/xDFBEtyJswH/lTFvHtuCxQisCxXXDtfg+hIZggi1KgoyeITk/QVLuEo3EZ7gR3/ycbVpiFYQWJ166lwmGRXu73Svj6g1fMVyCsY9qjwfKcNowczn4bEhEl5FTNRsFZV8CaP6jzKGlCiYbgrd8A1+53EQ+6jQ6HMwNCkD3yLBRMu4ynFU4DVeLwH/kcPbveRdTdYnQ4hpAVimPtPviDUaNDOY3bH0Y0lvwCRFEgGD+6kNnNKwBk2SyPDtjaygeveg/Apcx6NNjYinw4NFpQAQAgApyjzkbexAuQVT6VJz5JINx5FN6D6+A9vAk0br6TlDMH+7CxyJt0IXKqZvLiXQnEfJ3w1q2H5+A6yCGv0eEYRpYpGlo9umX0S0Uyz/7PpLTIieL805PYpSvLJt034BXqHz+7/GxKxW0YBGsBnFlWVJbpV+xQyipATvVc5E1ayBc3nUSJhuA78jk8B1YPuUVInDqCxYGcsbORN3EhbEWjjQ7HNKgSR6BxB7yHNiFwbPeQT4cdlykaWtwIG7zFrz+eQDit7YcOuwVjy9ntQsu2CVcmvEVd+eBVfwBwL7NeDUAAjNH67r/fzgU4SscjZ8xsOCtnQrSntwMhkynxCAJNO+E/sgWB5tohk16U046tcCScY2Yhp2r2kFwrQBUFodb98B35HIHG7ZCHUL7+gcTjCo60eFKaXtdTXFbQ401vCyIBMKGykFluALvNUZ1wAPDKkhuctljkiKzQEia9GqAwz4ERxcYv0iOCAEfZJDirZiK7Yhqk7AKjQ9KMHAkgeHwv/A3bEDi2i0/xc5qxFVcip2oWskdOg7Wg3OhwNEPlKEKtB+Fv3AF/wzbIYZ/RIZmKogBHW9ymnPY/YaB9/8lgsYvthHmjqZTUQ+qNj950Z0d38Bk9axWzIooCxo/Mh6hhRqV02QoqkFUxFVkVNXAMH5fZ6VGpgnBXI4LNexBo3t271WiIT0Vy+pOyC5FdUdN7Xo2YnPHbdKOeti/OqVqEWg+CynwgfSYUQFObF76AeX8+ikLR7Qmq2owwrCAbwwrVv6cFgcjn/evLUlJXnML8rFU2SURjmw+m2kuRhBHF2aa8+ANAxNWMiKsZrtpVIIIAa+EoOIaPg2N4NRxlE01dOEWJRxDpbkK4vR6h9kMItdcPqbKhnDnFAz3wHFwLz8G1ABFgzS+DvWg07MPHwVE6Dtb8EUaH2D+qIOppQ6itHuH2egTbDiLu7zY6qozQ3h0w9cUfAEKRmOqrZyQWA6B+AECA6Bf/T4xSkPpnFns9/qjzWHvmDAJys60YVarfwj/WLM5iWAsrYCuo+OL/5bDkDgMRLbrFQBUZcX83oq7jvQOWnmZEXc2Ietr5HT6XcURH7knnUwVshRWw5A2HYNFzpoAiHnAj6m7pO58iPc2Iulv4+pg0BEIxHG31mP6y1OUJQlGZiMhqETF+lPpHxxaL0Dbn/r+VJTUDQAho3TIcznNazxKFXDS1e1X/Q7QmigQj0kz5axYxfxdi/i4Emnae8nUpKx9STjEszmJYcooh2nMg2pwQ7E6INidEWzaIaIEg9T4rIhY7iCAClEKJBgEAihwHlaNQoiHIYR/ksB9yxA8l4kfM342YrwsxXyfiARe/0HODhhzyIhjah2DLvlO+LtqcvefUF+eV6MiDaO89l06cW0SUIH4xUCCSpW9LohINAVQBVWQo8Ujvf2F/3zklh32IB1yI+bsQ9/We01Q273PqTKIowPFOv+kv/pFYnMk1MxqXoVBAbToAgZAOAEj+oTPBPlCc5cyyoGpEHprafEmlMTTKiOIcTSspGSkedCMedCPcfsjoUDhuUJAjvRfrSFeD0aFwKehwBUy74v9kzBYmUiASjcFhUzcLTAQ0Ayns76ege0782WGTUD0yD3lOcyblyHXaTBsbx3Ecp140Lpumqt9AFIUyHaQwyW+g4DCQwgCAyGT3yX8XBQEjh+didFku7BpUKkqXVRLSrvbHcRzHZYZudxiZsDEtFGG7riMcUT8AIAR7gRQeAcQFoVbC6c+Cc7KscGZZ4fVH0d5j7HSMQAhGluYyzZfMcRzHmYusKHB5U0+na4Qw42sii3LGFmrdCqQwAzDpW880AfCc6XsEQJ7TivGj8lExLMeQjHuEEIwcbkzfHMdxnH56vGFkQl6aeFyBLLNdRB1SOwNAgBq7bTeQyiMAAkpA9iR4FfJzbBhbkY+xFfkoyLVD0KEgjkAIRpfmIIdRhiSO4zjOvLx+c+/5P0FN1r/+yIoCWU5/8CMKQoR896kYkGKRHwq6O/GrejlsEspLnJgwugClRVmwWrRZJ2C3ihhTngdnFr/4cxzHDXZxWUFIgwurFrR6JK5mB54AuE78ObX5ckp2gqQ28hBFAcX5WSjOz0IoEkePNwy3PwKqck+kQAiKCxwoyc/iVXc5juOGCF8gavp9/0DvQCWuaJRDRcU1TxCFvjKsKQ4AlM/VXG1PzAqUFmXD7YvA7QunvD9SEgUU5tlRmGsftPv8OY7juDMLhDPj7j+dkr9JIYBVSn9GnRB64MSfUxoAjMsP1NZ7nQEAqkrriQJBUZ4dRXl2xOIKvIEoAqEoIjEZ0bjSNztACCAIAuxWEVl2C7LsFjgdFn7Hz3EcN0SxWAWvh3BMmzitkgBBxU43URA+P/HnlAYA5MZX5bpli7cDmJ92719ikYS+wcAJikJBABC+nY/jOI77AkVvWl2zUxTKfPX/CTlZNlXHC2J8bd+fUz2YEHye+FXqCALhF3+O4zjuFLGYDK0eq7MU1TBNfn5O+gMAQQA96/sv9+3mS2PTPPk8I1ZgcIOaLxTF2tpmbD7Qhg53EAqlKM514OyxJfjKWaNQkpfZdeAzVSyuYPPBVqzfexzHu/wIRuIoyrGjujwfF501CtUj8o0OkctgsXgGXP2h3er/bIdFVa4bkQjek/+ecksxSjZLfADAGSQclfH0qt145v29CJ4hxeZrG+rxn+JnuHH+eNx7zTkozLGfoRVOC69vPITHX9+Olp7AGb//6GvbsGBqOf7thlkYX66+pCk39Gg1rc5aVIuBCgGGF2apakIQSeOXmkxd3bLFxwGMUBUJx6Wowx3E9574GHsaupJ6/YjCbPzfPRdj4shCjSMb2qJxGT9/bgNe33Q4qdfbrSIeWTwfl8+q0jgybrBx+yJo7vAZHcaAZEXRpEhRQY4d5cPU1blx2CzPz7j3xdtO/D3dfXRrVEXBcSkKhGO48/cfJH3xB4CWngBu/Z9VaOzwJn4xlxZKgQf/+mnSF3+gdxbngafW4uOdTYlfzHEnkVXmj9GDFtP/VklEabGqzXcAAIGKH5/y97RaoWRt4hdxHDu/WL4RdcddiV/4JZ5ABPcvXZMRecMz0Yo1B/DW5iMpH6dQip88sw4d7qAGUXGDlTIEBwAEQMVwp+oidwQAJaF3T/5aWgMAmcbXqIqE41Kwp6EL72xJ/SJzwt7Gbrz5WfrHc2cWCMfwxJs70j7eH4rhT2/uZBgRN9iRFDPRGiHGeJ1CSaEDWXaL6nYEgUSn3/tq5ylfS6ehSXctrwPQojoijkvCK+vrVNf9fmXdQTbBcH0+3NGEbp+6kqxvfnY4Y/K6cyZg8ixwCqVMZynysm0Ylq9+6h8ARJG0fflranLprlFxLMclbW1ts+o2dhzugDeYGRXEMsU6Br+XUDSOLQdP+1ziuDMS1CTB10Gc4ep/h01C+fAcVXn/TyYK5LTptvQHAHwdAKeDWFxBm+vM28pSISsUzV3mXj2caZo62fw8G02+qpszEXNf/xFnNP1vtYgYXZYLlvnwiCS99+WvpT0AEJX4KnXhcFxi7kBY9fT/CZ0abM0Zyrq8bH6ePSofI3BDh8mv/0wSFVkkAVVleWyL3RFAgvzyl7+cdg9jv7u8CcA+VUFxXAKiwO4kcAcizNriAJefzYXbIvGqnlxyiMnXAKgt/yuKAirL8mCxsD0nJEEITPvBitO2Uant5d3EL+G49Kkpe/llHj4AYCYal1Mu5d0fm4Xd75gb3Mx8/adUXQEgUSSoLMuFzcr+fBAIOXTGr6tpVKE47ZkCx7HksEmq97+e4AnwRYCssPxZZqnIbc4NLaw+C7SgJkmRKAioLMtVled/wPZF4dMzfV3VAMCvWNYD4GnWOM2IAkF+trrylycc6+RvVVaOMVoACADFubxwE5cckeVzccbSHQCIgoCq8lw4bOr3+veHQHn1TF9X9dOc+d2nYgD9UE0bHJdIMaNr8m4bAAAgAElEQVTKfjuPdCZ+EZeUXQx/lkW8ciOXJAvDR4KspTP9L4kEVSPyYLdqNwsmCESefu9LZ9y1p344Rck7qtvguAGMLM5h0k5jh5evA2Bk11F2A4DyQnUFTrihQxIJ29XxDMkpbleSRILKEXmw27Qd1Eii0NDf91T/JG2xyOsA+MNVTjNVpXlM2qEU2FLXzqStoUxWKLOfo9NhwbB8dSVOuaHFofEFM12ynPwAQJIEVJVre+d/gkDI6n6/p7bx0T9Y4QJBvx1wnFpjy9gMAADg9U1nXAzLpWDj/hZ0etgU8Rlblm/qld2c+Tiz2KwJYk1JcgugVRJQNSIPNos+i19FK3m2v+8xmUshIGdcYMBxLEyrKmHW1urdx5jtXx+qVm6oZ9ZWTWUxs7a4oSHPaTVlPgA5iQGA3Sqhqjxft62voijEzvn+ixv6+z6TAYA1El4J/hiA08iYsjzkZlmZtBWLK/jHRj4LkK5uXxgf7Whi1t7ZY9gN7rihQRIFFObajQ7jVBQJM5Zm2y2oKs/VNfGVSMjRgb7PJBL+GIDTkkAIZo4bzqy9pe/W8sJAaXrizR2IMKx3PoPh75UbOoYVZsFqogySMga++hfk2lE5Io9pZtNkiKIw4C49ZtFQir+zaovjvmxBTQWztlz+MJ56bzez9oaKo20evLyujll74ysKUF7EdwBwqRMFgtGleRBFczwKoP3kACCEoHyYE+UlTt3XuhAA2Ur0TwO9htkAwB6NvAaAP1zlNHFBTQXTE+i5j/bhcKubXYODHKXAr17azKzaGQAsZDio44Yem03szZtvgpkAeob5/yy7hOqKfBTkGPO4QhSJb+L9rx4c6DXMfnKjf7DCRSneZNUex52svMiJs8cMY9ZeJCbj3idXIxRlk89+sHtq1W6s33ucaZuXz6pi2h439DhsEsaU5yHboV0WvWScPAEgEILSomyMGZGvSV7/ZImC+Fmi1zAdOomE/pVlexx3sqvPHcu0vfoWN3710mambQ5G2w914PF/7GDa5vjyAkweVcS0TW5oskgiqsryMHJ4DuwGXXApBUCA3Gwbxo0sQHG+w/DaxZIoPp3oNUwHAGObKz8AcIxlmxx3wpVzxjAvlvHq+josfZevB+jPoRY3fvC/Hye1xSkV150/jml73BBHgDynDdUVBagakYeCHJt+C+4IkJdjxdgReRhVmsO8lG86BEGQz/7h868lfB3LTsmSJQoBXmDZJsedkJdlxbVzq5m3++jKbVi2qpZ5u5muscOLOx57Hz0+tkt7su0WXM8HAJwWCJDtsKB8WA4mVhZiTHkehhVkwWGzML8hJwTIddpQXZGPwhw7HHZjH0OczCIK9YQg4aid+VAlrsjPAgn2RHBcmm6/eDIEDZbT/u61rXiaDwL6HGzuwW3/swodbjYZ/0524/zxyHGwyevAcf0hBMiyWzCsMAtjK/IwsbIQI0tzUJjrUPWoIMtuwYhiJyaMLsSo4b11SljPkKlFBJLUrjxNnlLULVu8DsB8LdrmuAeeWou3Pz+iSdtXzK7Cf90x37BniWawZvcxPPD0WvhDMeZt260iPvz19RhewPP/c8aKywoCoRiC4RiC4TgiURnKl1bzE4HAYZXgsInIslvgsFtOyz/Q4w0x3R2jFhFAbU5aMPO7r3oSvVaTZMSEkCcopXwAwGni3mvOwXtbGzQZdb/z+VE0d/nx6HcuwKgSNlUIM0VcVvDEWzvx5Du7EmY1S9etX5nML/6cKUiigDynDXnOf9YWkBXaV9ZXkoSEs42RmGyqiz8AWIjUMPO7KxJe/AENHgEAQPOxUSsBNGvRNsdVDs/FLRdO0Kz9XUc6ceVD/8BT79VC7ifBx2BT1+zCDb95G39+W7uLf3GuA9+9fJo2jXMcA6JAYLWIsFrEpB41BkLmyygqWOjfkn6tFgFcuGRJHMBSLdrmOAC475rpKNIwwUY4KuN/XtuKb/z2Xew60qlZP0bzBKP43d+34tqH38Texm5N+/rpjbOY1XTgOKNFoua7+xcEQq0i+V2yr9dsp2L9XxaXUAVNAExWtYEbLN7+/AgeeGqt5v0QAiyaXokH/mU6qkrZlSY2Ujgq4/lP9uGpd3fDo0NdhAVTy/H0fYt46V9uUKDoffYvm2wAYJWEhtk/+lvSGbY0PR0PLlv8PAG+qWUf3NB2/9I1eHfLgAWvmBEIwQU1Fbj94sk4b/IIXfpkrcsbwsoNh/D8J/vQ7mK/wv9McrOsePs/r0VpQbYu/XGc1sKROLzBiNFhnMZuk/575r0r/j3Z12uyCLCPQv8IgfABAKeZJd+Yi52HO9DSE9C8L4VSrN59DKt3H8PkUUW4ccF4XDazEgVOc09yyYqCjftb8camw3hv61HE4vrdtQiE4HffXsAv/tzgQYFA2ITP/gVQq4T/TuUYzSfkDi5b/AkBLtS6H27oqm3ows2PvItonF2Z2mSJgoB5U0bg8pmVmD+1AiV5Dt1jOJNoXMa2+g58sL0Rq7YeRTfjZD7J+sn1M/GdS2sM6ZvjtBCMxOA3YTlxq0XaN/v+FVNSOUbbGQAAhNL/AiF8AMBppqayGP9561w8+NdPde9bVhSsq23GutpmENKb4/78KeWYPaEUU0cX6zYgiMRkHDjWgx2HO/DpvhZsOdhmeKGja8+r5hd/blBRKBAIs8+PwYJAhN+neowuS3Lqli3eCGCuHn1xQ9cf39iBJ97aaXQYpygtyMbUyiJUj8jH6GG5qByWi1HDclCU60gro6E/FMPxbh8a2r1o7PChscOLPQ1dqG9xm2pF8vSxw7D8J5fCKg3dhErc4OMLRhGKmG8AIAkkOueBlx3JpP895TitAjoZJeR3hNKVevTFDV33XH0OOjxBvLKuzuhQ+rS5AmhzBfDRjqZTvk4IUOi0oyDHjsIcOyRRQJZVOqW2uTcYBQXgDUTQ5Q3D5Q8jEtP/MUeqpo4uwv/dczG/+HODiiwrprz4A4AokTWpXvwBnWYAKAWpf2bxbgBT9eiPG7ooBf7zxU1YseaA0aEMSTWVxfjLjxYhL9uW+MUcl0Hc/giiMWMfq/XH7rCdO/OHz6dc21yXuoWEgBLQ3+rRFze0EQL8xzfOxc0LJxodypBz7sQyPP+TS/nFnxt0onHZtBd/SRK707n4AzoNAACgOjewAsA+vfozmuSwIq+qFAUTRsJZXgyiV21qDgIh+M9vzsX9107niWd0cvHZo/DUvV9Fls08JVE5jgUKCl/AfKv+T7BKwtPpHqvrx2Pd03d8DYS8pmefRigYV4HCqZUgwj9/vLFgBG2f7UfE5TMwsqHnjc8O4xfLNyAcNf+z80wkCgT3XH0Ovn/FWXywxQ1KgXAUAQ0qY7IgCESOFDqcFy5+Nq19vrqfsnXLFm8CcK7e/eolZ9RwDJ81/ozfU6IxNK+tRdSrfdIa7p8OHOvB3X/+BMc6+eCLpXynDY9+5wLMn1JudCgcp4m4rMDlC2lWIEstm1X6aNZ9K76a7vG6z0sTAUmnKcxEhZNH9fs9wWrBiPOnQHLwgih6mjiyECt/cTUun5V0imwugWlVJfjHL67mF39OE0QgsOVlI3fUMBRNrUTx2WORV1UKQdR3Z4kvGDHtxR8EEG3Cj1U2ob+6pxd/CIKLjehbS6Ldiqor5iR8XcQbwPE1u6GYdFHJYPbGZ4fxq5c2wxMwXx7vTJBls+C+a8/BbRdNhijwOX9OPdFmgS0vG7b8bFjzsmHNc8Kak3XKI9QT4qEoWjfuRcTt1zwus+b7PyHVwj9noksegC+jlP6MEHIRDBqAaCbJ2vG23GyUzZ2Elg17QGWzDi8Hp2vOHYuFNRX405s78cIn+6GYdnhvPhfUVGDJN+eivMhpdChcBiICYMnOgi3PCWt+1hcXfCcke/IzopLDirLzpqDpgy1QNKxpQRUKvwnz/Z9MIGLSZX/7Y9gFuP7pxc9RgtuM6l8rI786Hbbc5Aqf+I51on3Lgd7akpzudh7pxC9f3IQ9jd1Gh2JqFcU5+PF1M/gjFC5pgkXqvavPc8L6xZ29LTcLRGTz1Llz+yF4jrYyaetMvIEIwgan0h6IJArBcx/4m+oKW4bMAACACPHf4pCvBZBrVAxa6NnTgLLzJiOZsVXOyBLI4Si6dh/RPjDuNGePKcGr/+8qvLHpEP7v3d1oaPcaHZKplBZk4wdXnoXrzx8HidEHNzfIEMCSbYct3wlrrrNvGt+SpW0uCGuBE9CoCng4Gjf1xR8AREF8ikU7hk7B1y+746cU5BEjY9BC4YSRKJxamfTru3cfhau+WbuAuIQUSvH+tkb84fXtONLmMTocQxXm2HHnoqm47aLJsFt5Ol+ulyAJsOZmw5aXDWu+84uLfjYESf/Boau+Gd272Y8AFIWi2xsCNfGjQYGQuNs6zHn5vX9SvUDB0AHA3ldusFq9ObUU9Mz75jJY8VljkV89IslXU7RvqYevqV3TmLjEFErx3pYGvLh6P7bWD63fx9ljSnDLwom4bFYVbBZ+4ecAECB/zAjkjCmFLSfbNKu2Wj7dg2C7i3m7bn8YUZPX27BbLC/NvP/FW1i0Zfivs+6pxVdCwFtGx8EcAUrnTIazvCipl1NFQevGfZq8qbn0HG3z4LUN9fj7p/Xo8aWVZ8P0bBYRl82sxB1fnYLJo5J7r3JDBcHw2ROQM7LE6EBOEWjtRutG9kllQ5E4fCZe9Q8AAhGUvHy5ZMq3X+1h0Z7hAwAAqFu2+B0AlxsdB2tEEDFiwVQ4ipJb5qDE4zi+tlaXLS5c8iIxGR/vbMIH2xuxtrbZtPXAk+WwSlhQU4FLZozGwpqRcDp4+l7udM7yYpSeO8noMPpQhcLb0IquXQ2gCtu7dFlR0OMNm3rqH1Cf+OfLTDEA2LfsW6MlKHsADLr9RaJVQvnCs2HNcST1+ng4iubVOxE3+Uh0qIrGZWza34oPtjdi9a5j6PKGjA4pKUU5dsydNAKLZozGBTUVcFgNW//LZYjSOZPgrCg2pG+qALFAEBGPH1F3EFG3H6Eenya5UygFXL4Q4rJ22wpZIATUKjqrZ/3oL8xWjZtiAAAAdcvuuA8gjxsdhxYkhxUVF54NyZHcytioL4jja3ZBNvlKVA441unDtvp2bDvUgW2H2nG41W2KzGEleQ7MHDcc06uHY8a44Zgyqojn6udSUr5wGhxFeZr3o8TiiHgCX1zsA4h6Aoh4gqCKPhdkXzCKUMT8s3pWq2X97PteXMCyTdN8JNAlS4S6kY3rCcV5RseiBWtuFioWngXBktydV6jLg5b1e3Q7CTg2Oj1BHGx2of64G4da3ag/7sLhVg98IW2SitgsIqpH5GNceQHGj8jH+PICjCsvQFmh6i3C3BA3fNZ45Iwazq5BCsQCYUTcfkS9fkTcAUQ9QcSCxq2vCUdleAPmX98jEEItYjbTu3/ARAMAADi07FtTFSjbAAzKZPmOknyMmDcVREzuxx5o7UHrpn0wxS0lp0qPL4wubwgd7iC6PCG0e3r/H47KiMTiiMTk3j/He59tCoQgx2GBKAjItlsgiQKKcu0Ynp+FkjwHSguyUZznQHFuco+WOC5VjpI8lC+YltaxSlxB1BtAxBNA1OXr/b83oGn2vlTJCkWPybf8nWCzSB/Pun8F8/T5phoAAEDdM3f8EpT8wug4tJJTMQzDZ09I+ifvOdqGzu312gbFcRx3BoVTR6NwQv8FzgAgFgwj6gn23tF7/Yi4/YgFwqbOcEpB4faFETPRgKQ/RCDUkU8qpn/rby2s2zbdSiASyPk1HP5rKUGN0bFowdfcASnbhqIkEwXlVZUi7g/CVXdc28A4juO+pGdPIyLdPuRWlcGa44AcjSPqDSLq7n1mH/EEMrKomS8YzYiLPwDYLeKq6d9awfziD5hwBgAA9v/1jhpRJlsAaJtP0kDFZ41BfnWypVQpOrbUwdvUoWlMHMdxg10wEoM/aO5CPyeIhChKtrVs3vef1+TD35QJvictfraWUvL/jI5DS127j8Df3JXkqwlKZoxH1vB8TWPiOI4bzKIxGf6g+Vf8n2C1SCu0uvgDJh0AAMD446N+D5CPjY5DMxRo33IQwY7kMv8RgaD03Mmw5fPV3RzHcamSZQXeQASmXpxwElEgEa/L8h0t+zDtAIAsWaJQS/x2AExSHpoRVRS0fbYfEU9ymf8ESUTZvBpYsuwaR8ZxHDd4KLQ3z7+SASv+T7CKll9euORZTfcomnYAAAATbl9+nILebXQcWlJiMlo/3Yd4KLnMf5LdghHzayDaePpWjuO4hCjgDYQhK5lz8bdIYseM+1/4jdb9mHoAAAATvv3s30DApPaxWcXDEbR8ujfp1bQWpx1l500B4TXaOY7jBuQNRUxf4e/LrIJylx79ZMQVxCLQ+0Cx3eg4tBT1BtC6aT+onNwo1V6Yg9I5E8Hzu3Icx52ZPxRFOJJZ2xRtFnH3Ofe9/IYefWXEAKBq8bPhOBG+BqDb6Fi0FOp0o2PbQSS7SCW7rAhFUyr/f3v3HidXWeYJ/PdezjlV1V3duYeEgKDAoCwGyAUvu368g+voDMuKkpvcFkToJOBt3NkZ4uywrqgLSUAQhotAEjDjR+fjKIK6i86IDiYBZD4qKtdcICHdXV23c3sv+0cnEEgn6a6uqlPn1PP9J5CqznnSqT7vc973eZ+3pTERQkga1YII9ZSd3MkZM24s/7Jt12vXhSbrLZfc/jwMLkBaSjgbVNn+MgaffHbc75960jw4vdQOlhBC9gsihZqfrsEfABxX3Dz/c/eMfwCYpNQkAABw0qV3/jOAryYdR6sN/2EnSn8aZ+MnBvRQfwBCCAEAhLFGuZaORj8HklIMLxzYONDOa6YqAQCAnTve8NcAHk46jlbb+5unUd3x8rjey2XHdXQmhJC2i9T+0/3SNVHMwJAT/BOMtTfw1CUA71mzRsXg5wL4U9KxtJQFdm95Cv7ekSO+dbx9BAghJKsipTFSDVJ5eKrryp+etnLDQ+2+buoSAAA45ZLbhxjHXwA48uiYYlZbvPjIbxGV64d8T1Spo76n1MaoCCGks4Rxegd/wVlUDLxzkrh2KhMAADjxojt/yww+DiBdGzwnyMQKu/7l3xGWawe9FtdCvPTL38GmqMEFIYQ0UxSPTvuncfAHGFzPHTj5C3dUkrl6yj11+wVXM8u+nnQcrcY4R/HYWcjN7AdjDMHeMiovvASTkiMtCSGk2cJUD/6A54hHFq3e9M6krp/6BAAAnrrtgn9gjF2cdByEEELaI4wUyvUwtYO/5Nwv5vSsU67YnFgRV2qXAA5UMe7lDHgg6TgIIYS0nh/GGKmld/BnYBCOWJHk4D8aR0bs+ualhYqI/y8Dzkw6FkIIIa1R82PUgvTt8z9QzhEPLly96eyk48jEDAAAzL3s1rqtVj8ZRHqcHXQIIYSkhQVQqUepH/ylYJX8XPXRpOMAMpQAAMDJqzc/FUTq/Go9qtmUNYIghBAyNmstytUAfpi+9r4HYgzW85yzTzlvc0dkMZlKAABg8eqNP7cOPlEqB0ppqpAnhJA0M8ZiuBogTNmRvmPJe87/Pv2Kex9JOo79MlMD8Hpb1y65NFT6lmLeY54rkg6HEELIBMXaoFwNoDPQ68RzxJZFqzctSjqOA2VuBmC/Bas23upK8fmRWoBKPUpttSghhHSjIFQolbMx+EvBq+40+e6k43i9zCYAALBw1cav9XjuX/tRjOGKD1oSIISQzlcLotE9/hmo5eIclnP+4fkr7jm4nWvCMrsEcKAt65asDUK1koGhWHCR8+j0PEJIN7OIlIVSGpwxCMEgBAdnyQ4J2liUawHijHQ4ZQByrlyzYNXGLyUdy1i6IgEAgC1rl9wcROpTAJDzJIoFF6x7/vqEkC5m7ej++Uo9QqUeIVZ6zGVRzxEo5Bz05CUKeReubN8kcaw0yrUwE1P+++Vc8YOFqzb9edJxHEpXjYBb1y/7ph/ElwIWQnD093iQItOrIISQLmasxXA5xN5SfcJP1QxAPicxtZhDf9Fr2eyABVAPItT9OAMT/q/yHP70otX3nZB0HIfTVQkAAGxdt/S6IIo/tz/77ck7KOTc7vtGEEIyy1pgcMTHy8M+tJn8dLrgDFOKHqb35+E6zdtVZaxFuRYiysAWvwNJwevFPn3MKZdsHko6lsPpynFv69pla4I4umZ/EuA6AsWCB8G78ttBCMmQeqCwc28FYdj8QZUB6C24mN6fR2/BmdSfFcYKlVoEk7EtWpwznc+JhadfsfHxpGM5kq4d8bbcuPyLoR/+r/0fPc6AYsGD51KBYFtYQGmDSBkYYwE2+pQhBIcreBd/MglpjLEWuwfrGBrx2zKVnvckZkwpoK/HxURWB4wFqn6IIFStCy4hDEAh5yw9fWDDxqRjGY+uvs1uXbv0ikDF66159fuQcwV6CznQZEDzWAsEUQw/0PDDGPVQI4o17CEyf84Zcq5EwZPo7XHRm5fo8o8qIYcVRgrb91QTGVRdyTFzagFTirkjJgKR0ijXIpgmLEt0olzO/duFA/f+z6TjGK+uv6tuXbvswjCObjf21e8FZxzFHhdeE9e6uom1QD0YrTiu+zH86NCD/XgIztHX62BaXx552sJJyGuUKiF2vVxNfCrddQRmTc2jv/fgRMBaoFqP4Efp7uV/OHlP3LZg5aZLk45jIro+AQCArTcuPScM1WZj7GtG/LznoLfg0HbBcdLGYHAkwHA5RKxaU9ST8ySm97W2KpmQNLAAdg/WsLfkJx3Ka3iewLyZxVeS9TDWqNaztb3v9VxH/vPi1Rs/knQcE0V30H1+tW7p20ysHjbGegf+PhcMfXmvqZWvWWOtxWApwMulett+yKXgmNaXw9S+HJw27lUmpBNYY/HCngoqtY44VO4gjAHT+/PIuRKRyt5a/4E8R/5m0eqN85OOoxGUABzgyes+/qaaZNuUNn2vfy3vOejNO2D01PkaNT/GzperiW3jYQzo781hen+OlgdIVzAGeO7FEdSDzpxOZ2x0dmJvqY6+HhdHz+zN7H3Tcfizi1fddwJjSGVRAz06HeDUz9//NKQ4xnX4C69/zQ9jDFeCzO1XbZQxwO6hGp7bNZLo98RaoFQJ8PSOEp7eUcLgSDYODyFkLNYCO/aUO3bw55zBDxX2DNVgjEWpEuL5l8qjO30yxnXEjnop95a0Dv4AzQCMyf6/d8stv5n7aBip08d6Pe/uqw3IaFZ7JHU/xo49FUQd2q+bc4ZpfTlM68+3tZUpIa22c08Vw5Ug6TBeYa1FrDRiZaCMQRiN/TCQzzk4bk4Rgmfj59FxxI56yTvxPWvu6px/jAZ05wg2TltuWPKtIFYrxnpNcIbeggvP6Z5pZ2Mt9gzWMdimfcaTxRnD7GkFTJuSpw86Sb1SJcCOPdWkw0CsNMJ436Cv9LjvBTlX4rg5fZApT8odyXeKQt9JCy+7tZ50LJNF98Uj2LJ26RdDFV97YK+AA3n7ugjyjDcOCCKFHQntM56svl4P82YWkZGHD9KFlDb44/ZhaJ1M6q20gR8phJGa1HS+6wi88ej+1J7B4kq+ixf6TszC4A9QAjAu29Yt/a9+pO6z1o65FYAzoDfvZfOYYQu8PFLH7kF/9H9Sqrfg4rg5RdBHnqTR9t1ljFTbW/FvjEUQKQSRgtLNW+7LeRJvnNufuoemrA3+AN0Nx23L+o+dGkf8F9rY4qHe40iBYsFNbXb7etpY7NhdQaXemVuNJmpafw5zZ/QmHQYhE+KHCk/vLLUt/1baoB5ECCKDVl20kHNw3Nz+1HRcdR3xtDLq1Hdcvbmzmi5MUkq+/Z3hV+uW9jGtt8bKHOaIR4a8J9Gbn1h/7E7jhwrbXyp3bKFfo94wpw/Fgpt0GISM247dFZSqYcuvE6vRgT9s066eaX05zJ3Z+Qm5K/m2RUfrxey8zZnbApbiISo5v157/j1hrJcdLjnmnKE356ZyWaBSj7B9dxlZbNftOBwnHTO1a3dwkHTRxuKp54Za2uY3jBVqftzUaf7xOmZ2H/p7Ozch9zz5wKKVG/9z0nG0Sjbmqtts0apNywuecznn7JAZoTEW5XqIUjVd+9IrtQgvvJTNwR8A4thgaCTVO3dIF6n5ccsGf6UNhisBRqphIoM/AOx6uQrVkbOMDJ4r78zy4A9QAtCwMwY23JLPiYVS8vLh3hfFGoPlOqp+NKkDcdqhHsTYvruCDg9z0vaOBJn/O5JsaEXDH20sKrUIQ2W/ZWd2jD8Wgz2lzqqpYwBynvj7Ras2XpR0LK1GCcAknH7Fxsf9kdzsnCt/ddg37jsdb3Ak6NjTsGJl8MJLlcRPFGuHWGlU/WwUNpJsq9abd7+wsKj5MYZG6h11HxoeCQ7ZQKjdOGc673orFq7c+DdJx9IOtBDaJFvXLb3Fj9Rl43m0lJKjmHfhyM44YMha4NmdJdRTuMe/UX09Lo496qAjHwjpGNYCv312b1Nmq2JlUK6H0AlN9R9Jf6+HY2YfcoNVW0ghKtLh71w4sOHJRANpI5oBaJIFKzd8Ku+65wrGj/hoqdTo2lu5HnVEj+yhctBVgz8AlGsx4o5ceyRklNJm0oO/saNFvcMVv2MHfwAo16JEfx5dRz7jTfWP7abBH6AZgKZ74uZzZoVh7mdRrE8ez/sZYyh4EoVcMtsGtTZ46oXhjkhE2m3erCKmFL0jv5GQBIShxh93DDf+9bFGpR6m5md71tQ8Zk3raes1GQA345X+h0MzAE02//Lv7lm8etOb8zl5K2dH7qJhrUUtiDE44iOIVNt77b1cClJzg2i2akYaHJFsUg1uxbEYfeofqabrZ3u4Era12Shn3OTz8q+6dfAHKAFomQUDGy9zcuIsKfi4SlyNNSjXQgyX6207XtdYi+FyphpbTUjFj1Pc3JhkXSO7hrQe/Zn2w84p8huvWBnU2xS3I/hIwXUXnnHlxq+05YIdihKAFlp05aYfFz0923Plr8f7NcfdB4gAABUISURBVEpblKoBStWg5Xtzy9UoVT0Kmk1rgzDqrtoHkh4TbVYVxgpDFT+xPf3N0I7zDlxXPDprau6o01be/VjLL9bhqAagTbbduOwLQRhfa8zYBwodSs4V6M154KL5/1Qv7K6g3IYWo51s7oweTOvPJx0GIQfxQ4Wnd5SO/EYLlOshggwks47kOOkN01oyMHHOjOuwaxauvO/vW/DHpxLNALTJGVfe+5WCx+c7UuyZyNcFkcZgxd/XSKh58VhraQ0cgN8h+48Jeb3xHJRjjMFwNcjE4A/sP4+g+csAjhSDMicW0OD/WjQD0GbWgm1Ze/6GKDbn2wmuQHPG0JN3kPecScdR8SM8v+uwTQy7Qt6TeNO8KUmHQchBYmXw1PNDh3xdaYNSygr9xqOZhwRxzqznyM1nDGw4nzGkd22kRWgGoM0Yg120etMSz5NnCcGqE/laYy0q9QiDI3UEk3xy9f1sPDFMVhCpjm/RTLqTIzn4IaYBwkhjuOJnbvAHRusAmvG3koKXezz5gQUrN3ycBv+xUQKQkIUrNzwUlPMzPU/+hE1wIkYbi3ItwHCl8V7e7Trys9NZi45pQ0rI67ljdAut+hFGatk9z0Ibg9oklyc9V/7TmfP0tPlXbvhpk8LKJFoC6ACPrV/+sVBFdyllC418fc6V6Mm7EONZNNznT9tLmVk3nKxjZhfR30sNgUjn2f5SBSO1Vwt1K/UQfhd07Zzal8PRDSwDSCmGXQ/nnPHpTT9rQViZQzMAHeD0gXs2+yP56Z4nH5jobAAwOo09OFJHpRaN8zAfSzMAB6DvBelUjjt6i7YWKFW7Y/AHRrcoT2SGgzNu8jn31jNXb5pBg//40QxAh3ls/bK/DON4g9KNzQZwxlDIjRYKHmobsVIGvz9McVG3mdLrYV7CB5EQMpZSNcT2Fyso10OEcXcM/vsdN6cfvYUjFzznHLmNF81Hzrj4vl1tCCtTaAagw5w+cO/3/HLjswHGWlT9CINlf9+Rnwen0VpndPGwQTQDQDqVKxlGakHXDf4AMFILDvu6FHwkX5DnLly9cQEN/o2hGYAO9viNS88JIn2P0qbhEzKE4OjNu/CcV4uJqn6M53aNNCXGLOCM4S3HT6efBtIxjBk9IyQIYvz2+cGuTNql5PizMZoCMc50zhG3nDGwcSVV908OzQB0sNOu3PDdYllP8zy5eTwHC41Fa4ORaoDhSvDKjoFuvJkcjrEWcYrbp5LssBaoBxGG9vXzt2y0V0U3UsogPnB2jjF4jvzF7II7d8HKjVfS4D959MyTEo9df8FpMaLvREq9cTJ/jusIGA3s2juhFgSZd/zcfvTkJ99giZBGBZFGzY+gX3cK4J6hOvYMj+tMscx5w5w+FAsuHEfs8BjOP23Vpn9NOqYsoQQgZbbdcP6XAm3+uzG24ceC4XKAl4ZqkJxDCA4pBBzBIET3TgjNmdGL6f25pMMgXShWBlU/RKzGfqCt1iM892J3du089qhiPGt678qFAxtuSTqWLKIEIIV+d+OK6VWl/ilU6p2NLAwMjfjYtbd20O9zxiAlhyMFHMHhOByNFCKm0YwpeRw1veFSC0ImTGmDehAdsaunMha/f25wrHrezCvkvVtWXP/A5UnHkVXdubiUcm++8u5BAP9x2/pl58ZK3REr0zeRr7d27EHdWIso1oj2rbsxjLYjdaSE6wg4MrszBIrqIkibWGtRD2LUA4XxnAciOYMrOaK4+5a8mTHPJR1DlmX3jt4Fzhi49zuLV9831XPl7ZzzCdwdxjfYWQCRMqgFEYYrPvaW6ijXRk8eG1/DofRotKUyIeM1WuAXY3DERy2IxzX471dowgFgqeTix0mHkGWUAKQcYzCLVm28pMc4JzhSPNHKaxlrEUQa5VqIvSUfpWoAP8xGMkAzAKSVgkhjqDx6rHcjPy+FLixQFZyr5V99cFvScWQZJQAZMf9z9zx75lWbTsvnnOVCsMrh3nuoDoETM7pcUKmHGCzVUaoGCCKd2gNKFG0DJC0Qa4Phio9yLTioun8iigW3iVGlgyPY40nHkHWUAGTMgoEN977tqvuneJ5zExdszHltxpv7z24BRLFGuRZgcKSGSi1CdIiK5s6V0syFdCSlzeiJnWX/kNX9E+FIDs89+GTALPMEX5N0DFlHCUAGMQazaOWGK6c57FjPFf/2+id+3pwpgDEZC/hRjFLFx+BIHfUwhk1BLtAtux1Ia1lrUfMjDJeDI1b3T1R/b/fMAniOeOH8Gx78QdJxZB0lABl28sB9uxat2vS2nrx8ryPFjv2/3+QJgEPSxqJaj7C3PDoroAw9ZZNsshaoBTH2NlDgN179vbmu2bjtOvhs0jF0gy75OBEA2Lp+yVVxbK4t16L8MztLicTgOQKFnANHdtZ0prOv7zghExVEGtUghGlDIemzu0ZQ8+OWXydJrit/d9G6h96SdBzdgGYAusiCgY3Xy56+/rwnv5tUDGGsMVwJMFzxX+k30AkEp1yYTEwQaQyWRwv82jH4A8DMKQ2dEp4agjPl5sQHk46jW9Bdr0vdevl7jbHJ//s7kqMn58J1kp0R6C24OG7OhPopkS4VxRrVIIJKqND1mZ0jqAfZnAXoybmfWX7Dj/5P0nF0C5oB6FKMcz/pGIDRPuil151WmAQ3w10OSXOofVv6StUgscEfAObO7AFrYSFvUvKe/DkN/u1Fd70uJTjbk3QMB4rV6NLASDVIZE9+ltsck8lR+47UHmrSlr7JyrkSs6dlaynAlWLPsU9E70s6jm5Dd70uJQQeTTqGsYTxaMe0kVoI08ZdA0kvQZDOo41BpRZiuOwj7KB6FQCY0Z9HX082tgUKwSP0s4XvefhhlXQs3YYSgG7F2T1Jh3A4YaQwWK6j5kdt6dFTyHVfq1UyNqMtKrUIgyMB/Eh1ZosoBsybXUQhn+7z3DjnpjefO+uiax/annQs3Sh7C0lkXCzAbrvifZHRtuPvIEJwFPOtKxR0JcdJtAWw6xltUQsj+KFGWjpDam3x3Isj8MP0PTxzxmxPj1iy9GsP3Zd0LN2KZgC6FAOs4Pz3SccxHlqPFgqWW7QsUMhnYyqVNMZoi0o9xN5Kfd9Amo7BHwCEYDhubj960jaDxQAv53yBBv9kUQLQxSTY9UnHMBFBpDBYqcMPm7sFqjfl06ikMdqMTvXvLe8b+NMz7r+G4AzHHd2PGVPS0ykw78pvfPL6H3016Ti6XUo+LqRVbv30++rG2HzScUyU6wj0FVzwSfY1Zgw4+bhpEO3qj0wSp7SBH8QIOnV9fxJqQYydeyqI4uR3KxxKwRM/WLH2x3+edByEZgC6nifFPyQdQyOiWGOwHMCPJjcbUCy4NPh3if09J4bKfucW901ST87BifOmYubUAjqxuWXOlf9Cg3/noDtfl3t2Wv9nOWdh0nE0wtrRKdyRWohGSwOm9qVu8oNMUBSrfc2mOqv9dKswzjB7WgEnHjsN0/py6JSeQTlX/uSCdQ+9K+k4yKto83OXe/jh3+pz33lioJRJbf9trQ3CSMGRYkI9/T1HYM70HloIyyALizDUKNcD1EMF3YUnUQrOUOxxMbWYg7UWQZTQTgEGFDz5vU+ue+jDyQRADoVufQQAcMeV738+UubYpOOYFAYU8y7y3vgqoo+ZXUR/r9fioEg7aWMRhDH8UMHY7hv0DydWBntLPobLfsMzZhMlONN5171q2Q0PrG/PFclEUPkzAQBI8Hcrhj8aa9I7K2SBSj1CFBsUe7zDroHmPYk+GvwzQ2mDehAjjDRsJlf3J8+RHHNm9GDWtDz2lnw1VAqEtrZlD4GuI1/qzfN3n3fdA0+16hpkcqgGgAAAVtz40LNujn866TiaIYwVShUf+hBHtDIGzJ3ZS9NfKWdhEUT6lcK+0ap+GvwPR3AeFTz3K+d++QfO3F5vbs6V3+ecNXXLgBQ8KHjeNRetf2jOedf9iAb/Dkb3QPIa31r5gdv8SF+SdBzNwBhDf493UAfBGVMKOGp6tg5T6SZaG9QjNTrgd+HafiM4Y8aTcmNubnTxKedtjg58bcNffXiqCtRNsdLnKmUa6orFADhSlKQU9xwzJbj6PWuor38aUAJADnLHyvd/P4pMZrbqFAuv1gUUPInjj57SMZXRZJwsEMSjg343VPI3DWPwHP6I7fPOXXzhXS8d7q1r1qzhJ1T/baWK1MWxtidrbQ67RMwYgyNFRTBsY0Jcs+L6B37W3OBJq9FtkIzproEP/DCI9YeSjqNZeguj1dDHz50CKehjnxaxMgj2P+1TUd+EOJL/wRPuJ05befdjjXz9P3727Lf6xn4IFn9mrZkFcMnAKsbal7jHf+rFvQ+ed/1mv9lxk/ahOyE5pDtXfnBdGKuBLCyrSsFxwrwp6O/1kPMkNf/pYEZb+LFCECpo07kd7TqVFHzIcdxPLxi4+/6kYyGdjRIAclh3rT7rijCI19sUf1ZcR+D4Of1wnFcHfUcK5FwBz5HgndgyrctoYxBGGkGkoDQN+o0QgoWu43x5wcC9X0o6FpIOdOcjR3T3qrPPCuL4u2k8M2BK0cPcGb2HHeSl4PBcgZzrTKiREJkcpQ3CWCOKFWJFg36jOGNGOvwfp7LSihNXPpDKrp4kGXS3I+Ny+0UfLfKe4CdhrBYnHct4CM4xd0YP+osT2+vvCA7Pk/AcSclAk1lYxPGrg343dudrKsbgSf6I7T9ygR8hY6E7HJmQu1aedUWk1A3G2I5tItXX4+HoWT2TXucXgsOTAq4j4EhBOwcmzCJWFrHSiGKNWBsq5GsSV4o/uMJpuMCPEIASANKAez//oXlRXf04UvrkpGM5kCM55s7sRbHQ0Fbmw2JstG7AdQQ8KSAEFREexALKGERKI441IqVB431zuZLvlZJ96oyBTd9JOhaSfpQAkIZ9a+CDF0XG3Ki1SbY2gAFTizkcNb2nbdP2nHG4kkNKDscRkJx33QyB0gZKGcRaj/5qDLKwY6QTOUKUGOefX7x6w21Jx0Kyo8tuWaTZvn3V2/N107s5jPSHk3ja8xyBubN60ZMb3wFArSQlhys4pBRwBM/ELIG1FtpYKG1hjIYyFkoZaG2p7W4bCM6CvCtvOG1gwxeTjoVkDyUApCnuWPXBM60298fKvKEd12MMtief++WJ84pzYm2Pb8c1J4qx0WJEwTmEYJD7kgLJGViHTBcYa2GMhTEGxgJaW2hroLWBMZYK9RIiOFOeI+8+fejEy9iaNdRWl7REZ9yFSGZ866qzPxlH8XqlbbFV13Akf1Fw/pEL1j20FQB+feOyD0CZb4SxOqFV12w2zhg4ZxCcgTMGcAax7/f2vwbglWWF0V/5vq8d/b1Xx2bzylq7MQAYYI2FtRbG7vvV4NX/thbaWlgNeorvMJwz7Ui+mQ0XL1645tZ60vGQbKMEgDTdtz/2MVE/auRrkTGXG22aduau4LzmOeKaFWsf/PpYrz9289J3RoG5SWk9n4rPSJoIxox0xYMFFS875erNQ0nHQ7oDJQCkZb556aVOrvDC1+NIXayMafj4PSH4iCP4jc9Ne8ffrlmz5ogdY7Z+44K3qTC8JVZ6fqPXJKQdGIN1HfHTXAHLTv1vm3YnHQ/pLpQAkLa466qzLtSR/oIyONFac8TqOCFYJDnfxpi9/oJ1P/l2I9fccuPyM43Wt0WROrWRryekVRiD9Rzxk3yft+IUauJDEkIJAGmrNWvW8GMHH/kvgH0/BzvJWDsVAMDYMBh2Cmv/HcZ895M3/fQPzbrmlvVLT7Xa3BIp/XZr6TNPksMYs44jfg7lLV/8mTu3Jx0P6W50MyRd48nbLpkd1ms3R8p81Bgrko6HdA/GYF0hH3GlWD5/4J5nk46HEIASANKFnr3zgtxQJf5yrPRlKukmRiTTOGdaSv7jHuldeMoVNNVPOgslAKRrWQv22E1LPq9i89lImRlJx0OygzOmXId/XxjvotOvuquUdDyEjIUSAEIAPLF+ycW+sn+nlJ6bdCwkvQTngSPFHf1s2tUnrlxPR/OSjkYJACEH2LZuyfuVxleV1vONtfTzQcbFEfxlIfnXFwxsvI4x6q5E0oFucISMYdu6C2daG38lUup8bUwu6XhIB2KAK+QzjuSfOX3g3u8lHQ4hE0UJACFHsGX90k9rbb4Yx2YeHXdHGIOVUjwqgUsXrN70m6TjIaRRlAAQMk5b133iP1nLvxYqvcgaWh7oNlLwsuBsE8urLyy8bPNI0vEQMll0EyNkgrZ88/wZ8NnXtTHnxtr0JB0PaR3GmJWCP+kC15x+1Saa5ieZQgkAIZPw2LpPfFhb/j+iWC821h6xxTFJB8F5IAT/oRS5gTMG7tiVdDyEtAIlAIQ0wRN3L+/RJfs3sdYXxMrMplqB9GGMaSn545KJ6xasureh8ycISRNKAAhpsidvWv7mUKs1cWw/SjsIOhwDHCGeF4LdM73oXnv8hXcFSYdESLtQAkBICz22dtklytrLY63m0/kDnUNKvkdydj9y+LuFl23am3Q8hCSBEgBC2uSxtR//ixj8Kq3tO7Q2TtLxdBPGmZWcvcQl/xGz+tqFK+9/OumYCEkaJQCEJOCVZEDZd2hDyUArcM605PwZLtj9FRF/5T1XbK4mHRMhnYQSAEIStO9AomVaY4XRZlGsTX/SMaUVY8xKznYLIX5pGTYuHNjwHWrLS8ihUQJASAfZtu5jMy1zL7TGnqO0eavSppB0TJ3MEazEGX+CCXb/9CH3zuPXUBEfIeNFCQAhHWzbDUveZTgutRpv10bPU8a6SceUBAYGLlhVMPYc43hUWPxwar/3A6raJ6RxlAAQkiK/vv6iN0rpn6813qut/Q/a2BnGZKsBEec8FgzDnPEdjNsnmRA/DKOZ33/H1df7ScdGSJZQAkBIyj16w5J3ScbONjBvNRZvgsVRWps+3aGdCQVjhgkEDLzCGPaCsWckY49x4BfK6/nXhZfdWk86RkK6ASUAhGTU499acbQpqfdqhsXM4hgDzLYWM6yxfYDtMdbmrLXCTrJMjjFYxpjmDBEY8xlQ4wxly9gwB/Zyhmc4xB8VZ4/DyT9JAzwhnYESAEK63BM3L5+FKnq4jXjcy+cBgFXoA8MrOxI4uLHC7Bz9H1MSFbccu0wvXHX3CwmFTQghhBBCCCGEEEIIIYQQQgghhBBCCCGEEEIIIYQQQgghhBBCCCGEEEIIIYQQQkh6/X/k37JgZDEVkAAAAABJRU5ErkJggg==;" parent="7" vertex="1">
                    <mxGeometry x="30" y="110" width="220" height="220" as="geometry"/>
                </mxCell>
                <mxCell id="17" value="&lt;font style=&quot;font-size: 30px; color: rgb(26, 26, 26);&quot;&gt;XXX Cookies&lt;/font&gt;" style="rounded=0;whiteSpace=wrap;html=1;" parent="7" vertex="1">
                    <mxGeometry x="272.5" y="120" width="215" height="60" as="geometry"/>
                </mxCell>
                <mxCell id="18" value="" style="shape=image;verticalLabelPosition=bottom;labelBackgroundColor=default;verticalAlign=top;aspect=fixed;imageAspect=0;image=data:image/png,iVBORw0KGgoAAAANSUhEUgAAAgAAAAIACAYAAAD0eNT6AAAABHNCSVQICAgIfAhkiAAAAAlwSFlzAAAN1wAADdcBQiibeAAAABl0RVh0U29mdHdhcmUAd3d3Lmlua3NjYXBlLm9yZ5vuPBoAACAASURBVHic7d19kF13fd/xz/ecq4fV40qW5IeaIZR0ZwjdFNLsOOGSuAskkMQkZEJrT1xNZNNBadOZtKhJBLiwYiSeEtFMk8nEGVAZGLdqS0ppp03SkMCkKMDIkxDaEiIwtsG2bD3uSvso3XtO/9AKSdau9u49v3O/53fO+zXDEALofNn96Z7P/T19Lc9zAXW3e8/eNZJeJulOSXct/uPOF/3zXZI2edXoYW5u1ruEQcvN7LKZzUo2ZabTkp0009OSnpDsa5K+cPSxI437waB5jACAutq9Z+9mSW+S9BZJPylp2Lei6mlgAFiRmeVmydNJYp+W7NePPnbkpHdNQBkIAKiV3Xv23inpzbry0n+dpHW+FVUbAWBlSZKcNkv+yMwOH33syFe86wFCIQAgerv37B2StFfS/ZLukWS+FcWDALA6SZJMmyWfNbO3HX3syDnveoAiCACI1u49exNJeyQdkHS3bzVxIgD0x8y6SZJ+wszefvSxIx3veoB+JN4FAP3YvWfvfZK+Kulj4uWPAcvzPO12Ow91u53pBx586IB3PUA/mAFAVHbv2XuPpA9Jute7ljpgBiCMJEkmkyTZd/Sxf3fEuxagVwQARGH3nr0vkfQRSW/1rqVOCABhJUnyTJKkbz362JEve9cCrIQlAFTe7j17XyPpcfHyR8VlWXZ3t9v58wcefGivdy3ASggAqLTde/bukfQ5SbucSwF6kud50ul0fvf+n3/oo961ALfCEgAqaXGH/4cl7fOupc5YAihXmqaPmyU/zEkBVBEBAJWze8/eLZKOSvoJ71rqjgBQviRJTidJ+uqjjx151rsW4HosAaBSdu/Z+72SviRe/qiJLMt2drudJx548OHXe9cCXI8AgMq47uX/Cu9agJDyPF/X7Xb+mBCAKmEJAJWwOO3Py3/AWAIYLDNbSNPWy1kOQBUwAwB3ixv+joqXP2ouz/N1Wdb9ywcefLjlXQtAAEAVfFis+aMhsizbmefZF73rAAgAcLV4zp+jfmiUbrf7g9wTAG8EALhZvOHvUe86AA/dbudt3BgIT2wChIvFu/0fFzf8uWIToC8zy9K09Rp6B8ADMwDw8hHx8kfD5XmeZFn3U951oJkIABi4xZa+NPYBdKWB0AMPPvSwdx1oHgIAPHzIuwCgSrIsO+xdA5qHAICB2r1n732S7vWuA6iSLMuGH3jwoQPedaBZ2ASIgVm88Oerkl7pXQuuYBNgdSzeEriJzoEYFGYAMEh7xMsfWFKe5+vyPP897zrQHMwAYCB279k7JOmEpLu9a8E1zABUi5l107S16+hjR85514L6YwYAg7JXvPyBW8rzPM3z/GPedaAZCAAYlPu9CwBikOfZG7xrQDMQAFC63Xv23inpHu86gBhkWbbpgQcffpV3Hag/WlJiEN4sybyLeJFM0hclfUZXriR+TtJzn/z4oxddq0KpHnjw4Tsl/T0pf0We6/V5nv1IlmVbvOt6sTzP90na7V0H6o0AgEF4i3cB15mX9NuSfuOTH3/0Be9iMFhHHztyUtJJSX8o6d9I0gMPPvx38zw70u12x1yLu06eZ2/0rgH1xykAlGr3nr2bJZ2WtM67FkmflvQvPvnxR7/tXQiq54EHH/6hLOv+fpZld3nXIkmt1pq7FgMLUAr2AKBsb5L/yz+XNCHp53j5YzlHHzvypSRJX5Km6ee9a7ki/xXvClBvLAGgbN7T/7mkX/jkxx/9pHMdiMDRx45kksbv//mHfrfb7ez1rCXL8p+V9A7PGlBvLAGgNLv37F0j6ZSkYccyJj758Ue5Yx2rdv/P7/lct9v9B17PN7N88WpgbmtCKVgCQJleJt+X/6clvc/x+YiYWfL6JEme83p+nucm6bVez0f9EQBQJs/NVPO6suGPKS705ehjR7IkSX/Ot4r8+3yfjzojAKBMdzo++7fZ8Ieijj525Etpmh53LOHljs9GzREAUCavGYBM0m84PRs1Y5Y87PXsPNdLvZ6N+iMAoExeMwBf5JIfhHL0sSP/N0mSCz5Pzz1n0VBzBACUyWsG4DNOz0VNmSX/2+O5ea6dHs9FMxAAUCavAPC403NRU2b6E58n51t9nosmIACgTF7Tl25Ht1BX9tceT83zfIPHc9EMBACUyWsGgACA0P7K46F5nq/xeC6agQCAMm3yeCgtfRGaY1OeqrXRRo0QAAAAaCACAAAADUQAAACggQgAAAA0EAEAAIAGIgAAANBABAAAABqIAAAAQAMRAAAAaCACAAAADUQAAACggQgAAAA0EAEAAIAGIgAAANBAlue5dw2VMHHw8BpJL5N0p670sb/ruv/7+v+fS4tboAyzs7PeJQAh5WZ22cxmzWxK0mkzOynpaUlPmNnXJH3h0IH9DHw1PABMHDy8WdKbJL1F0k9KGvatCBgsAgCaxszyJEmeNrNPm9mvHzqw/6R3TV4aFwAmDh6+U9KbdeWl/zpJ63wrAvwQANB0SZKcTpLkj8zs8KED+7/iXc8gNSIATBw8PCRpr6T7Jd0jyXwrAqqBAABckyTJdJIknzWztx06sP+cdz1lq3UAmDh4OJG0R9IBSXf7VgNUDwEAuJmZddM0/YSZvf3Qgf0d73rKUttTABMHD98n6auSPiZe/gCAHuV5nnY6nYc6nc70u97zgQPe9ZSldjMAEwcP3yPpQ5Lu9a4FqDpmAICVJUkymSTJvve/751HvGsJqTYBYOLg4ZdI+oikt3rXAsSCAAD0LkmSZ9I0feuhA/u/7F1LCLVYApg4ePg1kh4XL38AQEmyLLu70+n8+bve84G93rWEEH0AmDh4eI+kz0na5VwKAKDm8jxPOp3O777rPR/4qHctRUW7BLC4w//DkvZ51wLEiiUAoH9pmj6eJMkPx3pSIMoAMHHw8BZJRyX9hHctQMwIAEAxSZKcTtP01YcO7H/Wu5bVim4JYOLg4e+V9CXx8gcAOMuybGen03ni3e/94Ou9a1mtqALAdS//V3jXAgCAJOV5vq7T6fxxbCEgmiWAxWl/Xv5AQCwBAOGY2UKr1Xp5LMsBUcwALG74Oype/gCAisrzfF232/3Ld7/3gy3vWnoRRQDQld3+rPkDACoty7KdWZZ90buOXlQ+ACye8+eoHwAgCt1u9wdjuCeg0gFg8Ya/R73rAABgNTqdztuqfmNgZTcBLt7t/7i44Q8oDZsAgfKYWdZqtV5T1d4BVZ4B+Ih4+QMAIpXnedLtdj/lXcdyKhkAFlv60tgHABC1LMvuftd7PvCwdx1LqWQAkPQh7wIAAAghy7LD3jUspXIBYOLg4fsk3etdBwAAIWRZNvyu93zggHcdL1apTYCLF/58VdIrvWsBmoBNgMBgLN4SuKlKnQOrNgOwR7z8AQA1k+f5ujzPf8+7jutVZgZg4uDhIUknJN3tXQvQFMwAAINjZt1Wq7Xr0IH957xrkao1A7BXvPwBADWV53ma5/nHvOu4qkoB4H7vAgAAKFOWZW/wruGqSgSAiYOH75R0j3cdAACUKcuyTe9+7wdf5V2HVJEAIOnNksy7CAAAypbneSUa3FUlALzFuwAAAAYhy7I3etcgVSAATBw8vFnS67zrAABgELIs2/nu937wTu863AOApDdJWuddBAAAg5Ln+a9411CFAMD0PwCgUfI8/1nvGlwvApo4eHiNpFOSht2KABqMi4AAH2aWL14N7PaX0HsG4GXi5Q8AaJg8z03Saz1r8A4A7psgAADwkOf593k+3zsA3OX8fAAAvLzc8+EEAAAAfLzU8+HeAYAlAABAI+V57voO9A4AzAAAAJpqp+fDvQMAMwAAgEbK83yr5/O9AwAzAACARsrzfIPn8wkAAAA4yPN8jefzvQMAAABw4B0AnnN+PgAALszssufzCQAAADgwM9dmHN4B4KTz8wEAcGFmU57P9w4AzAAAAJrqtOfDvQMAMwAAgEYyM9d3oHcAYAYAANBUT3s+nAAAAICPJzwf7h0AWAIAADSSmX3N8/neAeBJSZPONQAAMFBmlkv6gmcNrgFg4pF9lyX9T88aAAAYtCRJnj50YH+j7wGQpP/qXQAAAINkZp/2rqEKAeAPJS14FwEAwKCY2a971+AeACYe2XdR0p961wEAwCAkSXL60IH97pvg3QPAIpYBAACNkCTJH3nXIFUnAPx3Sbl3EQAAlM3MDnvXIFUkAEw8su+kpC971wEAQJmSJJk+dGD/V7zrkCoSABb9R+8CAAAoU5Ikn/Wu4aoqBYBHJT3jXQQAAGUws66Zvc27jqsqEwAmHtk3J+m93nUAAFCGNE0/cejA/nPedVxVmQCw6OOS/p93EQAAhGRmC2b2du86rlepADDxyL5M0n7vOgAACClN0w8dOrC/413H9SzPq3f6buLg4c9Lute7DqDuZmddryIHGiFJkskPHnz3Nu86XqxSMwDX+TXvAgAACCFJkn3eNSylkjMAkjRx8PB/lvRW7zqAOmMGAChXkiTPfPDgu1/iXcdSqjoDIEnvkHTKuwgAAPphZlmappX9IlvZADDxyL7vSPpZSZe8awEAYLXSNP1nhw7sr+wtt5UNAJI08ci+P5e017sOAABWo9Vqfez973vno9513EqlA4AkTTyy7+OSKtE4AQCAlaRp+vj73/fOf+Jdx0oqHwAW/aqkP/AuAgCAW0mS5HSSJD/sXUcvoggAixcEPSDpr71rAQBgKWa2kKbpq6t24c9yoggAkjTxyL4Lkn5a0lnvWgAAuJ6Z5a1W66cOHdj/rHctvYomAEjSxCP7vinph8RMAACgIsxsodVq/dihA/v/xLuW1YgqAEg3hAD2BAAAXCVJcrrVar08tpe/FGEAkL67HHCfOB0AAHCSpunjaZreFdO0//UqexVwryYOHt4j6VFJa51LAaLDVcBAfxbP+Vf+qN+tRDkDcL3FewLGxbXBAICSmVnWarV+MfaXv1SDACB998bAH5T0Ke9aAAD1lCTJM61W6zVVv+GvV9EvAbzYxMHD90j6kKR7vWsBqo4lAGBlSZJMJkmy7/3ve+cR71pCql0AuGri4OH7JH1Q0iu9awGqigAALG/xYp8Pvf9973yvdy1lqG0AkKSJg4cTSXskHZB0t281QPUQAICbmVk3TdNPmNnbY7nVrx+1DgBXTRw8PKQrXQXvl3SPJPOtCKgGAgBwTZIk00mSfNbM3nbowP5z3vWUrREB4HoTBw/faWY/c9ttO3/n3LkzlmWZd0mAGwIAmm7d+vXKut3/IOnDhw7s/4p3PYPUuABw1bHjJ850Op3bzp45pVOnnteZ06fU6Vz2LgsYKAIAmsbMtGHDRu3cdbte8tLv0bp16/Mfv/cHanEibrVa3gU4OtVqtW67/Y67dPsddynPM83NzmlhYf66fyzc+K/nF9Tt1nY5CACiZmZKkkRpmqq1Zo3Wrl2ndevWaf36IQ0NDWnDxo3aOrxdSZJc/9+55FiyqyYHgNOSXnH1X5gl2rBxozZs3OhYEjBY0zMXvUsAnNm8dwVeGjntsei0dwEAAF9mmvauwQsBAADQYDblXYEXAgAAoLHMdNa7Bi9NDgA0DwKAxrPnvSvw0uQAwAwAADScSc951+CFAAAAaC6z73iX4IUAAABosie9C/DS5ADAHgAAaDiTTnjX4KXJAeCspGbegwwAuOqb3gV4aWwAaI+NdCSd964DAODDzPLx9ig3ATYU+wAAoKFM1ugOcAQAAEAzmRr77V8iALAREAAayswa2wdAIgAwAwAAjWWT3hV4IgAAABrJTOe8a/BEAAAANJQ1ehmYAAAAaKQm9wGQCACNTn8A0GhmT3uX4KnpAYAZAABorqe8C/BEAAAANJI1+BpgiQBwxrsAAICbxjYCkhoeANpjI5clNfocKAA00WIfgFnvOjw1OgAsYiMgADRM0/sASAQAiX0AANA8De8DIBEAJAIAADSOmc141+CNAEAAAIAGsinvCrwRANgDAACNY6az3jV4IwAwAwAADdTsPgASAUAiAABA4zS9D4AktbwLqAACgLO5uVnNzs7o0qVLunTpkrKsKzOTmSlNW1q/fkhDQ0MaGtqgJCGz9mt+fk4zM9NaWFhQp9NRt9vRzPRFmZmSJNXatWu1adNmbdy82bvUqF2+dElzc3Oan5/V5UuXlWVdZVmmJEm0du06rVm7VkMbNmhoaIN3qc1m+o53Cd4IAAQAF1mWaWrqvC5cuKBOZ/njuJ1ORwsL85qaOq8kSbRly7CGh4eVpgzdXuR5rqmpSU1OnlO3213y38/zXFmWqdO5rNnZGdnpF7Rp02Zt37GTwLUKszMzmpw8p4X5pU+XXfkZd6TZGU1Nnler1dLmLVu1ZeswP2cX9pR3Bd74FGUT4MDNzEzrzJlTVz4MVyHLMk1OntPU1Hnt2LFLW7ZsLanCeuj355znuS5evKCZmWkND2/X1m3bSqqwHi5fuqTTp57XwsLCqv57nU5H58+d1cULU7ptx05t2LippAqxFGv4NcASAUCiH8BAnTlzSlNTxW5fzvNcp0+/oLm5We3ceTvfnpZw7txZnT9fbJNzlmU6d+6M5hfmdfsddwaqrF4uTE3q3NkzyvO87z+j0+nohedPasvWYd22Y2fA6rCCb3gX4M2KDNy6OHb8xKQkvk6W6OpL++LFC0H/3KGhDbrzzr8lMwv658bs1Knne/45z85M9/SfW7duve66+yVFyqqd8+fOavL8uaB/5qbNm7Vj5+2M55KZWf7j9/5A4785NP4HsIh9ACU7e/ZM8Je/dGUD4alTzwf/c2N17tzZUn7OCwvzeuH5k8H/3FhNTZ4P/vKXpOmLF3XuLJOS5bPVrYvVFAHgCgJAiWZnZzQ1db60P396+qIuXmz8pV6amZkuPO1/K7Mz05o6X97vMRbz83OlvqQvTE1qbrbxt9SWyugDIIkAcBUbAUuSZdlAvqGfPXtGWXbzLvemyPNcZ86UP4wnJ88py7LSn1NVeZ7rzOnyf86nT73Q6J9z2egDcAUB4ApmAEpy4cLUksfPQut2uzpfwpRsLKamJle9278fWZbp3Jnm/nW5MDWpy5culf6cbrerixfCL+XgKvoASASAq5r7iVaiK2fQBzdlfPHixYE9q2omJwcXfqanm/tzvnhhcO+NC1PnC50uwPLM1NxvC9chAFxBACjB/PzcQL6VXtXtdjTbwLXT+fm5gcyyXJXnuWYaGLbm5+Z0+fLyl1aF1ul0ND8/N7DnNQt9ACQCwFUMhhLMzQ3+w6uJAWCmx6N8ITVxFsBjbM07/B1qAvoAXEEAuIIZgBJ4fHu5fLn89dmqWe0NdCFcGsA6eNUMYu3/xZgBKAl9ACQRAK4iAJTgVnf8l6WJL6ZBLrNc1cQTF5cuDT5oefxum4E+ABIB4CoCQAk8jjE18QOz2x38/+Ymbk7zGFs5RwFLYdI3vWuoAgLAFQSAEni9JJp2ftrjf2/TAoDXmGraz3mA/sa7gCogAEhqj40sSOLQbU00LQCgfIyp+jCzfLw9yue9CADXYxYgsCRJXZ7bxPVplMtrTHn9Hao3+gBcRQC4hgAQWJr6DK9ul29rCCtzGlOJ09+hOjPT4HdzVhSj6xoCQGDMAKAuvJYAkoSP6NDoA3ANo+saAkBgXh9erNciNJYA6oQ+AFcRAK7hNsDACACoC2YA6oM+ANcwuq5hBiAwlgBQFwSAOqEPwFWMrmsIAIF5bQJkBgCheY2pNGUJIDSTTnrXUBUEgGsIAIF5fXvhFABCywbYbfF6zACUwPSMdwlVwei6hmmhwFgCQF2wBFAn9i3vCqqC0XUNMwCBsQkQdUEAqA+TnvCuoSoYXdcQAALzCwDMACCsLscA64Q+AIsIAIvaYyPzkqa966gTvyUAZgAQFjMA9WCyfLw9OuldR1Uwum7ELEBAnAJAXbgFAK4CDsvE9OB1GF03YiNgQF4zAF2nHduoL79TACwBhGRm8941VAkB4EbMAATkOX3JLABC8RxLLAGERR+AGzG6bkQACIyTAIgd6/91Yhe8K6gSRtiNCACBcRIAsSMA1IeJPgDXY4TdiAAQGCcBEDs6AdaIGZ/x1yEA3IhNgIFxEgCx4wRAfZj0nHcNVcIIuxHpMDBOAiB2mVNvCZYASkAfgBswwm5EAAiMTYCIHUsAdWJPeVdQJQSAGxEAAiMAIHZsAqwP+gDciBF2I/YABEZHQMSOAFArX/cuoEoYYddpj43MSeKiiICYAUDsCAB1YRpvj3IM8DqMsJuxDBAQpwAQO7c9ACl7AEIyU8e7hqohANyMABAQpwAQO04B1IOZLXjXUDWMsJsRAAJiCQCxYwmgHkw2611D1TDCbsZGwIC4CRCx81oCSDkGGJbZlHcJVUMAuBkzAAHRCwCxYwagHugDcDNG2M0IAAGxBIDYEQBqgj4AN2GE3YxBElDqtJM5z3Plee7ybNSH5zjiFEBYJj3vXUPVEABuRgAIzOubDCcBUFTmNIb49l8C+gDchFF2MzYBBsYyAGLF9H+d2JPeFVQNo+xmzAAExnXAiFWXAFAb9AG4GaPsZgSAwJgBQKzoBFgrJ7wLqBoCwIu0x0ZmJM1511EnBADEiiWA+hhvj7K8+yKMsqUxUALyOgnAEgCKcgsATj006srM6AOwBEbZ0lgGCMjvFAAzACjG7xQASwAh0QdgaQSApREAAmIJALFiCaAe6AOwNEbZ0ggAAXEKALEiANSE2QXvEqqIUbY0AkBAzAAgVn6nAPhoDsmk8941VBGjbGlsAgyIhkCIld8MAHsAgjLjM30JBIClMQMQkN8pAGYAUAynAOqBPgBLY5QtjQAQEKcAEKvMaQyxBBAYfQCWxChbGgEgIJYAECtuAqwLe9q7gioiACyNABCQ3ykAZgBQDKcA6oE+AEtjlC2NDSMBeX2YefZyR/w8xw8BILivexdQRYyyJbTHRqYlzXvXURdmJjNzeTbLAOiX17d/z78vdTXeHn3Bu4YqIgAsj2WAgDgJgNi4rf87/V2pKzPjW8AyCADLIwAExEkAxIYTAPVAH4DlMdKWxz6AgLgOGLHxmj1KCQBB0QdgeYy05TEDEBDXASM2HAGsCRN9AJZBAFgeASAgAgBiwxHAejAZfQCWwUhbHgEgIJYAEBsCQE2YnfEuoaoYacsjAASUOt1tziZA9CvrcgqgDugDsDwCwPLYBBgQ1wEjNl1mAOrB9B3vEqqKkbY8ZgAC4jpgxIYlgLqgD8ByGGnLIwAExCZAxIZTAPVAH4DlEQCWRwAIiE2AiA0zALVxwruAqmKkLaM9NnJBEjdIBcIMAGJDAKiH8fbos941VBUj7daYBQiEUwCIjdtVwE5/V+qIPgC3xki7NQJAICwBIDbsAYifmV3yrqHKCAC3RgAIxGta07OnO+LlOW5YAgiHPgC3xki7NQJAIJ49ztkHgNXyGjOef09qyXTRu4QqIwDcGpcBBcQyAGLhN/3PR3JIJjvnXUOVMdpujRmAgDgJgFj4nQBg/T8oE30AboEAcGsEgIC8TgIQALBabgGAEwBBmYw+ALfAaLs1AkBAXt9uuk5NXRAvtyOALAGExh0At8BouzUCQEAsASAWHAGsCaMPwK0QAG6NTYABEQAQC24BrAeTvuldQ5Ux2m6NGYCAOAWAWBAAaoM+ALfAaLuF9tjIlCRukgqETYCIhdsSQMoSQEjj7dHveNdQZQSAlXGMJBA2ASIWXpsAU2YAgqEPwMoYbStjGSAQ9gAgFiwBxI8+ACtjtK2MjYCBEAAQCy4Cih99AFZGAFgZMwCBsAkQseAq4BqgD8CKGG0rIwAEwgwAYtFlCSB6Jpv0rqHqGG0rIwAEwikAxIKrgGuAPgArYrStjD0AgfgtAWRuvd0RnzzPlbMHIHomO+ldQ9URAFbGDEAgnr3OmQVAr7zGiuffj5qiD8AKCAArIwAExD4AVB1HAGuCPgArYsStjAAQECcBUHUcAawHk77lXUPVEQBWRgAIiBkAVB1HAGvjG94FVB0jbmWTki57F1EXBABUHUsAtcESwAoYcStoj43koh9AMKlTsxP6AaBXXn0AOAIYjpll4+1RUv8KGHG9YRkgEGYAUHV+SwDsAQiFPgC9IQD0hgAQiF8AYAYAvWEJoA7oA9ALRlxvCACBeF4GBPSCABA/M0171xADRlxvuA0wEJYAUHUsAcTPZOe9a4gBAaA3zAAE4rUJkCUA9Io+ADVAH4CeMOJ6QwAIxGsGoOu0sxvxcTsFwBJAQPa8dwUxYMT1hgAQCEsAqDr2AMTPpOe8a4gBI6437AEIhKuAUXXsAagBs6e8S4gBAaA3zAAEwgwAqs5rrKTMAARDH4DeMOJ6QwAIhACAqmMJoBboA9ADRlxvzkvqeBdRB0mSuPU8ZxkAK/F6+ZuZjAAQ0pPeBcSAEdeDxX4AZ73rqAtOAqCqMqeeEXz7D4c+AL1j1PWOjYCBsAyAqmL6P370Aegdo6537AMIhJMAqCoCQB3YnHcFsWDU9Y4AEAgzAKgqjgDGz0wXvWuIBQGgdwSAQAgAqKouMwDRM9mkdw2xYNT1jgAQiFc/gK7TBi/Ew+0aYPoAhGNs2O4Vo653bAIMhBkAVBVLAHVAH4BeEQB6xwxAIH6bAAkAuDU2AcbPpGe9a4gFo653BIBA/GYAWALArREAasDs294lxIJR1zsCQCAsAaCqWAKoBfoA9IgA0DsCQCDcA4CqYgYgfiad8K4hFoy63p2TxBskgNRpxzNXAWMlnAKoBfoA9IhR16P22Egm+gEEwRIAqspvCYCP4hAW+wDQuK1HjLrVYRkgAJYAUFV+SwDsAQjBzC571xATAsDqEAACYAYAVcUegNjRB2A1GHWrw2VAAXh+2BECsBzPsUEACIM+AKvDqFsdZgACYRkAVcO3//jRB2B1GHmrQwAIxOskADMAWI7bBkCn3hi1RB+AVSEArA4BIBCvbz0cBcRy3I4AMgMQkL3gXUFMGHmrQwAIhCUAVA1LAPEz03LqrwAAFA5JREFU6TnvGmLCyFsdNgEGwkkAVA3XANeA2VPeJcSEALA6zAAEQkMgVI1XOEyZAQiJWwBXgZG3OgSAQFKnjU/MAGA5bksAXAMcjEnf8K4hJoy81TkriTdIACwBoGpYAqiFb3oXEBMCwCos9gM4511HHfidAmAJAEvjFEDc6AOweoy81WMjYAB+pwCYAcDSupwCiBp9AFaPkbd67AMIgCUAVA1LALGjD8BqEQBWjwAQAPcAoGq4ByBuZpr2riE2jLzVIwAEwFXAqBpOAcTNZFPeNcSGkbd67AEIgKuAUTWZ0wZRlgACMZ3xLiE2BIDVYwYgAJYAUDUsAcSOPgCrxchbPQJAAJ4feiwD4MU8xwQBIAz6AKweI2/1CACBcBIAVcG3/xow+7Z3CbFh9K0eASAQlgFQFX5HAPkIDog+AKvE6Fs9NgEGwgwAqsJvBoANgKGYdMK7htgQAFbvrKTcu4g68DoKyEkAvJjbNcAcAQyJPgCrxOhbpfbYSFf0AwiCJQBUBXsA4mZm+Xh79JJ3HbFh9PWHfQABsASAquAa4LiZ6APQDwJAfwgAAdAQCFXBDEDkjD4A/WD09YeNgAH4zQCwBIAbEQDiRh+A/jD6+sMMQAAsAaAqWAKIHX0A+kEA6A8BIIA09fnw6zrd+Y7q4hRA3Mx01ruGGDH6+kMACIAZAFSF15hIWQIIhD4A/WD09Yc9AAEQAFAVLAHEzaRnvWuIEQGgP8wABMA9AKgKNgFGzuw73iXEiNHXHwJAAMwAoCoIANGjD0AfGH39IQAE4HUVMAEAL+YWAJw2wtaNcQ1wXwgA/Tkj+gEU5rUEkOc5IQDflWeZ8tznrzMzAMHQCKgPjL4+tMdGOpLOe9dRBywDwBvT/3Fb7AMw711HjBiB/WMZIAACALx1CQBRow9A/xiB/SMABMBJAHjjCGDkTHz77xMBoH8EgACYAYA3lgDiZmb0AegTI7B/BIAAOAkAb34nAPj4DYM+AP1iBPaP2wAD8JoGpR8ArnLrA8AMQBD0AegfI7B/zAAEwBIAvLEHIHbGl7E+EQD6RwAIwC8AMAOAK9gDEDeTnvOuIVaMwP4RAALwOwXADACuIABEjj4AfWME9o9ppwBYAoA3lgCi9y3vAmJFAOgfMwABpE53obMJEFe5bQLkFEAQ9AHoHyOwf2e8C6gDZgDgjSWA6NEHoE+MwD61x0YuS5r0riN2BAB48wsALAEUtdgHYNa7jlgRAIphGaAgrgKGN789AHz8FmWyjncNMWMEFsNGwIKYAYA3lgAiZprzLiFmjMBimAEoyOtDMM9ztx7wqA7PcUAAKM7MZrxriBkjsBgCQEFmxmVAcOM1BixJZGYuz64X+gAUQQAohgAQgFcA6Dod/0J10AcgbmY6511DzBiFxRAAAmAfALx4jYGUABAIfQCKYBQWw+ALgJMA8MIRwLiZ9Kx3DTEjABTDDEAAzADAC0cAI2eiD0ABjMJiCAABEADghSOAsbOnvCuIGaOwGAJAAF79AFgCQNcrANAHIAj6ABTDKCyGABAApwDgJXNqCsUegGD+xruAmBEACmiPjVySxDnUgtgECC8sAcRrsQ/AtHcdMWMUFscsQEHsAYAXAkDM6ANQFKOwOAJAQQQAePE7BcASQFFmmveuIXYEgOIIAAWxCRBe3GYA2ARYGH0AimMUFsdlQAWxCRBeuAo4ZvQBKIpRWBwzAAWxBAAvXAQUL/oAFMcoLI4AUBCnAOCFq4BjRh+AoggAxREACvL6NuTZCx7+PH//zAAUZ9JJ7xpixygsjgBQkJm59UZnGaC5vH73nuO9VugDUBgBoDimoQJgGQCDxhHA2NmT3hXEjgBQHDMAAaROx6I4CdBcbicAOAIYBH0AimMkFkcACICTABg0bgGMHn0ACmIkFtQeG1mQdNG7jtixBIBBIwDEa7EPwAXvOmLHSAyDfQAFMQOAQWMPQMzoAxACASAMlgEK8gsAzAA0FTMA8TLTgncNdcBIDIMAUJDfEgAzAE3l9btPCQCF0QcgDEZiGASAgjgFgEHLuk5LAE7Nr+qFPgAhEADCIAAUxCZADBpLAPGiD0AYjMQw2ARYEJsAMWgEgJjRByAERmIYzAAURADAoHEKIF70AQiDABAGAaAglgAwaF1mAOJlesa7hDpgJIZBACjIaxMgMwDN5bYEwFXAAdhT3hXUASMxDAJAQV7firpOO8Hhz+0UAEsAhdEHIAwCQBhsSCnI60PRsyc8/Hj+3lkCCOLr3gXUASMxgPbYyLykae86YubZI51lgObx+p17jvO6MFk+3h6d9K6jDggA4bAMUBDXAWNQOAIYMRN/YQNhNIZDACiI64AxKBwBjJeZ0QcgEAJAOOwDKIiTABgUTgDEy8xYbg2E0RgOMwAFcRIAg5I59YBgCSAEu+BdQV0wGsMhABTEEgAGxW8JgI/cokz0AQiF0RgOAaAgrgPGoPhtAmQPQGFmfNYGQgAIh0FZENcBY1A4BRAvk573rqEuGI3hsAmwIGYAMCgEgIiZvu1dQl0wGsNhBqAgTgFgUNz2AKQsARRHH4BQCADhEAAK8loC4BRA83AKIF4mPeFdQ10wGsMhABTEEgAGhSWAqJ3wLqAuGI2BtMdGZiXNetcRMwIABoWbAOM13h49411DXRAAwmIjYAGcAsCgeIW+lBmAQsys411DnTAaw2IZoABmADAoLAHEiT4AYTEawyIAFJA67ZAmADSPXy8AlgCKMBnLrAERAMIiABTg2SudkwDNkTn9rj3Hd20YfQBCIgCExR6AglgGQNmY/o+XSWe9a6gTRmRYzAAUREMglI0AEDH6AATFiAyLwVmQ3wwASwBN0eUIYLToAxAWASAsAkBBLAGgbMwARMz0jHcJdcKIDIsAUJDfSQBmAJrC7wQAH7fF2dPeFdQJIzIsNgEW5PUtqet0NzwGz+sUAEsAxZn0De8a6oQAEBYzAAWxBICysQQQNfoABMSIDKg9NjIjac67jphxHTDKRgCI13h7lFnWgBiR4TELUAAzACgbASBO9AEIjxEZHgGgAAIAykYnwDiZ2SXvGuqGABAeU1QFcAoAZeMUQJxMNuNdQ90wIsNjBqAATgGgbJnT75olgILoAxAcIzI8AkAB3ASIsrEEECeTznvXUDcEgPAIAAXQCwBlYxNgpOgDEBwjMjz2ABTAJkCUjQAQJ5NOetdQN4zI8EipBXh+SBIC6s/zd0wAKIg+AMExIsMjABTESQCUxW3932lM1wt9AEIjAIRHACiIkwAoCycA4mXSE9411A2jMjwCQEGcBEBZWP+PGn0AAmNUBtYeG7koad67jphxEgBl8Qp5KUcACxtvj7IJMDACQDmYBSiAkwAoCzMAcTIzpudKwKgsBwGgADoCoiwEgDiZ2YJ3DXXEqCwHAaCA1OnOdDYB1l+3yymAGJls1ruGOiIAlIMAUABLACgLMwCRMl30LqGOGJXl4DbAAlgCQFkIAHEy2TnvGuqIUVkOZgAKYAYAZSEARMrsjHcJdcSoLAcBoAACAMpCJ8A4mfS8dw11RAAoBwGgAJYAUBZmACJFH4BSMCrLwR6AAjgFgLK4XQXsNKbrw57yrqCOGJXlYAagAGYAUBaWAOJEH4ByEADKQQAogOlS1A1jujD6AJSAUVmC9tjIBUncXNUnrw9LM3N5blEeP69Yf1ZedRMAihlvjz7rXUMdMSrLw7GVAlqtNQN/Zqwf0mnaGvgzow0ADr/jVmvwv586oQ9AeeL8xIsDGwELWLt27cCf6RE6QvB4wcS6pu3xs1qzdt3An1knZnbJu4a6IgCUh30ABXgEgPXrhwb+zBDWrRv8C8bj9xOCx+841p9VVdAHoDwEgPIQAArYsGHjwJ85NBRnANi4cdPAn7lp0+aBPzOE9Q6/Y4+xXCv0ASgNAaA8BIAChoY2DHS6ttVqRTsDsH79kNIBdpszM23cHGkAWD80+HEVabCsCpOd966hrggA5SEAFLR589aBPWvr1m3RbmyTpOHh7QN7Vqzf/qUr4WXL1uGBPW/T5i0De1ZtGRuqy0IAKA+bAAsaHt42kG9raZpqy5bBhY0ybN06PJCfVZIk2r5jZ+nPKdPmLVsHMmPSarU0PLyt9OfUnclOetdQVwSA8jADUFCSJNqxY1fpz9m1645ojwBeZWYD+VkND2+P/meVJIl27rq99Ods37HT5dhhDXEHQEkYneUhAASwceOmUr9Fbd26rTabtDZu3KRt224r7c/fsHGTtm6rxzfaoQ0bS10K2Do87LI5s5bMnvYuoa4IAOUhAARy2207S1l33rx5i267bUfwP9fT9u23aXMJ687r1q3X7XfcGfzP9bT9th3aVMJmxo2bNmv7bXEvk1SJSd/yrqGuCADlIQAEtGvXHUFnArZuHdauXXdEvfFvObt23RF0JmDDxk266+6XBPvzqsLMtHPXHUFnArYObxvI8kLD0AegJJbnuXcNtXXs+IlLkuK8Xq6iZmdndOrU8+p2+7sdtNVqaceOXY2Ynp2ZmdaZM6fU6XSW/c/Mzkwv++8lSaLh4e21mfa/ldmZaZ09c/qWP6tbSdNUO3bdXpvlpCp54z/4+/VL6RXBJdXlOi3pLu8i6mTDho166Uv/ti5cmNTk5PmeP7BbrTXasmWLtm7dFv0mtl5t3LhJGzZs1NTUpCYnz/UcmsxMmzZt1vYdOxvzs9qwcZPWD23QhalJXbww1fO4Shd3+m/esrWWs0ne6ANQLgJAuQgAJTAzbd26TVu2DGt+fl5zc7Oan59Tp9NRlmXK80xJkmrt2rVau3atNmzYqKGhDd5luzAzDQ9v0/DwNs3Pz2lmZloLCwvqdDrqdjsyM5nZd39emzZtjvaSn6KSJNHwtu0a3rZdc3Ozmpud1eVLl3Tp0oKyLJNZoiRJlLZSrV8/pKGhDVq3fj0v/hLRB6BcBIBysQ+gRGamoaGhaK/wHbT164duuu1weoZbVpcyNLShsaGxSkw2511DnTVjfs8PlwEBQL9MF7xLqDMCQLmYAQCAPpls0ruGOiMAlIsAAAD9og9AqQgA5SIAAECfTPa8dw11RgAoFwEAAPpHH4ASEQDKxSZAAOiX2VPeJdQZAaBczAAAQJ/oA1AuAkC5CAAA0L9veBdQZwSAck1K6u9ycQAArYBLRAAoUXtsJJc4xgIAq2Vm2Xh7NPOuo84IAOVjIyAArBJ9AMpHACgf+wAAYNVs1ruCuiMAlI8AAACrZKZp7xrqjgBQPgIAAKySyc5711B3BIDysQcAAFaLPgClIwCUjxkAAFg1+gCUjQBQPgIAAKySSc9511B3BIDysQQAAKtFH4DSEQDK9zfeBQBAbEz6U+8a6o4AULL22MhpSS941wEAsVi8BfDr3nXUHQFgML7qXQAAxCKxhCOAA0AAGAwCAAD0yMye9K6hCQgAg/F/vAsAgFiY2Ve8a2gCAsBgMAMAAL0yYwPgABAABuNrkjreRQBADEz6H941NAEBYADaYyMLkk541wEAVZckycJ4e/SCdx1NQAAYnM97FwAAVZdY8g3vGpqCADA4H/UuAACqzpLk/d41NIXlee5dQ2McO37iLyS92rsO4KrpmYveJQDflSTJ3I/96Ks3eNfRFMwADBazAACwjCRJ/5t3DU1CABisfy9pzrsIAKiixOzXvGtoEgLAALXHRiYl/b53HQBQNWmaPjneHn3au44mIQAMHssAAPAiSZL+pncNTcMmQAfHjp84IenveNcBsAkQVZBYcvnH7n31Wu86moYZAB//2rsAAKiKNE1/x7uGJmIGwMmx4yf+UNIbvetAszEDAG9pkp55w4++aqd3HU3EDICfX5I0710EAHhK0/QfedfQVAQAJ+2xkSckHfKuAwC8tFqtPxlvj37Ou46mIgD4+rCkr3sXAQCDllhyKbHkLd51NBkBwFF7bOSSpH/qXQcADFraav3aeHt02ruOJmMTYAUcO37iE5J2e9eB5mETIDykafqtN/zIq17uXUfTMQNQDb8k6S+8iwCAsiVJMpsm6Wu96wABoBLaYyMXJf2EpG961wIAZTFLLrfS1th4e/Skdy0gAFRGe2zklKQfl/S8dy0AEJqZZWtarTeMt0e/5l0LriAAVEh7bORJXbkcaMq7FgAIxczyVmvN/ePt0T/zrgXXEAAqpj028lVJPy0uCQJQE63Wml9+XXv0U9514EYEgApqj438maQHJHW9awGAIta01nzgde3R3/KuAzcjAFRUe2zkM5J+StIZ71oAYLXMLFuzZs27X/fa73+Xdy1YGvcAVNyx4ydeIuk/Sfoh71pQP9wDgDIkSTLdSltvGG+Pftm7FiyPGYCKa4+NfEfSj0r6t961AMBKWmnrr1pp63Ze/tXHDEBEjh0/8Q8lfUzSZu9aUA/MACAUM8tbaes3X/fa73+Hdy3oDQEgMseOnxiR9ClJo961IH4EAISQJMl8K239zHh79H9514LesQQQmfbYyAlJY5J+WdILzuUAaDAzy1qtNf9lccqfl39kmAGI2LHjJzZI+ueSflXSbc7lIELMAKAfZpanaesPErNfGG+PclIpUgSAGjh2/MRmSf9S0jskbXUuBxEhAGA1rrz4088nljzIff7xIwDUyLHjJ7ZJ+leSflHSdudyEAECAHqx+OL/YmLJPx5vjz7pXQ/CIADU0LHjJ1JJPyzpvsV/vNK3IlQVAQDLSZJkIUmSvzRLPmnSR8fbo5e8a0JYBIAGOHb8xPfoyq2C90kal7TOtSBUBgEA10uT9IwlyZ8mZr813h79gnc9KBcBoGGOHT+xUdL3S7pT0h3L/PMuSS2vGjE4BIDmMLOumS2Y2bRk5810WrJnTfq2zL5h0mfG26OnvOvE4Px/2Xl1Z8GqFJUAAAAASUVORK5CYII=;" parent="7" vertex="1">
                    <mxGeometry x="700" y="100" width="40" height="40" as="geometry"/>
                </mxCell>
                <mxCell id="20" value="" style="shape=image;verticalLabelPosition=bottom;labelBackgroundColor=default;verticalAlign=top;aspect=fixed;imageAspect=0;image=data:image/png,iVBORw0KGgoAAAANSUhEUgAAAgAAAAIACAYAAAD0eNT6AAAABHNCSVQICAgIfAhkiAAAAAlwSFlzAAALEwAACxMBAJqcGAAAABl0RVh0U29mdHdhcmUAd3d3Lmlua3NjYXBlLm9yZ5vuPBoAACAASURBVHic7d17mFV3ne/5z2+tvWvvKi6pXDyoeLTxKDHEGwYMUUOCEJ2ZVkdnpirx2g/NHDmHdDxJ92g6RvvQffq0DbaJR2NHnVGk1dYU088z3Z7uPq0ClSjEGAhJNOnEGzEQEhKgqHvt2nut3/wBuQBV1GVfvuvyfj1PnkegqP1x1Zddn1rrt37LCUgx/9HPeusMyC/31Y876wzAbAXWAQAAQOtRAAAAyCEKAAAAOUQBAAAghygAAADkEAUAAIAcogAAAJBDFAAAAHKIAgAAQA5RAAAAyCEKAAAAOUQBAAAghygAAADkEAUAAIAcogAAAJBDFAAAAHKIAgAAQA5RAAAAyCEKAAAAOUQBAAAghygAAADkEAUAAIAcogAAAJBDFAAAAHKIAgAAQA5RAAAAyCEKAAAAOUQBAAAghygAAADkEAUAAIAcogAAAJBDhel+4MYvfGv+WDj+u7HT253XGyT9jqROScVmhUsi59wf/+WGtZuscwBIgF/f5a0jIMX+3Upn+fJTFoCbbtu6OHbRjaMav0ZSh8v5uHvvV0uiAAAAUm3SSwA33NLT/okvff2vYhc9JOn3JXW0LlaivW3jli1l6xAAANRjwgLw8S9veXWxNPRTJ/2RZnCZICfaR0biy6xDAABQjzMKwB/f/v8sDSK/y0mvtQiUBs5pjXUGAADqcUoB+PiXt7zax8G/SHqRUZ508G61dQQAAOrxXAHYuGVLOYj9NvHNfzqWXX/rlk7rEAAAzNZzBWBkxP+5Ttzeh6mFpaK/wjoEAACzFUgnbvVz0n+yDpMunssAAIDUCiQpdtGNYrX/DLEOAACQXsHGL3xrvqRrrIOkjtOSm2/futA6BgAAsxGMheO/Kzb5mZWaj1ZZZwAAYDaC2Ont1iHSysXsBwAASKfAsfJ/1jwbAgEAUiqQtMg6RIot/MRff+1C6xAAAMxUIK/51iHSzMWOSygAgNSZ9GmAmC5uBwQApE8gpwHrEOnmV3X19ITWKQAAmIlA0n7rEKnmdN6iw4NLrWMAADATgeTvtw6RdkEYcBkAAJAqgXywwzpE2nnPcwEAAOkStLuR/y5pyDpIyl1+wy097dYhAACYrmDjtdcOSe4O6yApVy6WBldYhwAAYLpOPA0w1CZJVeMsqebYFRAAkCKBJH32P6z9pXfu89ZhUs2zHwAAID2e2wioo11/IuknhlnSbtn1t27ptA4BAMB0PFcANq5dOxbLvc9LBywDpVjYVopXWocAAGA6TtkK+LPXrn3Kxe53JR00ypNqPB4YAJAWZzwLYNN1a39WK1SXSu4ui0DpxjoAAEA6TPgwoM+tX39kJBp8h7z+TNJwizOll9NFn/ji115qHQMAgKlM+jTAL37sY5VNf/D7/zmWe5WcbhdFYDqcC3k8MAAg+aZ8HPBnr1371KYNv7+hXaMvdtI1kr4i6R5JT8trvOkJU4Z1AACANChM9wNP7BioO07+l0if+OLXlrnA3WuZwbMhUEuNPd5nHQE51nHwCesISLER49ef8gxAmuxfMG+fvI4Zx1h4021bFxtnAADgrDJVALZ1d0dy6rXOESvibgAAQKJlqgBIkpfbbp2B2wEBAEmXuQIgF9sXAOdXd/X0hNYxAACYTOYKwOYN6x5NwHbGnYsODy41zgAAwKQyVwAkKfDaYZ4hDLgMAABIrEwWgDgB6wC89xQAAEBiZbIAyMfbJXnjFJffcEtPu3EGAAAmlMkCsPm6dYckPWIco1wsDa4wzgAAwIQyWQAkSd7/0DpCwO2AAICEym4BSMI6AIkCAABIpOwWgGK1V1JknGL59bdu6TTOAADAGTJbADatX98vaY9xjLCtFK80zgAAwBkyWwAkSc6bXwYIPOsAAADJk+kC4FwC1gF4Hg8MAEieTBeActntljRqGsJpyc23b11omgEAgNNkugBsXLt2TNIu6xw1H62yzgAAwAtlugCcYL8OQKwDAAAkTOYLgI9lviGQ5K+yTgAAwAtlvgDsXzBvn7yOGcdYeNNtWxcbZwAA4DmZLwDbursjOfVa54gVcRkAAJAYmS8AkuQTsC2weC4AACBBclEA5GL7AuD86q6entA6BgAAUk4KwOYN6x710gHjGJ2LDg8uNc4AAICknBQASQq8dphnCAMuAwAAEiE3BSBOwDoA7z0FAACQCLkpAPLxdkneOMXlN9zS026cAQCA/BSAzdetOyTpEeMY5WJpcIVxBgAA8lMAJEnem+8KGHA7IAAgAfJVAJKwDkCiAAAAzOWrABSrvZIi4xTLr791S6dxBgBAzjnrAK1245e+/hNJl1pm8M7/r5s3rPsHywzRvy6/TU7XWmYAANjJ1xkASXL2jwcOEvB4YB/YXw4BANjJXQFwzv4bn/daY50hbBvfKfvLIQAAI7krAOWy2y1p1DSE05Kbb9+60DTCovuPe+k+ywwAADu5KwAb164dk7TLOkfNR6usMzgv87MhAAAbuSsAJ9ivA1AC1gHEIQUAAPIqlwXAxzLfEEjyV1knKBTn/FjSmHUOAEDr5bIA7F8wb5+8jhnHWHjTbVsXWwZwi3rHnLTbMgMAwEYuC8C27u5ITr3WOWJF5pcBvE/A5RAAQMvlsgBIkk/AtsBKwHMBgpACAAB5lNsCIBfbf+NzfnVXT09omuHVr9wj6bhpBgBAy+W2AGzesO5RLx0wjtG56PDgUssAzm2LnNydlhkAAK2X2wIgSYHXDvMMYWB+GcCzHwAA5E6uC0CcgHUA3nvzAhAU7I8DAKC1cl0A5OPtkrxxistvuKWn3TKAe/U9D0t6wjIDAKC1cl0ANl+37pCkR4xjlIulwRXGGSRpp3UAAEDr5LoASJK8N98VMEjA7YCsAwCAfKEAJGEdgGReAMKg8APrDACA1qEAFKu9kiLjFMuvv3VLp2UAd+HdT0j6hWUGAEDr5L4AbFq/vl/SHuMYYVspXmmcQRKXAQAgL3JfACRJzn473CABjwfmuQAAkB8UAEnOJWAdgNca6wxhXNwpKbbOAQBoPgqApHLZ7ZY0ahrCacnNt29daBrh4ruPSdpnmQEA0BoUAEkb164dk7TLOkfNR6usM0hcBgCAPKAAPCcB3/gSsA4g9qH9cQAANB0F4CQfy3xDIMlfZZ2gMFz7saSKdQ4AQHNRAE7av2DePnkdM46x8Kbbti62DOCW7R3x0t2WGQAAzUcBOGlbd3ckp17rHLEi88sAjv0AACDzKAAv4BOwLbAS8FyAwCfhOAAAmokC8EIutv/G5/zqrp6e0DTDUx33Suo3zQAAaCoKwAts3rDuUS8dMI7Ruejw4FLLAG5Vb81Jd1lmAAA0FwXgNIHXDvMMYWB+GcCzDgAAMq1gHSBpYrntTv73LDN471dL2mSZIYj99jhwlhGyxXupEsuPx1LVy0fx85suB5ILA6no5IqhVHaS49ifguNXH45ffTJ6/NKRsoU+8cWvvdQF7qBsj83YeGXuebf+YbfZ9sTey8WPLn9C0kusMmSBj7w0VJMfndkTp117QZobyoX5/ifK8asPx68+WT9+XAI4zebr1h2S9IhxjHKxNLjCMoBz8pJ2WmZINS/5gZr8M5UZv3lIkh89+XcHqyd++sgbjl99OH71ycnxowBMxHvzXQGDBNwO6JOwPXIK+cjLH63Ij9Tq/1zDkfyxqhQn902k0Th+9eH41SdPx48CMCH7++C9ZF4Awsi+CKWNr55886g17h+8r8aKj4439HMmFcevPhy/+uTt+FEAJlKs9kqa+Xmfxlp+/a1bOi0DuIv3Pi7nfmWZIU185OX7Ks8vDmqkyMv3jSf2J4lG4PjVh+NXnzwePwrABDatX98vaY9xjLCtFK80ziB5bgecFu+l49XmvHk8K/LyfVUpWe8hjcHxqw/Hrz45PX4UgMk4++vfQQIeD8x+ANPjByP5ajPfPU6+TjWWH67/2mTScPzqw/GrT16PHwVgEs4lYB2A1xrrDOGJjZGa/y8jxXzkG7JgaNqvN1xL3KnEenD86sPxq0+ejx8FYBLlststyew+fEmS05Kbb9+60DTCRT89Kq8HLDMk3lCLG72XfKtfs5k4fvXh+NUnx8ePAjCJjWvXjknaZZ2j5qNV1hnkuAwwKe9ndZ9w3S87GiX6/uJp4/jVh+NXn5wfPwrAWdmvA1AC1gHErAOYXMXo6og3fO1G4vjVh+NXn5wfPwrAWfhYCbgP3l9lnaAwFN8lqWKdI4n8uN0/Yp+AN5B6cfzqw/GrT96PHwXgLPYvmLdPXseMYyy86batiy0DuGV7R7zXPZYZEqtqeBovgRuLzBjHrz4cv/rk/PhRAM5iW3d3JKde6xyxIvPLAC7gMsBEfGT4E0Rk/wZSL45ffTh+9cn78aMATMEnYFtgJeC5AIFPwHqIJLI8i5eARUR14/jVh+NXn5wfPwrAVFxs/43P+dVdPT2haYYn594jacA0A05l//6Rbhy/+nD86pOA40cBmMLmDese9dIB4xidiw4PLrUM4Fb11pz3P7LMAABoHArANAQndsOzzRAG5pcBPOsAACAzKADTECdgHYD33rwABD40Pw4AgMagAEyHj7fL/orN5Tfc0tNumuDCe34m6SnTDACAhqAATMPm69YdkvSIcYxysTS4wjKAc/Ly9rdFAgDqRwGYLu/NdwUMEnA7oA/sL4cAAOpHAZg2+298XjIvAGFU/YF1BgBA/SgA01Ws9kpq/WOjTrX8+lu3dFoGcEv2/VbSbywzAADqRwGYpk3r1/dL2mMcI2wrxSuNM0ie2wEBIO0oADPh7LfDDRLweGD2AwCA9KMAzIBzCVgH4LXGOkOoeLtsd9EGANSJAjAD5bLbLWnUNITTkptv37rQNMKFe49I+pllBgBAfSgAM7Bx7doxSbusc9R8tMo6g3g6IACkGgVgxhLwjY91AACAOlEAZsjHMt8QSPJXWScIx8bvlDRunQMAMDsUgBnav2DePnkdM46x8Kbbti62DODe8OCwl/upZQYAwOxRAGZoW3d3JGe/H36syPwygGM/AABILQrALPgEbAusBDwXIGAdAACkFgVgNlxs/43P+dVdPT2haYbB6CeSGzLNAACYFQrALGzesO5RLx0wjtG56PDgUssAbtneqpP/kWUGAMDsUABmKfDaYZ4hDMwvA3jWAQBAKlEAZilOwDoA7715AQhCCgAApBEFYLZ8vF2SN05x+Q239LSbJnj1vQ9IesY0AwBgxigAs7T5unWHJD1iHKNcLA2usAzgnLyknZYZAAAzRwGoh/fmuwIGCbgdUKwDAIDUoQDUJQHrACTzAhAUEnBbJABgRigA9ShWeyVFximWX3/rlk7LAO7Ve38tab9lBgDAzFAA6rBp/fp+SXuMY4RtpXilcQZJ3vy2SADA9FEA6uXsHw8cJOHxwKwDAIBUoQDUybkErAPwWmOdISy2JeG2SADANFEA6lQuu92SRk1DOC25+fatC00jvGr305J+bpkBADB9FIA6bVy7dkzSLuscNR+tss4gcRkAANKCAtAQ9usAlIh1APaXQwAA00MBaAAfy3xDIMlfZZ0gdMU7JVWtcwAApkYBaID9C+btk9cx4xgLb7pt62LLAO41uwa9dK9lBgDA9FAAGmBbd3ckp17rHLEi88sAjnUAAJAKFIAG8QnYFlgJeC5AwH4AAJAKFIBGcQnYD9/51V09PaFphnjkbknDphkAAFOiADTI5g3rHvXSAeMYnYsODy61DOAufmjcST+2zAAAmBoFoIECL/P98IMwML8M4JNwWyQA4KwoAA0UJ2AdgPfevAAEMQUAAJKOAtBIPk7CfviX33BLT7tpgov23i/piGkGAMBZUQAaaPN16w5JesQ4RrlYGlxhGcA5xU6u1zIDAODsKACN5r35roBBAm4H9OwHAACJRgFouASsA5DMC0AQ1cyLEABgchSARitWeyVFximWX3/rlk7LAO7i+34l6THLDACAyVEAGmzT+vX9kvYYxwjbSvFK4wyStNM6AABgYhSAZnD2t8EFSXg8MOsAACCxKABN4FwC1gF4rbHOEFaDH8r+tkgAwAQoAE1QLrvdkkZNQzgtufn2rQtNI7zunsNyetgyAwBgYhSAJti4du2YpF3WOWo+WmWdQTwdEAASiQLQNPbrAJSIdQAJOA4AgDNQAJrEx0rAffD+KusEoUo7JVWtcwAATkUBaJL9C+btk9cx4xgLb7pt62LLAO41uwa9017LDACAM1EAmmRbd3ckp17rHLEi88sAzifhbAgA4IUoAE3kE7AtsBLwXIDYsw4AAJKGAtBMLrb/xuf86q6entAyQiEe3S1p2DIDAOBUFIAm2rxh3aNeOmAco3PR4cGllgHcxQ+NO6fdlhkAAKeiADRZ4LXDPEMYmF8G8D4Jl0MAAM+iADRZnIB1AN578wIQeMdCQABIEApAs/l4u+z3w7/8hlt62k0TvOaefZKOmGYAADyHAtBkm69bd0jSI8YxysXS4ArLAM4pdk53WWYAADyPAtAK3puf/g4ScDsgjwcGgOSgALREAtYBSOYFIIhZBwAAieApAK1RrPZKioxTLL/+1i2dlgHcRT/9hexviwQAOApAS2xav75f0h7jGGFbKV5pnEFy9rdFAkDueU8BaBlnvx1uwOOBAQCSFHMGoGWcS8A6AK811hnCyP9Q9rdFAkCu+ZgzAC1TLrvdkkZNQzgtufn2rQtNIyzZ+6TkrW+LBIBcc5wBaJ2Na9eOSdplnaPmo1XWGeR4PDAAmGINQKsl4Pp3EtYBePYDAABLPqIAtJSPk/CTr7/KOkFY9L2yvy0SAPKLAtBa+xfM2yevY8YxFt5029bFlgHcv9vb76W9lhkAIM84A9Bi27q7Izn1WueIFZlfBnCOXQEBwEyNAtByPgHbAisBzwWIWQcAADZicQnAhIvtv/E5v7qrpye0jFAoddjfFgkAOeRrJ7ZioQC02OYN6x719vvhdy46PLjUMoBb1DvmpN2WGQAgl2on1mBTAAwE3n4//CAMzC8DcDsgALSeH+cMgJk4AesAvPfmBSAIknBbJADkzHgsiQJgw8fbZb8f/uU33NLTbppg8e/cJ6nPNAMA5IiveSnmDICZzdetOyTJej/8crE0uMIygHPbIuftb4sEgNyoPL8HGwXAivfmp7+DBNwO6IMEbI8MADnhT57+lygAhhKwDkAyLwBBEp6PAAB5EEuqUADsFau9st8Pf/n1t27ptAzgLtz7iKSDlhkAIA985dRvORQAI5vWr++XtMc4RthWilcaZ5C8N78tEgCyzo/Gp/yaAmDJ2Z/+DpLweOAgMD8OAJBpsZfGOQOQGM4lYB2A1xrrDKGvmi+IBIAs86NnXnGmABgql539fvhOS26+fetC0wiv2XdI0qOWGQAg00YoAImyce3aMUm7rHPUfLTKOoM8uwICQFNUYvnozL3nKADm7NcBKBHrAOwvhwBAFvnh2oS/TwEw5uMk/OTrr7JOELaN75T9bZEAkCl+3J+y+c8LUQCM7V8wb5+8jhnHWHjTbVsXWwZwi+4/7qV9lhkAIGv8cHXSP6MAGNvW3R3J2e+HHysyvwzgWAcAAA3jq/EpO/+djgKQAD4B2wIrAc8FiEMl4DgAQDb4wYmv/T+LApAELrb/xuf86q6entAyQqE458eSxiwzAEAmjEXSJNf+n0UBSIDNG9Y96qUDxjE6Fx0eXGoZwC3qHXPSbssMqeKsA6Qcx68+HL/6NPP4ea94ip/+5SgAiRF4me+HH4SB+WUA7xNwW+RMWP4Lchl4B+b41YfjV5+MHj8/FEkT3Pd/6gdRABIjTsA6AO+9eQEIwnQVABfa/RNyYfrfgDl+9eH41SeLx8/X/KT3/Z8aQJ4CkBQ+3i5pisrWdJffcEtPu2mCV79yj6Tjphlmomj4JlhI/xswx69OHL/6ZPH4DUx+298pnIspAAmx+bp1hyQ9YhyjXCwNrrAM4Ny2yMndaZlhJlzRbt2kK6X/ny/Hrz4cv/pk7fj54WjSTX/OeP3Ajaf/K5gl3pvfBx8k4HZA71N0O2A5sFkM5SSVTG/aaAyOX304fvXJ0PHz1Vh+cJo//UtS4EcpAImSgHUAknkBCAr2x2HanOTKhda/bDnMxipsjl99OH71ycrxiyV/fAbf/CXJu2EKQJIUq72y3w9/+fW3bum0DOBefc/Dkp6wzDAjcw1+Eprb+jetpuH41YfjV58MHL+4f3zqVf+nC3WIApAgm9av75e0xzhG2FaKVxpnkKSd1gGmy4VObk7r3kTcnEImVmA/i+NXH45ffdJ+/Pxw7azb/U4mVrCfApA0zv42uCAJjwdO0zoASW5uQa7Y/H9OrhjIZemnr5M4fvXh+NUntcdvLJpyu99JswR6iAKQMM7ZX//2XmusM4RB4QfWGWbEOblzi1IzfzIKJHduWzauvZ6O41cfjl990nj8xmPF/TO87v8ChSD6AQUgYcplt1vSqGkIpyU33751oWmEC+9+QtIvLDPMWOBO/ANvxptI6OTOK2V76y6OX304fvVJ0fHz1Vhx3/jsd44J5HXJg/dm+cuZShvXrh2TtMs6R81Hq6wzSOm6DCBJruAUnF+Sa2vcPy1XDBSc3yaXhY1XpsDxqw/Hrz5pOH4+8vL1fPOXpDAYdE5sBJRM9usAlIh1AAk4DrNx8lSfm1uo+3Sfm1OQO69NCrL/5vscjl99OH71SfDx85GXPzYuzXzN36kC90sp2yd0UsvHMt8QSPJXWScI4+JO1T/qNtyJhUXBi0pyHTO859dJrj2Ue1FJbl79b0KpxPGrD8evPgk8fr4ayx+dxe1+EwgK7odSPr+0idfV0xO+8umhp+V0nmWOwIcXfuYPfs/0Onz0yPI9ki6xzNAQXlIlkq/EUhTL1yTFJ/8hB06uIKkQyrW5EzuE8S/zVBy/+nD86mN9/MZjxX1VyTfmcTGFcvENbsV9D2bvfo4M2NbdHd34pa/3SvrfLHPEilbLfCGe3y659BcAJ6kcntgBTLy/zhjHrz4cv/pYHr9KpPh4rWHf/BWq4lbc96DEJYDE8gnYFlgJeC5A7MMEHAcAaD0/XGvoT/6SpDD82bP/kwKQVC62/8bn/Oqunh7TJ34Uhms/llSxzAAALRVLcd/4rDf5OZugoDue+98N/+xoiM0b1j3qpQPGMToXHR5cahnALds74qW7LTMAQKv4qld8tDKr7X2nFMgHc6pffv6XSKzAa4d5hjAwvwzgUrgfAADMlB+J5I9WGrLSfyJBMfylu/ihoed+3ZRXQUPECVgH4L03LwCBtz8OANAsvnbi/n4/MPutfacjDoKtL/w1BSDJfLxd9e331AiX33BLT7tpgqc67pU0YJoBAJrAD9Xkj1Tkx5u85Ung4kLoPn/KbzX3FVGPzdetOyTpEeMY5WJpcIVlALeqt+akOy0zAEBDVWLFT1fkhxq/0G9CRXe3W7Z35IW/RQFIOu/NdwUMEnA7oGcdAIAM8NVY8bHxEw/ziVt4grcU3Hz6b1EAEs/++reXzAtAEKf0uQAAoJOr+/vGT2zn2+zT/adxbcHh4pv2nXEWlQKQdMVqr6TIOMXy62/d0mma4KI9D0l60jQDAMxU5cQ2vr5Zt/ZNgyuF/2Wi36cAJNym9ev7Je0xjhG2leKVlgGck5e00zIDAExLLPnhSP6ZyolT/RW7n+FcwQ2Fl9z3pYn+jAKQBs7+9HeQhMcDJ+ExyQAwEe/lRyPFfeOKnx6TH6zKN+l+/hnFKgV/NdmfUQBSwLkErAPwWmOdIYzsF0QCwLN8zcuP1E580z9cke+vmp3mn4gruqHCsvv/bLI/pwCkQLnsdksaNQ3htOTm27cuNI1w8d7H5dyvLDMAyKlY8uNefjhS3Fc9cQvfkYr8QC1R3/RfyJfCjScvn06IApACG9euHZO0yzpHzUerrDPIczsggAby/sR/kZevxdJ4JI3GJ67hD1RP/HT/TOXEaf1jFfnB6olr+q28hW8WfDE4UFy273Nn+5hCq8KgXn675GxPw59YB/At0wwD1aF4pEUbZwDInWR/W58m53yxHL5vqg/jDEBK+FgJuP7tr7JOEITuy1N/FADkWHvwPXfJfXun+jAKQErsXzBvn7yOGcdYeNNtWxdbBnCX3PcrVwxGpv5IAMihUJVCEL5/Oh9KAUiJbd3dkZx6rXPEisxvB1Son1tHAIAkCjqKf3T6nv+Tfmyzw6BxfAK2BVYCngvgQvf31hkAIHFKwe7JNv2ZCAUgTVxsXwCcX93V0xNaRghc+FU5ywQAkDAFN1QoFma0TosCkCKbN6x71EsHjGN0Ljo8uNQygFu294grBMctMwBAYjj5Qlv8zume+n8WBSBlAq8d5hnCwPwygA91n3UGAEiEjvAv3Jt/vnumf40CkDJxAtYBeO/NC0AQqsc6AwCYK4d3F5ff/6nZ/FUKQNr4eLvs96q4/IZbetotAwRD525VYH4cAMCMb3OPFy69f9ZPaqUApMzm69YdkvSIcYxysTS4wjKAW9U75gruacsMAGDFFVxfMRh5nXOa9daoFIA08vZPxQsScDugD4O7rTMAQKu5QjAcnhNf5Fb8aqCez0MBSKUErAOQzAuAU/A31hkAoJVcwVVDV1zhXvfzw/V+LgpAGhWrvZIi4xTLr791S6dlgPDN9/29ApfM53ACQKOFrhq2xVe6t+5pyG6oFIAU2rR+fb+kPcYxwrZSPOvFJ43gnGIfOut9EQCg6VwhGC7MaX/jbG73mwwFIK2cN78MEHj7dQAqup3WEQCgmVzB9YVzdaF70z0PN/LzUgBSyrkErAPwWmOdoViIvmqdAQCaphgeCucEr3RvfOCJRn9qCkBKlctut6RR0xBOS26+fetC0whv+tndLnRVywwA0BTl8O7CW+5/hVt6f1O2PqcApNTGtWvHJO2yzlHz0SrrDL4Q/Mo6AwA0TKhYc8KNxRX3v6We+/ynQgFINft1AErAOoCgoP9hkKmkRwAAGi9JREFUnQEAGiJ0w2pvu6K4/P4/bfZLUQBSzMcy3xBI8jN6/GQzBLH/snUGAKhbKXyg0F78N8Vle3/cipejAKTY/gXz9snrmHGMhTfdtnWxZQB36QO/cMVgRo/BBICkcKEbC+YV/6B42f1vnOkjfetBAUixbd3dkZx6rXPEiswvA/jQN/T2GABoiVJ4Z3he9KLwkvu+1OqXpgCknE/AtsBKwHMBgiD8e+sMADBdri04XJjnLitedv+V7uKHhiwyUADSzsX2BcD51V09PaFlhKAUfVXOMgEATEPBDWlu4f8qvOWBF7tLHvyJZRQKQMpt3rDuUS9Zb4fbuejw4FLLAO4NDz6tQtBvmQEAJhW6Yc0JNxbf9uC84rJ9n7OOI1EAMiHw2mGeIQzMLwO40N1nnQEAXsgV3TGVC39evPzBua24tW8mKAAZECdgHYD33r4AFFyPdQYA8IGLXTn4ieYGby+89cHziyv2fdo600QoAFng4+2SvHGKy2+4pafdMkAwXt4q56yPA4A8cvJBKfxl0F68uRidN6ew4oHLisseSPTDyigAGbD5unWHJD1iHKNcLA2usAzg3nL3qCvoGcsMAHIkVMWVwz2aE95YuCCeH152/+Lw0vv+wq3qHbOONh0F6wBoEO9/KOcusowQnLgd0LbxthV2q1p9r2kGANkTyCsMBhXoVwrc9kKt8DfurXt+bh2rHhSAzHDbJV1nmcBLqyV9yjKD5L8tiQIAYHqc85KXnIvlVHWBG42dHwwC91Ss4Dcu0EMFVXe4N/98t3XURuPO6Yy48StfOUe14lFJlvfjR5Vxd8Hnb1jblEdXAgAahzUAGbFp/fp+SXuMY4RtpXilcQYAwDRQALLE2T8eOEjA44EBAFOjAGSIc0nYD0BrrDMAAKZGAciQctntljRqGsJpyc23b11omgEAMCUKQIZsXLt2TNIu6xw1H62yzgAAODsKQObYrwMQ6wAAIPEoABnjY/3QOoPkr7JOAAA4OwpAxuxfMG+fvI4Zx1h4021bFxtnAACcBQUgY7Z1d0dy6rXOESviMgAAJBgFIIN8Ah4PLLEOAACSjAKQRS62LwDOr+7q6bHclhgAcBYUgAzavGHdo146YByjc9HhwaXGGQAAk6AAZFTgtcM8QxhwGQAAEooCkFFxAtYBeO8pAACQUBSArPLxdkneOMXlN9zS026cAQAwAQpARm2+bt0hSY8YxygXS4MrjDMAACZAAcgy7813BQy4HRAAEokCkGkJWAcgUQAAIIEoAFlWrPZKioxTLL/+1i2dxhkAAKehAGTYpvXr+yXtMY4RtpXilcYZAACnoQBknbN/PHDA44EBIHEoABnnXALWAXitsc4AADgVBSDjymW3W9KoaQinJTffvnWhaQYAwCkoABm3ce3aMUm7rHPUfLTKOgMA4HkUgFywXwcg1gEAQKJQAHLAxzLfEEjyV1knAAA8jwKQA/sXzNsnr2PGMRbedNvWxcYZAAAnUQByYFt3dySnXuscsSIuAwBAQlAAcsInYFtg8VwAAEgMCkBeuNi+ADi/uqunJ7SOAQCgAOTG5g3rHvXSAeMYnYsODy41zgAAkOSsA6B1/vi2r3/DO/2edQ4AQENUJR2X9Jjk75cPdvj2+B83r1s3OJ2/TAHIkRv/+usfktc3rXMAAJpmRHLfiUNt+ux/WPvLs30gBSBHPvHFr73UBe6g+LoDQNZVvXOf72jXn5zcEfYMfCPImRu/9PWHJV1knQMA0BI/ieXe99lr1z51+h+wCDBvvE/AroAAgBZZEcjfe+MXt7zu9D+gAOROEvYDAAC00MsU+P9x+lNZKQB5U6z2SoqsYwAAWuql1Tjadt0XvlB69jcoADmzaf36fkl7rHMAAFrLSZd1BHM/+eyvKQB55BLweGAAQOs5/dEnv/KVl0gUgFzyPgmPBwYAGJgTRcVPS9wGmEsbt2wpj474Y5LarbMAAFpu2Jf9SzgDkEMnN4X4sXUOAICJOcGY+18oADnlHLcDAkBexV5vpwDkVBwl4PHAAAATzun1FICc2r9g3j55HbPOAQAw8UoKQE5t6+6O5NRrnQMAYOIcCkCOebYFBoDcogDkmWMdAADkVD8FIMc2b1j3qJcOWOcAALTcbygAORd47bDOAABouQcoADnnA7YFBoC8cc5tpwDknI/8DkneOgcAoGWGy37knykAObf5unWH5PWv1jkAAK3hvb698dprhygAkMTjgQEgF7zGg0CbJG4DhCSxHwAA5IKTPveXG37/NxIFAJJUrPZKiqxjAACaavdwPPSnz/6CAgBtWr++X9Ie6xwAgKY55GPf9cWPfazy7G9QAHCCYx0AAGSRlw6EQfzOzdetO/TC36cAQNKJe0KtMwAAGstLd3u5N//Ff/w/f376n1EAIEkql91uSaPWOQAADeA17rw+MxoNrfrstWufmuhDXKszIblu/NLXvy/pKuscAIBZG/Ze34599Jd/dd2/33+2Dyy0KhGSzzm33XtPAQCANPAal9NxSfu93D7n453tbuyfNv7BtUPW0QAAAAAAAAAAAAAAAAAAAAAAAAAAAAAAAAAAAAAAAAAAAAAAAAAAAAAAAAAAAAAAAAAAAAAAAAAAAAAAAAAAAAAAAAAAAAAAAAAAAAAAAAAAAAAAAAAAAAAAAAAAAAAA2eGsAwBp09XVFUqlRc65xc7718hpseR/R3LnSJojpznyOlfSnJN/ZVhOffIaljQs+X7JPSavX3jnHnEueDSORx7btm1bZPZ/Cpgm5j87KADAFD74wQ/Or1aDKyS/ynldKaeLJbU1+GXGJf1cTr2S31ko6K5vf/vbAw1+DWDGmP/sogAAE3j/+z/yeh9F13jv3i6nZZLCFkeoyWuvd9ruvf/utm3f/lmLXx85xvznAwUAOKmrq+u8UOX/wzv/EUlvtc5zmoed9DeRL2zdtu0bT1mHQfYw//lDAUDudXd/ZI1TfIOkd0gqWOeZQk3S913gb/nud7+93ToM0o/5zy8KAPLKdXd/+F1O/pOSVliHmRWvfQrcZ+6445v/ryRvHQepwvyDAoDccdd0fbDbO3ezpNdZh2mQB+Tcf+WNENPA/OM5FADkRlfXhy4MnL9NcmusszSF148UuA133PHNn1tHQfIw/zgdBQCZ9+53f7RjTvvIJ7x0kxp/+1LS1Lz8X4+NlT71D//w9UHrMLDH/GMyFABk2tVXf/Bd3rvbnfQy6yyt5Q447//jd7d96x+tk8AO88/8nw0FAJl05ZVXFl78b172KS99WlJgnceI9/Jf9H7849u2bRu3DoPWYf4lMf9TogAgc7q6PvLy0EXf9XKXWWdJBK89YRxf/bd/97e/sY6C5mP+T8P8TyqvzRAZ1d39ofcGLn6AN78XcFoWhcGea7o+9B7rKGgu5n8CzP+kWr29I9A013R/+FpJ35DUbhwlidrldM1rl7x+8KGHH7zbOgwaj/k/K+Z/AhQAZMI13R+60Uu3iMtaZ+Pk9M6LL359+0MPPfhD6zBoHOZ/Wpj/0zAsSLWurq4wcKUvSVpvnSVVnP/G4cNP/Pve3t6adRTMHvM/S8y/JAoAUuzkm993JHVZZ0kjJ/VEvvIBnsOeTsx/fZh/FgEivVzoyreLN79Z81J3EJT+2joHZoX5rxPzzxoApFR394f+q6TrrXNkwCWvfe0bgoceerDXOgimj/lvmFzPPwUAqXP11R/c4OT+0jpHhlzx2iWvP/7Qww/eYx0EU2P+Gy63888aAKRKd/eH3uukvxOXrxot9nLv7en55vesg2ByzH/T5HL+KQBIja6uj7w8cH6f5M+zzpJRfS4ovOm73/3GY9ZBcCbmv+lyN/+0SKTCRz/60WLoou/y5tdU5yqO7ujq6sr6E+NSh/lvidzNPwUAqdB/fHQz25s2n5d/cxCU/tw6B07F/LdG3uafSwBIvO7uD7/byf+9mNdW8V7uXT093/wn6yBg/g3kZv4ZKCTau9/90Y6OjpGH5fUK6yz54g7EfmzJtm3bhqyT5BnzbyUf888lACRaR/von/HmZ8H/2yAo32ydIu+Yfyv5mH/OACCx3v+//97FcRjtk1S0zpJT43LujXfc8c1/tQ6SR8y/uczPP2cAkFQuDqLbxJufpTZ5/2Xxg4IF5t9e5uefAoBEuqbrg91yutI6B7Ty6qs//D7rEHnD/CdGpuefAoAkct65zF9/Sw3vP60M/xSUQMx/kmR4/ikASJyrr/7AeyS9zjoHnvPG7u4P/8/WIfKC+U+czM4/BQDJEwefsI6AUzn5T1tnyA3mP3GyOv8UACRKd/dH1sjpLdY5cIYV3d0fWGUdIuuY/8TK5PxTAJAoTvEN1hkwMefDP7TOkHXMf3Jlcf4zubAB6fT+979/QRyFByUVrLNgQrUgjF72ne9857B1kCxi/hMvc/PPGQAkRhQFHxJvfklWiGvhNdYhsor5T7zMzT8FAInh5D5snQFn5xxfo2Zh/pMva/PPJQAkwtVXf/i18v5n1jkwtdj712/b9m2+Vg3E/KdHluafMwBIBO/9+60zYHqcc13WGbKG+U+PLM0/BQCJMNh/PDP/qLKu/zhfq0Zj/tMjS/NPAYC5rq6uc44cO/qq8fFx6yiYwnh1XH19Ry/84Ac/ON86S1Yw/+mRtfmnAMBcpeLfVamMuYHBAesomMLAQL/GKmNuYGDsd62zZAXznx5Zm38KAMwNDQ18wHuvgYHj1lEwhf7+fnnvNTIy9AHrLFnB/KdH1uafAgBz4+Pjb5aksbExjY2NWcfBJMbGRlWpnPj6VCqVS43jZAbznw5ZnH8KAEx1dXWFlcrY+c/++ljfUcs4OIujx57/2lQqlQu6urpCwziZwPynRxbnnwIAU+PjurBSGX9uP4r+/n7VajXLSJhALappcLD/uV9XKhVXqehVhpEygflPh6zOPwUApoYHB97hffzcr72P1Xe8zzARJtLXd0xx7J/7tfexRoaG3mEYKROY/3TI6vxTAGCqWouWn/57fX1H9cI3RdiK41h9x46d8fvV6MS1a8we8598WZ5/CgBMxb524em/V6vVdPQo10KT4uixo6pFZ56WjuPojK8dZob5T74szz8FAKZqtdpLJvr9I0efURRFrY6D00RRpGPHnpnwz2q1+KUtjpM5zH+yZX3+KQAwVatF8yb6/TiOdeTIxP/w0DpHjjyjKJr4dHStNj7h1w7Tx/wnW9bnnwIAU1FUa5vsz471HRXbo9oZH6/oWN+Z1z6f5X086dcO08P8J1ce5p8CAFPeqzD5n3k9+dQTrYyDF3jyqUNnXYwWx37Srx2mh/lPrjzMPwUApuI4PusMDg8P63g/t0W12vHjfRoeHj7rx8RxlPqNUKwx/8mUl/mnAMCU97Gb6mMOH36KzVFaqFar6fDTT035cXHsp/za4eyY/+TJ0/xTAJB4URTp0JMH5b2f+oNRF++9Dh06yAr0BGH+Wydv808BgKkgCKb1rjY0NHTKXtxojqNHn9HQ8NC0Pta5gN1q6sT8J0ve5p8CAFNBEEy7aj/99FMaGTn7dTnM3sjIsJ5+5ulpf3wYpv8N0Brznxx5nH8KAEwFQTCji5sHnzjI9dAmqNaqeuKJAzP6OzP92uFMzH8y5HX+KQAw5ZyrzuTja7Wqfvv4Y4rjfFyja4UoinXgwG9VneE3FuccN6nXifm3l+f5pwDAlFNQmenfqVTGdPCJAyyKagDvvQ4+8VuNjY3N+O/O5muHUzH/tvI+/xQAmAoL4az2Ox0aGtKhJ9kkpR7eex168okp73eeTFgIpn/BFBNi/u0w/xQAGCsE4S9m+3f7+4/riUMHGxknV5586pD6+4/P+u+HQfHRBsbJJebfDvNPAYAxFwb76vn7/f3HdXCGi3cgPXHooI4fr2+HuULo7mtQnNxi/m0w/ydQAGAqCII76/0cAwP9XBOdphPXPA/U9ZPPswpt9X/t8o75by3m/1Spf5gB0m1wsG9XEDjFcX1vXgMD/arVqnrZy16uQshYTySKIh184vFZX/N8Ieec+vr67mlArFxj/luH+T9T6vcyRvotW3bpcKVS6WjE5yoW2/Tyf/tylUrlRny6zKhUxvT4gcdVrTbmzqVyqTR875575jbkk+Uc8998zP/EuAQAc6VS6eFGfa5qdVz7H9uvgcGBRn3K1BsYHND+x/Y37M1PkoptpYca9slyjvlvLuZ/chQAmAuC8J8a+fniONLBg4/r0KGDiuPU79Y5a957HT78pA4efLzhG8e0tRW+19BPmGPMf3Mw/1OjACAB2r7sXOOvRh3vP65f/+ZXGhkZafjnTrqxsVH9+je/asoDZJxzCsO5/3fDP3FuMf+NxvxPD2sAkAjLlq0YrFTGmnZN7YLzL9AFF7xIQRA26yUSIYpiHTnytI4eO9K01yiX2wfuvffuc5r2AjnE/DcG8z8znAFAIpRKpfub+fmPHD2iX//6lw25/Sep+vuP69e/+UVT3/wkqVgs1XXvOs7E/NeP+Z857hdBIrSFbZ+V9LZmvka1VtMThw6q7/gxveiCBZozZ04zX65lhoeH9fQzhzU62ppTveVy2+da8kI5wvzPHvM/e1wCQGI08nao6ejo6NAF51+guXPnt+olG2p0dFhPP/2MhkeGWvaapVJ5eM+en6T+9qckYv5nhvmvH2cAkBjlcvv3K5XKe1v1eiMjI3p85HG1t7frvHPP1/z556gZi7EayftYAwMDOtZ3VKOjoy1//fZy+Z9b/qI5wfxPjflvLAoAEqMcFD454Nx7W72l6ejoqJ4YPainDh/S/HmdOvfc81QuJ2sjlUplTP39/eo7fkxRZPMseOecSuXCn5i8eA4w/5Nj/psj2XUPuXPppW95amRkZIF1jrZim+bNm6+5c+eZXCv13mtkdFhDg0MaHBzQeAM3MZmtjo45T91zz66XWOfIMub/BOa/NTgDgEQplzs2jYyM3GKdY7w6rqPHjujosSMKglBz585Ve7ms9vYOlcvtCoLG3kATx5FGR8c0Njai0dFRDQ0PN3zzknp1dLR9xjpD1jH/zH8rcQYAibN8+WX9Y2OjiV6ZVCqVVWprU7F44r+2toLCsKgwDOUCp8AFCsMT91xHUaTYx/KxVxRFiqKqKuNV1apVVavjqlTGVRkfM/5/dHbt5faBn2bk3uekY/6TJ6vzzxkAJM6cOXNuHRsb/c/WOc6mUhlTpZLsN61Gau/o2GSdIS+Y/+TJ6vxzBgBJ5JYtu3SolbdEYXKlUnnk5K1PPHC+NZj/BMny/LMTIJLIz5kz90vWIXBCR0fHrcrgm1+CMf8JkuX55wwAkspd+ua3PDMyOnK+dZA86+jo6Lvnnt3nK6NvgAnG/CdA1uefMwBIKj9n7twPBwEd1YpzTh0dcz6kjL75JRzzbywP8890IdHe+tYrdg8M9F9mnSOP5s8/50e7dt250jpHnjH/dvIw/5wBQKKVy+e9u1hsq1nnyJu2YrFWLp/3Puscecf828jL/Gf74dBIvf37Hxm98NUX+bHK6Nuts+SFc07ndZ7zyR07//kH1lnyjvlvvTzNP5cAkApvvWzlTwaGBi61zpEH55wzf9ePf3xXUx9Ni5lh/lsnT/PPJQCkwvzOOVeUy+391jmyrr29feBVr3rlGuscOBXz3xp5m3/OACA13v72d76pr+/IvbVaRHFtgjAM/YLzLljxLzv+5afWWXAm5r+58jj/rAFAauzf/+snX7P4Ijc6NnqldZYsOvfcCz61vff737XOgYkx/82Vx/mnACBVHvvt/jsvvHDJK8bGRpdaZ8mSc88992/vumv7DdY5cHbMf3Pkdf65BIBUetvbVv2wv79vtXWOLOjsPOf7P/rRne+0zoHpY/4bJ8/zTwFAar3lLVfcNzjYz09CdZg3d95Du+/+0Wutc2DmmP/65X3+WUyC1KpUhi6dM2fOY9Y50mrOnHmPtZXCN1rnwOww//Vh/ikASLG9e/dWy+Xiq+fPO+d+6yxpM3/+/IcHB49d2Nvbyy5zKcX8zx7zfwKXAJAJK1de+Q99fcffbZ0jDfK00UleMP/Tx/w/jzMAyIS77up9z3nnnf83ztFpz6az87xv8eaXPcz/9DD/p+I2QGTGb3+7//97zWsu9uPj41d673knfIEwDONzz73gU3fdtf0PrbOgOZj/yTH/E2NIkDlXXXXVG/v7h3eOjo50WmdJgvb29sH58zvf8cMf/vNPrLOg+Zj/UzH/k+MSADLnBz/4wf3nn3/Oi8+ZN//OvJ8SnTdv7gOveMXLFvDmlx/M//OY/7PL93Qg86644qpPDg72/2m1Ol6wztJKxWKx1jl/3qd29O7YZJ0Fdph/5v9sKADIvNWr33d+ZfTo3w0OD14Rx946TlM55zRv3vy9xeL8/6m393tHrPPAHvOPyVAAkBurLr9q9XBl+LujoyMXWGdphnK54/j8OXM/vL33+//dOguSh/nH6SgAyJ2VK9d8ZmRk8GOVSqXDOksjlErl4Y6Ojs/fddeOT1lnQfIx/3gWBQC5dcUVqzeMjo78l9HR0fOss8xGuVwebG/v+G933bXjTyRl+9wuGo75BwUAuXfllav/0+jo2B+Pjo682Ptkv48459Te3vFUR0fbZ3bu3PkF6zxIP+Y/vygAwElr1qx5ZWW09qdj42PvGRsbm2+d54Xa2toq7eX2HcW24OM7d+58yDoPsof5zx8KADCB1Ve+411j1bGPV8fHl45VKvNa/ZORc06lUnmgWCztK5VKn92581/+saUBkGvMfz5QAIAprF79ngW12vBHq9Xqu6vjlSXj1fE5jb6dKgicioW24bZS6aG2tsL32toKX/3+97//dENfBJgF5j+7KADADF1yySXF+fPnv8VH7m21OL4kimqLoyhe4H1c8t4X4tgX4jgqxHHsJCkIAh8EYS0IXM05V3UuGA/D4HAYFn5RCIK9QUE/iuN4d94fTYp0YP6z4/8HIyD6uemh3PQAAAAASUVORK5CYII=;" parent="7" vertex="1">
                    <mxGeometry x="560" y="140" width="140" height="140" as="geometry"/>
                </mxCell>
            </root>
        </mxGraphModel>
    </diagram>
</mxfile>